<?xml version="1.0" encoding="utf-8"?>
<!-- Generator: Adobe Illustrator 19.1.1, SVG Export Plug-In . SVG Version: 6.00 Build 0)  -->
<!DOCTYPE svg PUBLIC "-//W3C//DTD SVG 1.1//EN" "http://www.w3.org/Graphics/SVG/1.1/DTD/svg11.dtd">
<svg version="1.1" id="レイヤー_1" xmlns="http://www.w3.org/2000/svg" xmlns:xlink="http://www.w3.org/1999/xlink" x="0px"
	 y="0px" viewBox="0 0 221.2 64" style="enable-background:new 0 0 221.2 64;" xml:space="preserve">
<style type="text/css">
	.st0{fill:#9ED8F5;}
	.st1{fill:#0068B6;}
	.st2{fill:#0054A6;}
	.st3{fill:#54C2F0;}
	.st4{fill:#49A9D1;}
	.st5{fill:#BBC3E3;}
	.st6{fill:#767CBA;}
	.st7{fill:#666BA1;}
	.st8{fill:none;stroke:#231815;stroke-width:0.5;stroke-miterlimit:10;}
</style>
<g>
	<path class="st0" d="M-340.3,155.8c1.9-2.3,3.1-5.2,3.1-8v-24.7l-100.6-26.9v33.5L-340.3,155.8z"/>
	<path class="st1" d="M-343.9,104.6c7.4-2,13.4-9.6,13.4-17V54.1l-93.9,25.1c-7.4,2-13.4,9.6-13.4,17v33.5L-343.9,104.6z"/>
	<polygon class="st2" points="-375.2,113 -437.7,96.2 -437.7,129.7 	"/>
	<path class="st3" d="M-347,160.4c5.4-1.5,9.9-7.1,9.9-12.5v-24.7l-9.9,2.6l-60.7,16.3c-5.4,1.5-9.9,7.1-9.9,12.5v24.7L-347,160.4z"
		/>
	<path class="st4" d="M-399.7,139.9l59.4,15.9c0.7-0.9,1.3-1.8,1.8-2.8c0,0,0,0,0,0c0.1-0.3,0.3-0.6,0.4-0.9c0,0,0-0.1,0-0.1
		c0.1-0.3,0.2-0.6,0.3-0.9c0-0.1,0-0.1,0.1-0.2c0.1-0.3,0.1-0.5,0.2-0.8c0-0.1,0-0.1,0.1-0.2c0.1-0.3,0.1-0.5,0.1-0.8
		c0-0.1,0-0.2,0-0.2c0-0.3,0.1-0.7,0.1-1v-24.7l-9.9,2.6L-399.7,139.9z"/>
	<path class="st5" d="M-427.9,28c-1.9,2.3-3.1,5.2-3.1,8v24.7l100.6,26.9V54.1L-427.9,28z"/>
	<polygon class="st2" points="-393,70.8 -330.5,87.6 -330.5,54.1 	"/>
	<path class="st6" d="M-421.1,23.4c-5.4,1.5-9.9,7.1-9.9,12.5v24.7l9.9-2.6l60.7-16.3c5.4-1.5,9.9-7.1,9.9-12.5V4.5L-421.1,23.4z"/>
	<path class="st7" d="M-368.5,43.9L-427.9,28c-0.7,0.9-1.3,1.8-1.8,2.8c0,0,0,0,0,0c-0.1,0.3-0.3,0.6-0.4,0.9c0,0,0,0.1,0,0.1
		c-0.1,0.3-0.2,0.6-0.3,0.9c0,0.1,0,0.1-0.1,0.2c-0.1,0.3-0.1,0.5-0.2,0.8c0,0.1,0,0.1-0.1,0.2c-0.1,0.3-0.1,0.5-0.1,0.8
		c0,0.1,0,0.2,0,0.2c0,0.3-0.1,0.7-0.1,1v24.7l9.9-2.6L-368.5,43.9z"/>
</g>
<g>
	<path d="M-646.4-138.7c-0.9-1.2-1.3-1.8-1.8-3.1v9.7h-1.5v-9.9c-0.2,0.6-0.9,3-2.5,5.4l-0.7-2c1.7-2.1,2.7-5.1,3.1-6.7h-2.8v-1.6
		h2.9v-3.9h1.5v3.9h2.5v1.6h-2.5v1.3c0.4,1,1.7,2.7,2.8,3.8L-646.4-138.7z M-639-132.1h-1.6v-7.3c-1.3,2.4-2.7,3.9-4.8,5.7l-1.1-1.4
		c2.9-2.1,4.5-4.3,5.5-6.1h-4.7v-1.5h5.1v-3.1h-2.5c-0.6,1.4-1,2-1.4,2.5l-1.5-0.9c1-1.2,1.8-2.6,2.5-5.9l1.7,0.2
		c-0.1,0.6-0.2,1.3-0.6,2.5h2v-3.3h1.6v3.3h4.4v1.5h-4.4v3.1h4.9v1.5h-4.3c1.5,3,2.9,4.5,4.6,5.9l-0.9,1.7c-2.3-2-3.5-4.1-4.2-5.9
		V-132.1z"/>
	<path d="M-622.1-134.6c-2.9,0.7-6.6,1.3-10.4,1.7l-0.2-1.7c0.8-0.1,1.9-0.2,4.4-0.5v-6.3h-4v-1.6h9.5v1.6h-3.9v6
		c2.9-0.5,3.7-0.7,4.5-0.8L-622.1-134.6z M-620.5-150.6c0,0.7,0,1.5,0,3.3h6.3v1.6h-6.3c0.2,3.7,0.4,7.6,2.5,10.6
		c0.2,0.3,0.8,1.1,1.3,1.1c0.5,0,1-1.4,1.1-3.3l1.5,0.7c-0.2,1.5-0.6,4.5-2.5,4.5c-2.2,0-3.9-3.3-4.4-4.9c-1-3.1-1.1-4.7-1.4-8.7
		h-10.6v-1.6h10.5c0-0.9-0.1-2.1-0.1-3.3H-620.5z M-616.1-147.5c-0.8-0.7-1.6-1.2-3.1-2.1l0.9-1.2c1.5,0.8,2.1,1.2,3.2,2
		L-616.1-147.5z"/>
	<path d="M-598.1-143.6h-10.6v-1.1c-1.8,1.1-2.9,1.6-3.6,1.9l-0.8-1.6c6-2.3,8.2-5.6,8.7-6.4h1.8c2.1,2.8,5.3,5.2,8.7,6.4l-0.9,1.6
		c-0.9-0.4-2-0.9-3.4-1.9V-143.6z M-599.8-138.9c2.1,2.1,3.4,3.5,4.9,5.9l-1.4,1c-0.3-0.5-0.6-0.9-1-1.5c-3.3,0.5-11.5,0.8-14.6,0.8
		l-0.2-1.6h2.8c1.3-2.2,2-4,2.5-5.2h-5.5v-1.5h17.9v1.5H-605c-0.5,1.1-1.3,2.8-2.6,5.1c0.5,0,2.7-0.1,3.2-0.1c2.4-0.1,4.5-0.3,6-0.4
		c-0.2-0.3-1.2-1.5-2.8-3.1L-599.8-138.9z M-598.7-145.1c-2.8-2-4-3.4-4.7-4.3c-1.3,1.8-3,3.2-4.6,4.3H-598.7z"/>
	<path d="M-587.9-132.1h-1.6v-8.1c-1.3,1.2-2.2,1.8-2.7,2.1l-0.7-1.6c3.3-2,5.2-4.6,5.9-6.2h-5.6v-1.5h3.2v-3.3h1.6v3.3h2.6v1.5
		c-0.2,0.5-0.7,1.7-2.2,3.5c1.1,1.2,1.8,1.8,2.9,2.6l-0.9,1.5c-1.1-0.9-1.3-1.1-2.4-2.4V-132.1z M-579-150.7v5.8h4.4v1.6h-4.4v8.8
		h4.9v1.6h-11.7v-1.6h5.1v-8.8h-4.2v-1.6h4.2v-5.8H-579z"/>
	<path d="M-565.6-140.8c-2.3-1.4-4-1.9-5.7-2.4l0.7-1.6c2.3,0.6,3.7,1.1,5.8,2.3L-565.6-140.8z M-570.3-135.4
		c7.8-0.8,11.4-3.7,13.8-11.3l1.5,1.1c-2.8,8.3-6.5,11-14.9,12.1L-570.3-135.4z M-564-145.5c-2.2-1.3-4.2-1.9-5.8-2.4l0.7-1.5
		c2.3,0.6,3.8,1.1,5.9,2.2L-564-145.5z"/>
	<path d="M-551.2-134.4c7.8-1.5,10.9-6.2,12-12.3h-6.9c-1.3,2.1-2.8,3.7-5.1,5.3l-1.1-1.4c1.6-1.1,3.6-2.8,5-5.6h8l1.9,2.5
		c-1.7,7.6-5.8,11.6-13,13.2L-551.2-134.4z M-538.1-150.8c1,1.3,1.4,2,2.3,3.6l-1.3,0.9c-0.7-1.6-1.2-2.4-2.2-3.7L-538.1-150.8z
		 M-535.4-151.5c1,1.3,1.4,2,2.2,3.7l-1.3,0.8c-0.7-1.5-1.1-2.3-2.1-3.8L-535.4-151.5z"/>
	<path d="M-515-145.6v1.8h-7.2c0,6-2.5,9-7.6,10.8l-1-1.6c2.9-1,5-2.4,5.9-4.4c0.6-1.3,0.9-3.5,0.9-4.9h-7.7v-1.8h7.7v-4.2h1.9v4.2
		H-515z"/>
	<path d="M-501.2-132.9h-1.9v-9.3c-2.7,1.9-5.3,3.1-7.9,4l-0.9-1.7c5.7-1.8,10.6-5.4,14.3-10.1l1.7,1.1c-0.9,1-2.5,3-5.3,5.2V-132.9
		z"/>
	<path d="M-476.4-138.7c-1.4-0.8-4.6-2.8-8.8-4.3v10.1h-1.9V-150h1.9v5.1c3.8,1.2,6.9,2.7,9.8,4.3L-476.4-138.7z"/>
	<path d="M-467.2-139.6c-0.8-1.2-1-1.8-1.3-2.5v10.1h-1.6v-9.5c-0.4,1.6-0.9,3.1-2.2,5l-0.7-2c1.3-1.6,2.3-4,2.8-6.6h-2.5v-1.5h2.6
		v-3.9h1.6v3.9h2v1.5h-2v0.7c0.4,1.2,1.2,2.5,2.2,3.6L-467.2-139.6z M-467.4-134.1c0.7-0.3,2.8-1.1,5-2.8l0.4,1.4
		c-1.1,0.8-3.2,2.1-4.8,2.8L-467.4-134.1z M-454.7-132.8c-2-1.2-3.5-2.5-4.7-4.5v3.5c0,0.4,0,1.6-1.5,1.6h-2.3l-0.3-1.6l1.9,0
		c0.4,0,0.6,0,0.6-0.6v-6.4h-5.1v-1.4h5.1v-1.8h-4.3v-1.4h4.3v-1.6h-4.8v-1.4h2.7c-0.2-0.6-0.5-1.4-0.9-2.1l1.5-0.2
		c0.4,0.7,0.8,1.6,1,2.3h2.7c0.2-0.4,0.6-1.2,1-2.3l1.6,0.2c-0.4,1.2-0.9,1.9-1,2.1h2.7v1.4h-4.9v1.6h4.4v1.4h-4.4v1.8h5.2v1.4h-5.2
		v0.7c0.7,1.9,2.5,4.4,5.5,5.7L-454.7-132.8z M-464.9-140.3c0.3,0.2,1.4,0.9,2.5,2.1l-1.1,1.1c-0.6-0.7-1.5-1.5-2.4-2.1
		L-464.9-140.3z M-457.5-138.1c0.7-0.6,1.5-1.5,2-2.2l1.3,0.9c-0.6,0.9-1.3,1.6-2.1,2.2L-457.5-138.1z"/>
	<path d="M-416-148.4v14.3h-14.8v-14.3H-416z M-417.8-146.7h-11.1v10.9h11.1V-146.7z"/>
	<path d="M-399.4-147.9l2.3,2.6v10.9h-13.8v-1.8h11.9v-10.1h-11.7v-1.8H-399.4z M-398.4-150.5c1,1.1,1.6,1.9,2.5,3.5l-1.2,0.9
		c-0.8-1.6-1.3-2.2-2.4-3.6L-398.4-150.5z M-395.7-151.5c1,1.1,1.8,2.3,2.5,3.5l-1.3,0.9c-0.8-1.5-1.3-2.4-2.4-3.6L-395.7-151.5z"/>
	<path d="M-389.8-132.9l-0.7-1.6c5.1-0.9,6.7-2.8,6.8-7.8h-7.8v-1.7h16.3v1.7h-6.6C-382.1-136.6-384.3-134.1-389.8-132.9z
		 M-379.1-149.2v1.7H-390v-1.7H-379.1z M-377.4-151c0.6,1.3,0.9,2.4,1.3,4.1l-1.5,0.5c-0.3-1.7-0.6-2.6-1.2-4.1L-377.4-151z
		 M-374.5-151.3c0.6,1.3,0.9,2.5,1.2,4.1l-1.5,0.5c-0.3-1.7-0.5-2.6-1.1-4.2L-374.5-151.3z"/>
	<path d="M-367-138.9h-1.8v-5.3h-3.3v-1.7h3.3v-3.8h1.8v3.8h6.5v-3.9h1.7l0.1,3.9h3.7v1.7h-3.6v2.6c0,2.9-0.5,7.7-8.8,8.7l-0.7-1.7
		c7.7-0.6,7.7-5.1,7.7-7v-2.6h-6.5V-138.9z M-357-151.2c0.5,1.3,0.7,2.5,1,4.2l-1.5,0.3c-0.2-1.7-0.4-2.5-0.9-4.1L-357-151.2z
		 M-354.3-151.5c0.6,1.5,0.8,2.5,1,4.2l-1.5,0.3c-0.2-1.7-0.4-2.6-0.9-4.1L-354.3-151.5z"/>
	<path d="M-341.2-132.9h-1.9v-9.3c-2.7,1.9-5.3,3.1-7.9,4l-0.9-1.7c5.7-1.8,10.6-5.4,14.3-10.1l1.7,1.1c-0.9,1-2.5,3-5.3,5.2V-132.9
		z"/>
	<path d="M-325-144.1c-1.2-0.8-3.3-2-6.2-2.9l0.9-1.6c3.5,1.1,5.7,2.5,6.3,2.8L-325-144.1z M-330.8-135.5
		c10.1-0.5,13.1-7.6,14.5-12.1l1.6,1.2c-1,2.8-4.2,12.2-15.7,12.9L-330.8-135.5z"/>
</g>
<line class="st8" x1="-653.4" y1="605.3" x2="-114.8" y2="605.3"/>
<line class="st8" x1="-653.4" y1="-117.6" x2="-114.8" y2="-117.6"/>
<g>
	<path class="st1" d="M-454.7,245.5h1.1c0,0.6,0.2,1.1,0.6,1.5c0.4,0.4,0.9,0.6,1.6,0.6c0.7,0,1.2-0.1,1.6-0.4
		c0.4-0.3,0.6-0.7,0.6-1.1c0-0.7-0.7-1.2-2.2-1.5c-0.1,0-0.2,0-0.2,0c-1.2-0.3-1.9-0.6-2.3-0.9c-0.4-0.3-0.6-0.8-0.6-1.5
		c0-0.8,0.3-1.4,0.8-1.9c0.6-0.5,1.3-0.7,2.2-0.7c1,0,1.7,0.2,2.3,0.7c0.5,0.5,0.8,1.2,0.8,2l-1.1,0c0-0.6-0.2-1-0.6-1.3
		c-0.4-0.3-0.8-0.5-1.5-0.5c-0.6,0-1,0.1-1.4,0.4c-0.3,0.3-0.5,0.6-0.5,1c0,0.7,0.7,1.2,2.1,1.5c0.2,0.1,0.4,0.1,0.5,0.1l0.1,0
		c0.9,0.2,1.5,0.5,1.9,0.7c0.2,0.2,0.4,0.4,0.5,0.7c0.1,0.3,0.2,0.6,0.2,0.9c0,0.8-0.3,1.5-0.9,2s-1.4,0.7-2.4,0.7
		c-1,0-1.9-0.3-2.4-0.8C-454.3,247.2-454.6,246.5-454.7,245.5z"/>
	<path class="st1" d="M-439.2,248.3v-3.9c0-0.6-0.1-1.1-0.3-1.3c-0.2-0.2-0.5-0.3-0.9-0.3c-0.5,0-0.9,0.2-1.2,0.5
		c-0.3,0.3-0.4,0.8-0.4,1.3v3.7h-1.1v-3.9c0-0.6-0.1-1.1-0.3-1.3c-0.2-0.2-0.5-0.3-0.9-0.3c-0.5,0-0.9,0.2-1.2,0.5
		c-0.3,0.3-0.4,0.8-0.4,1.3v3.7h-1.1V242h1v0.9c0.2-0.4,0.5-0.6,0.8-0.8c0.3-0.2,0.7-0.3,1.1-0.3c0.4,0,0.7,0.1,1,0.2
		c0.3,0.2,0.5,0.4,0.7,0.7c0.3-0.3,0.6-0.6,0.9-0.7c0.3-0.2,0.7-0.2,1.1-0.2c0.4,0,0.8,0.1,1.1,0.2c0.3,0.1,0.5,0.4,0.7,0.6
		c0.1,0.2,0.2,0.4,0.2,0.6c0,0.2,0.1,0.6,0.1,1.1v0.2v3.8H-439.2z"/>
	<path class="st1" d="M-433,247.5c-0.3,0.3-0.7,0.6-1,0.8c-0.4,0.2-0.8,0.3-1.2,0.3c-0.6,0-1.1-0.2-1.5-0.5
		c-0.4-0.3-0.5-0.8-0.5-1.4c0-0.6,0.2-1,0.5-1.3c0.4-0.3,0.9-0.5,1.6-0.6c0.2,0,0.4,0,0.7-0.1c0.5-0.1,0.9-0.1,1-0.2
		c0.1,0,0.2-0.1,0.2-0.2c0-0.1,0.1-0.2,0.1-0.5c0-0.3-0.1-0.6-0.4-0.7c-0.2-0.2-0.6-0.2-1.1-0.2c-0.5,0-0.9,0.1-1.1,0.3
		c-0.2,0.2-0.4,0.5-0.4,0.9h-1v0c0-0.6,0.2-1.1,0.7-1.5c0.4-0.4,1.1-0.6,1.8-0.6c0.8,0,1.5,0.2,1.9,0.5c0.4,0.3,0.6,0.8,0.6,1.5v3.1
		c0,0.3,0,0.4,0.1,0.5c0.1,0.1,0.2,0.1,0.3,0.1c0,0,0.1,0,0.1,0c0,0,0.1,0,0.2,0v0.8c-0.1,0-0.2,0.1-0.3,0.1c-0.1,0-0.2,0-0.3,0
		c-0.4,0-0.6-0.1-0.8-0.2C-432.9,248.1-433,247.8-433,247.5L-433,247.5z M-433.1,245.1c-0.3,0.2-0.8,0.3-1.4,0.4
		c-0.2,0-0.4,0.1-0.5,0.1c-0.4,0.1-0.7,0.2-0.8,0.3c-0.2,0.2-0.3,0.4-0.3,0.7s0.1,0.6,0.3,0.7c0.2,0.2,0.5,0.3,0.8,0.3
		c0.6,0,1-0.1,1.4-0.4c0.4-0.3,0.5-0.7,0.5-1.1V245.1z"/>
	<path class="st1" d="M-430.1,248.3V242h1v1.1c0.2-0.4,0.4-0.7,0.7-0.9s0.6-0.3,1.1-0.3c0.1,0,0.1,0,0.2,0c0,0,0.1,0,0.1,0v1.1
		c0,0-0.1,0-0.1,0c0,0-0.1,0-0.2,0c-0.6,0-1,0.2-1.3,0.5c-0.3,0.3-0.4,0.8-0.4,1.3v3.5H-430.1z"/>
	<path class="st1" d="M-424.4,246.7c0,0.3,0,0.5,0.1,0.6c0.1,0.1,0.2,0.1,0.4,0.1c0.1,0,0.1,0,0.2,0s0.2,0,0.3,0v0.9
		c-0.2,0-0.3,0.1-0.5,0.1c-0.1,0-0.3,0-0.4,0c-0.5,0-0.8-0.1-1-0.3c-0.2-0.2-0.3-0.5-0.3-1v-4.2h-0.9V242h0.9v-1.8h1.1v1.8h1.1v0.8
		h-1.1V246.7z"/>
	<path class="st1" d="M-418.3,248.3v-8.6h1.2v8.6H-418.3z"/>
	<path class="st1" d="M-410.9,247.5c-0.2,0.3-0.5,0.6-0.9,0.7c-0.3,0.2-0.7,0.2-1.1,0.2c-0.8,0-1.5-0.3-2-0.9
		c-0.5-0.6-0.8-1.4-0.8-2.4c0-1,0.3-1.8,0.8-2.4c0.5-0.6,1.2-0.9,2.1-0.9c0.4,0,0.8,0.1,1.1,0.2c0.3,0.2,0.6,0.4,0.9,0.8V242h1v6.1
		c0,1-0.2,1.7-0.7,2.1c-0.5,0.4-1.2,0.6-2.2,0.6c-0.8,0-1.5-0.2-2-0.5c-0.5-0.3-0.7-0.8-0.7-1.3v0h1v0c0,0.3,0.1,0.6,0.4,0.7
		c0.3,0.2,0.7,0.2,1.2,0.2c0.7,0,1.1-0.1,1.4-0.4c0.3-0.3,0.4-0.7,0.4-1.3V247.5z M-412.7,242.8c-0.6,0-1.1,0.2-1.4,0.6
		c-0.3,0.4-0.5,1-0.5,1.8c0,0.8,0.2,1.3,0.5,1.8c0.3,0.4,0.8,0.6,1.4,0.6c0.6,0,1.1-0.2,1.4-0.6c0.3-0.4,0.5-1,0.5-1.8
		c0-0.8-0.2-1.4-0.5-1.8C-411.6,243-412.1,242.8-412.7,242.8z"/>
	<path class="st1" d="M-403.8,248.3v-3.9c0-0.6-0.1-1-0.3-1.3c-0.2-0.2-0.5-0.4-1-0.4c-0.6,0-1,0.2-1.4,0.5s-0.5,0.8-0.5,1.4v3.6
		h-1.1V242h1v0.9c0.2-0.4,0.5-0.6,0.9-0.8c0.3-0.2,0.7-0.3,1.2-0.3c0.5,0,0.9,0.1,1.2,0.2c0.3,0.1,0.6,0.4,0.8,0.6
		c0.1,0.2,0.2,0.3,0.2,0.5c0,0.2,0.1,0.5,0.1,1v0.3v3.8H-403.8z"/>
	<path class="st1" d="M-400.9,240.9v-1.2h1.1v1.2H-400.9z M-400.9,248.3V242h1.1v6.3H-400.9z"/>
	<path class="st1" d="M-396.8,246.7c0,0.3,0,0.5,0.1,0.6c0.1,0.1,0.2,0.1,0.4,0.1c0.1,0,0.1,0,0.2,0s0.2,0,0.3,0v0.9
		c-0.2,0-0.3,0.1-0.5,0.1c-0.1,0-0.3,0-0.4,0c-0.5,0-0.8-0.1-1-0.3c-0.2-0.2-0.3-0.5-0.3-1v-4.2h-0.9V242h0.9v-1.8h1.1v1.8h1.1v0.8
		h-1.1V246.7z"/>
	<path class="st1" d="M-394.4,240.9v-1.2h1.1v1.2H-394.4z M-394.4,248.3V242h1.1v6.3H-394.4z"/>
	<path class="st1" d="M-392.3,245.2c0-1.1,0.3-1.9,0.8-2.5c0.5-0.6,1.3-0.9,2.2-0.9c1,0,1.7,0.3,2.2,0.9c0.5,0.6,0.8,1.4,0.8,2.5
		s-0.3,1.9-0.8,2.5c-0.5,0.6-1.3,0.9-2.2,0.9c-1,0-1.7-0.3-2.2-0.9C-392.1,247-392.3,246.2-392.3,245.2z M-391.2,245.2
		c0,0.8,0.2,1.4,0.5,1.8c0.3,0.4,0.8,0.6,1.4,0.6c0.6,0,1.1-0.2,1.4-0.6c0.3-0.4,0.5-1,0.5-1.8c0-0.8-0.2-1.4-0.5-1.8
		c-0.3-0.4-0.8-0.6-1.4-0.6c-0.6,0-1.1,0.2-1.4,0.6C-391.1,243.8-391.2,244.4-391.2,245.2z"/>
	<path class="st1" d="M-380.9,248.3v-3.9c0-0.6-0.1-1-0.3-1.3c-0.2-0.2-0.5-0.4-1-0.4c-0.6,0-1,0.2-1.4,0.5
		c-0.3,0.3-0.5,0.8-0.5,1.4v3.6h-1.1V242h1v0.9c0.2-0.4,0.5-0.6,0.9-0.8c0.3-0.2,0.7-0.3,1.2-0.3c0.5,0,0.9,0.1,1.2,0.2
		c0.3,0.1,0.6,0.4,0.8,0.6c0.1,0.2,0.2,0.3,0.2,0.5c0,0.2,0.1,0.5,0.1,1v0.3v3.8H-380.9z"/>
	<path class="st1" d="M-372.6,248.3v-7.6h-2.7v-1h6.6v1h-2.7v7.6H-372.6z"/>
	<path class="st1" d="M-365,246.3h1c-0.1,0.7-0.4,1.2-0.9,1.6c-0.5,0.4-1.1,0.6-1.8,0.6c-0.9,0-1.6-0.3-2.1-0.9
		c-0.5-0.6-0.8-1.4-0.8-2.4c0-1.1,0.3-1.9,0.8-2.5c0.5-0.6,1.2-0.9,2.1-0.9c0.9,0,1.6,0.3,2.1,0.8c0.5,0.6,0.7,1.3,0.7,2.3
		c0,0.1,0,0.2,0,0.3c0,0.1,0,0.1,0,0.2h-4.5c0,0.7,0.2,1.2,0.5,1.5c0.3,0.4,0.8,0.5,1.3,0.5c0.4,0,0.8-0.1,1.1-0.3
		S-365.1,246.7-365,246.3z M-368.5,244.6h3.4c0-0.6-0.2-1-0.4-1.4c-0.3-0.3-0.7-0.5-1.2-0.5c-0.5,0-0.9,0.2-1.2,0.5
		C-368.2,243.6-368.4,244-368.5,244.6z"/>
	<path class="st1" d="M-358.5,244.1c0-0.4-0.2-0.8-0.5-1c-0.3-0.2-0.7-0.3-1.1-0.3c-0.6,0-1,0.2-1.3,0.6c-0.3,0.4-0.5,1-0.5,1.8
		c0,0.8,0.1,1.4,0.4,1.8c0.3,0.4,0.7,0.6,1.3,0.6c0.5,0,0.9-0.1,1.2-0.4c0.3-0.3,0.5-0.6,0.5-1.1h1c-0.1,0.8-0.3,1.4-0.8,1.8
		c-0.5,0.4-1.1,0.6-2,0.6c-0.9,0-1.5-0.3-2-0.9c-0.5-0.6-0.7-1.4-0.7-2.4c0-1.1,0.3-1.9,0.8-2.5c0.5-0.6,1.2-0.9,2.1-0.9
		c0.8,0,1.4,0.2,1.9,0.6c0.5,0.4,0.7,1,0.8,1.7H-358.5z"/>
	<path class="st1" d="M-352,248.3v-3.9c0-0.6-0.1-1-0.3-1.3c-0.2-0.2-0.5-0.4-1-0.4c-0.6,0-1,0.2-1.4,0.5c-0.3,0.3-0.5,0.8-0.5,1.3
		v3.7h-1.1v-8.6h1.1v3.2c0.2-0.3,0.5-0.6,0.8-0.8c0.3-0.2,0.7-0.3,1.2-0.3c0.5,0,0.9,0.1,1.2,0.2c0.3,0.1,0.6,0.4,0.8,0.6
		c0.1,0.2,0.2,0.3,0.2,0.5c0,0.2,0.1,0.5,0.1,1v0.3v3.8H-352z"/>
	<path class="st1" d="M-344.9,248.3v-3.9c0-0.6-0.1-1-0.3-1.3c-0.2-0.2-0.5-0.4-1-0.4c-0.6,0-1,0.2-1.4,0.5
		c-0.3,0.3-0.5,0.8-0.5,1.4v3.6h-1.1V242h1v0.9c0.2-0.4,0.5-0.6,0.9-0.8c0.3-0.2,0.7-0.3,1.2-0.3c0.5,0,0.9,0.1,1.2,0.2
		c0.3,0.1,0.6,0.4,0.8,0.6c0.1,0.2,0.2,0.3,0.2,0.5c0,0.2,0.1,0.5,0.1,1v0.3v3.8H-344.9z"/>
	<path class="st1" d="M-342.8,245.2c0-1.1,0.3-1.9,0.8-2.5c0.5-0.6,1.3-0.9,2.2-0.9c1,0,1.7,0.3,2.2,0.9c0.5,0.6,0.8,1.4,0.8,2.5
		s-0.3,1.9-0.8,2.5c-0.5,0.6-1.3,0.9-2.2,0.9c-1,0-1.7-0.3-2.2-0.9C-342.6,247-342.8,246.2-342.8,245.2z M-341.8,245.2
		c0,0.8,0.2,1.4,0.5,1.8c0.3,0.4,0.8,0.6,1.4,0.6c0.6,0,1.1-0.2,1.4-0.6c0.3-0.4,0.5-1,0.5-1.8c0-0.8-0.2-1.4-0.5-1.8
		c-0.3-0.4-0.8-0.6-1.4-0.6c-0.6,0-1.1,0.2-1.4,0.6C-341.6,243.8-341.8,244.4-341.8,245.2z"/>
	<path class="st1" d="M-335.5,248.3v-8.6h1.1v8.6H-335.5z"/>
	<path class="st1" d="M-333.1,245.2c0-1.1,0.3-1.9,0.8-2.5c0.5-0.6,1.3-0.9,2.2-0.9c1,0,1.7,0.3,2.2,0.9c0.5,0.6,0.8,1.4,0.8,2.5
		s-0.3,1.9-0.8,2.5c-0.5,0.6-1.3,0.9-2.2,0.9c-1,0-1.7-0.3-2.2-0.9C-332.9,247-333.1,246.2-333.1,245.2z M-332.1,245.2
		c0,0.8,0.2,1.4,0.5,1.8c0.3,0.4,0.8,0.6,1.4,0.6c0.6,0,1.1-0.2,1.4-0.6c0.3-0.4,0.5-1,0.5-1.8c0-0.8-0.2-1.4-0.5-1.8
		c-0.3-0.4-0.8-0.6-1.4-0.6c-0.6,0-1.1,0.2-1.4,0.6C-331.9,243.8-332.1,244.4-332.1,245.2z"/>
	<path class="st1" d="M-321.3,247.5c-0.2,0.3-0.5,0.6-0.9,0.7c-0.3,0.2-0.7,0.2-1.1,0.2c-0.8,0-1.5-0.3-2-0.9
		c-0.5-0.6-0.8-1.4-0.8-2.4c0-1,0.3-1.8,0.8-2.4c0.5-0.6,1.2-0.9,2.1-0.9c0.4,0,0.8,0.1,1.1,0.2c0.3,0.2,0.6,0.4,0.9,0.8V242h1v6.1
		c0,1-0.2,1.7-0.7,2.1c-0.5,0.4-1.2,0.6-2.2,0.6c-0.8,0-1.5-0.2-2-0.5c-0.5-0.3-0.7-0.8-0.7-1.3v0h1v0c0,0.3,0.1,0.6,0.4,0.7
		c0.3,0.2,0.7,0.2,1.2,0.2c0.7,0,1.1-0.1,1.4-0.4c0.3-0.3,0.4-0.7,0.4-1.3V247.5z M-323.2,242.8c-0.6,0-1.1,0.2-1.4,0.6
		c-0.3,0.4-0.5,1-0.5,1.8c0,0.8,0.2,1.3,0.5,1.8c0.3,0.4,0.8,0.6,1.4,0.6c0.6,0,1.1-0.2,1.4-0.6c0.3-0.4,0.5-1,0.5-1.8
		c0-0.8-0.2-1.4-0.5-1.8C-322.1,243-322.6,242.8-323.2,242.8z"/>
	<path class="st1" d="M-314.5,242h1.2l-2.6,7.2c-0.3,0.7-0.5,1.1-0.8,1.3c-0.3,0.2-0.6,0.3-1.1,0.3c-0.1,0-0.2,0-0.3,0
		c-0.1,0-0.2,0-0.3-0.1v-1c0.1,0,0.2,0.1,0.3,0.1c0.1,0,0.2,0,0.3,0c0.2,0,0.4,0,0.5-0.1c0.1-0.1,0.2-0.2,0.3-0.4l0.3-0.7l-2.4-6.6
		h1.2l1.7,5.1L-314.5,242z"/>
</g>
<g>
	<path class="st2" d="M-453,227.3c-2,0-3.9-0.3-5.7-0.8c-1.8-0.5-3.2-1.1-4.5-1.8l-1.6,1.6h-2l-0.3-12h2c0.5,1.1,1,2.3,1.7,3.6
		c0.7,1.3,1.5,2.4,2.4,3.4c1,1,2,1.9,3.2,2.6c1.2,0.7,2.6,1,4.1,1c2.1,0,3.8-0.5,4.9-1.6c1.1-1,1.7-2.3,1.7-3.9
		c0-1.3-0.5-2.4-1.4-3.3c-1-0.9-2.4-1.6-4.5-2.3c-1.3-0.4-2.5-0.8-3.6-1.2c-1.1-0.4-2.1-0.7-3.1-1.1c-2.2-0.9-3.9-2.2-5-3.8
		c-1.1-1.7-1.6-3.5-1.6-5.6c0-1.3,0.3-2.5,0.8-3.7c0.6-1.2,1.4-2.3,2.5-3.2c1-0.9,2.4-1.6,4-2.2c1.6-0.6,3.4-0.8,5.3-0.8
		c1.8,0,3.6,0.3,5.2,0.8c1.6,0.5,2.9,1,3.8,1.5l1.4-1.4h2l0.2,11.3h-2c-0.5-1.2-1-2.5-1.7-3.7c-0.6-1.3-1.3-2.3-2-3.2
		c-0.8-0.9-1.6-1.6-2.6-2.2c-1-0.5-2.2-0.8-3.5-0.8c-1.7,0-3.1,0.5-4.1,1.4c-1.1,1-1.6,2.1-1.6,3.5c0,1.3,0.5,2.4,1.4,3.3
		c0.9,0.8,2.4,1.6,4.3,2.2c1.2,0.4,2.3,0.8,3.5,1.2c1.2,0.4,2.3,0.8,3.2,1.1c2.3,0.9,4,2.1,5.2,3.6c1.2,1.5,1.8,3.5,1.8,5.7
		c0,1.4-0.3,2.8-1,4.2c-0.7,1.3-1.6,2.5-2.7,3.4c-1.3,1-2.7,1.7-4.3,2.3C-448.9,227-450.8,227.3-453,227.3z"/>
	<path class="st2" d="M-426,207.8c0,1.1-0.4,2.1-1.3,2.9c-0.8,0.8-1.8,1.2-3,1.2c-1.2,0-2.2-0.4-3-1.2c-0.8-0.8-1.3-1.8-1.3-3
		c0-1.1,0.4-2.1,1.3-3c0.8-0.8,1.8-1.3,3-1.3c1.1,0,2.1,0.4,3,1.3C-426.4,205.7-426,206.7-426,207.8z M-426,221.4
		c0,1.1-0.4,2.1-1.3,2.9c-0.8,0.8-1.8,1.2-3,1.2c-1.2,0-2.2-0.4-3-1.2c-0.8-0.8-1.3-1.8-1.3-3c0-1.1,0.4-2.1,1.3-3
		c0.8-0.8,1.8-1.3,3-1.3c1.1,0,2.1,0.4,3,1.3C-426.4,219.3-426,220.3-426,221.4z"/>
	<path class="st2" d="M-395.5,205.8h-5.2c0.6,0.7,1.1,1.4,1.4,2.2c0.3,0.8,0.5,1.6,0.5,2.4c0,1.1-0.3,2.1-0.9,3
		c-0.6,0.9-1.3,1.7-2.3,2.3c-1,0.6-2.1,1.1-3.4,1.4c-1.3,0.3-2.7,0.5-4.2,0.5h-3.8c-0.2,0.1-0.4,0.4-0.6,0.7
		c-0.2,0.3-0.3,0.6-0.3,0.9c0,0.7,0.3,1.2,0.8,1.4c0.5,0.3,1.5,0.4,3,0.4c1.4,0,2.9,0.1,4.3,0.2c1.5,0.1,2.5,0.1,3.1,0.2
		c0.9,0,1.8,0.2,2.7,0.6c0.9,0.3,1.7,0.7,2.3,1.3c0.7,0.5,1.3,1.2,1.8,2.1c0.5,0.9,0.7,1.8,0.7,2.9c0,1.2-0.3,2.3-0.9,3.4
		c-0.6,1-1.4,2-2.6,2.7c-1.2,0.8-2.7,1.4-4.4,1.9c-1.7,0.4-3.9,0.7-6.4,0.7c-4.1,0-7.2-0.5-9.4-1.5c-2.1-1-3.2-2.5-3.2-4.5
		c0-1.2,0.6-2.3,1.7-3c1.2-0.8,3-1.2,5.4-1.3v-0.3c-1.4-0.5-2.6-1.1-3.4-1.9c-0.8-0.8-1.2-1.7-1.2-2.8c0-0.7,0.2-1.2,0.5-1.7
		c0.3-0.5,0.7-0.9,1.2-1.2c0.4-0.3,1-0.6,1.6-0.8c0.6-0.2,1.1-0.4,1.6-0.5V217c-2.1-0.8-3.7-1.7-4.7-2.9c-1-1.1-1.5-2.5-1.5-4.1
		c0-2.3,1.1-4.1,3.2-5.5c2.1-1.4,4.8-2.1,8.1-2.1c1.1,0,2.1,0.1,3.1,0.3c1,0.2,1.7,0.3,2.3,0.5h9.1V205.8z M-402.5,229.9
		c0-0.5-0.1-1.1-0.4-1.6c-0.3-0.5-1-0.9-2-1.3c-0.6-0.1-1.5-0.2-2.8-0.2c-1.3,0-3.1,0-5.3,0c-0.5,0.5-1,1-1.4,1.7
		c-0.4,0.6-0.5,1.4-0.5,2.3c0,0.4,0.1,0.8,0.3,1.3c0.2,0.5,0.6,0.9,1,1.3c0.5,0.5,1.2,0.8,1.8,1.1c0.7,0.3,1.7,0.4,3,0.4
		c2,0,3.5-0.4,4.6-1.2C-403.1,232.9-402.5,231.7-402.5,229.9z M-406.5,210.2c0-1.8-0.3-3.3-0.9-4.3c-0.6-1.1-1.5-1.6-2.7-1.6
		c-0.6,0-1.1,0.1-1.6,0.4c-0.5,0.3-0.8,0.7-1.1,1.3c-0.3,0.5-0.4,1.2-0.5,1.9c-0.1,0.7-0.1,1.4-0.1,2.2c0,1.7,0.3,3.1,0.9,4.2
		c0.6,1.1,1.4,1.6,2.5,1.6c1.1,0,2-0.5,2.6-1.5C-406.8,213.4-406.5,212-406.5,210.2z"/>
	<path class="st2" d="M-361.2,226.4h-14.1v-1.7c0.3,0,0.7-0.1,1.1-0.1c0.4,0,0.7-0.1,1-0.2c0.3-0.2,0.6-0.4,0.7-0.8
		c0.1-0.3,0.2-0.8,0.2-1.5v-11c0-1.6-0.3-2.8-0.9-3.6c-0.6-0.8-1.5-1.2-2.6-1.2c-0.6,0-1.2,0.1-1.8,0.3c-0.5,0.2-1.1,0.5-1.6,0.8
		c-0.5,0.3-0.8,0.6-1.1,1c-0.3,0.3-0.5,0.6-0.7,0.9v12.6c0,0.5,0.1,1,0.2,1.4c0.2,0.4,0.4,0.6,0.8,0.8c0.3,0.1,0.6,0.3,0.9,0.4
		c0.4,0.1,0.7,0.2,1.1,0.2v1.7h-14.2v-1.7c0.4,0,0.8-0.1,1.2-0.1c0.4-0.1,0.7-0.1,1-0.2c0.5-0.2,0.8-0.4,1-0.8
		c0.2-0.4,0.3-0.8,0.3-1.4v-13.6c0-0.5-0.1-1-0.4-1.4c-0.3-0.5-0.6-0.9-1-1.1c-0.3-0.2-0.6-0.3-1.1-0.5c-0.4-0.1-0.9-0.2-1.4-0.3
		v-1.7l11.2-0.6l0.4,0.4v3.4h0.1c0.4-0.4,1-0.9,1.6-1.4c0.6-0.5,1.2-1,1.7-1.3c0.6-0.4,1.3-0.7,2.3-1c0.9-0.3,1.9-0.4,3-0.4
		c2.5,0,4.5,0.7,5.7,2.2c1.3,1.4,1.9,3.4,1.9,5.8v11.5c0,0.6,0.1,1,0.3,1.4c0.2,0.3,0.5,0.6,1,0.8c0.3,0.1,0.6,0.2,0.9,0.3
		c0.4,0.1,0.8,0.2,1.3,0.2V226.4z"/>
	<path class="st2" d="M-350,207.8c0,1.1-0.4,2.1-1.3,2.9c-0.8,0.8-1.8,1.2-3,1.2c-1.2,0-2.2-0.4-3-1.2c-0.8-0.8-1.3-1.8-1.3-3
		c0-1.1,0.4-2.1,1.3-3c0.8-0.8,1.8-1.3,3-1.3c1.1,0,2.1,0.4,3,1.3C-350.4,205.7-350,206.7-350,207.8z M-350,221.4
		c0,1.1-0.4,2.1-1.3,2.9c-0.8,0.8-1.8,1.2-3,1.2c-1.2,0-2.2-0.4-3-1.2c-0.8-0.8-1.3-1.8-1.3-3c0-1.1,0.4-2.1,1.3-3
		c0.8-0.8,1.8-1.3,3-1.3c1.1,0,2.1,0.4,3,1.3C-350.4,219.3-350,220.3-350,221.4z"/>
	<path class="st2" d="M-327.3,225.3c-1,0.4-2.1,0.8-3.2,1.2c-1.1,0.4-2.5,0.5-4.2,0.5c-2.4,0-4.2-0.6-5.4-1.8
		c-1.2-1.2-1.8-2.9-1.8-5.1v-14.4h-4.2v-2.6h4.3v-7.1h7.6v7.1h6.6v2.6h-6.5v12.8c0,1.8,0.3,3.1,0.8,3.9c0.5,0.8,1.4,1.1,2.7,1.1
		c0.4,0,1,0,1.8-0.1c0.8-0.1,1.3-0.1,1.6-0.2V225.3z"/>
	<path class="st2" d="M-300.5,220.8c-0.5,0.9-1.2,1.7-2,2.5c-0.8,0.8-1.7,1.5-2.6,2c-1,0.6-2.1,1-3.2,1.3c-1.1,0.3-2.3,0.5-3.7,0.5
		c-2.3,0-4.3-0.3-6-1c-1.7-0.7-3.1-1.5-4.2-2.6c-1.1-1.1-1.9-2.4-2.4-3.9c-0.5-1.5-0.8-3.1-0.8-4.9c0-1.6,0.3-3.1,0.9-4.6
		c0.6-1.5,1.4-2.8,2.5-3.9c1.1-1.1,2.4-2,4-2.7c1.6-0.7,3.4-1,5.4-1c2.2,0,4,0.3,5.4,0.8c1.4,0.5,2.6,1.3,3.5,2.2
		c0.9,0.9,1.5,1.9,1.9,3.2c0.4,1.2,0.6,2.5,0.6,3.8v1.5H-317c0,3.2,0.6,5.6,1.9,7.3c1.2,1.7,3.2,2.5,5.9,2.5c1.5,0,2.8-0.4,4-1.2
		c1.2-0.8,2.2-1.8,3-3.1L-300.5,220.8z M-309.4,211.9c0-0.9,0-1.9-0.1-2.9c-0.1-1-0.3-1.8-0.5-2.4c-0.3-0.7-0.6-1.3-1.1-1.7
		c-0.5-0.4-1-0.6-1.7-0.6c-1.2,0-2.2,0.6-2.9,1.8c-0.7,1.2-1.1,3.1-1.2,5.8L-309.4,211.9z"/>
</g>
<g>
	<path class="st0" d="M35.7,55.4c0.7-0.8,1.1-1.9,1.1-2.9v-9L0,33.6v12.3L35.7,55.4z"/>
	<path class="st1" d="M34.4,36.6c2.7-0.7,4.9-3.5,4.9-6.2V18.1L4.9,27.3C2.2,28.1,0,30.9,0,33.6v12.3L34.4,36.6z"/>
	<polygon class="st2" points="22.9,39.7 0,33.6 0,45.8 	"/>
	<path class="st3" d="M33.2,57.1c2-0.5,3.6-2.6,3.6-4.6v-9l-3.6,1l-22.2,6c-2,0.5-3.6,2.6-3.6,4.6v9L33.2,57.1z"/>
	<path class="st4" d="M13.9,49.6l21.8,5.8c0.3-0.3,0.5-0.7,0.7-1c0,0,0,0,0,0c0.1-0.1,0.1-0.2,0.1-0.3c0,0,0,0,0,0
		c0-0.1,0.1-0.2,0.1-0.3c0,0,0,0,0-0.1c0-0.1,0.1-0.2,0.1-0.3c0,0,0-0.1,0-0.1c0-0.1,0-0.2,0-0.3c0,0,0-0.1,0-0.1c0-0.1,0-0.3,0-0.4
		v-9l-3.6,1L13.9,49.6z"/>
	<path class="st5" d="M3.6,8.6c-0.7,0.8-1.1,1.9-1.1,2.9v9l36.8,9.9V18.1L3.6,8.6z"/>
	<polygon class="st2" points="16.4,24.3 39.3,30.4 39.3,18.1 	"/>
	<path class="st6" d="M6.1,6.9c-2,0.5-3.6,2.6-3.6,4.6v9l3.6-1l22.2-6c2-0.5,3.6-2.6,3.6-4.6V0L6.1,6.9z"/>
	<path class="st7" d="M25.3,14.4L3.6,8.6c-0.3,0.3-0.5,0.7-0.7,1c0,0,0,0,0,0C2.9,9.7,2.8,9.8,2.8,9.9c0,0,0,0,0,0
		c0,0.1-0.1,0.2-0.1,0.3c0,0,0,0,0,0.1c0,0.1-0.1,0.2-0.1,0.3c0,0,0,0.1,0,0.1c0,0.1,0,0.2,0,0.3c0,0,0,0.1,0,0.1c0,0.1,0,0.3,0,0.4
		v9l3.6-1L25.3,14.4z"/>
</g>
<g>
	<path class="st1" d="M67.1,56h1.1c0,0.6,0.2,1.1,0.6,1.5c0.4,0.4,0.9,0.6,1.6,0.6c0.7,0,1.2-0.1,1.6-0.4c0.4-0.3,0.6-0.7,0.6-1.1
		c0-0.7-0.7-1.2-2.2-1.5c-0.1,0-0.2,0-0.2,0c-1.2-0.3-1.9-0.6-2.3-0.9c-0.4-0.3-0.6-0.8-0.6-1.5c0-0.8,0.3-1.4,0.8-1.9
		s1.3-0.7,2.2-0.7c1,0,1.7,0.2,2.3,0.7c0.5,0.5,0.8,1.2,0.8,2l-1.1,0c0-0.6-0.2-1-0.6-1.3c-0.4-0.3-0.8-0.5-1.5-0.5
		c-0.6,0-1,0.1-1.4,0.4c-0.3,0.3-0.5,0.6-0.5,1c0,0.7,0.7,1.2,2.1,1.5c0.2,0.1,0.4,0.1,0.5,0.1l0.1,0c0.9,0.2,1.5,0.5,1.9,0.7
		c0.2,0.2,0.4,0.4,0.5,0.7c0.1,0.3,0.2,0.6,0.2,0.9c0,0.8-0.3,1.5-0.9,2c-0.6,0.5-1.4,0.7-2.4,0.7c-1,0-1.9-0.3-2.4-0.8
		C67.4,57.7,67.1,57,67.1,56z"/>
	<path class="st1" d="M82.5,58.8v-3.9c0-0.6-0.1-1.1-0.3-1.3c-0.2-0.2-0.5-0.3-0.9-0.3c-0.5,0-0.9,0.2-1.2,0.5
		c-0.3,0.3-0.4,0.8-0.4,1.3v3.7h-1.1v-3.9c0-0.6-0.1-1.1-0.3-1.3c-0.2-0.2-0.5-0.3-0.9-0.3c-0.5,0-0.9,0.2-1.2,0.5
		c-0.3,0.3-0.4,0.8-0.4,1.3v3.7h-1.1v-6.3h1v0.9c0.2-0.4,0.5-0.6,0.8-0.8c0.3-0.2,0.7-0.3,1.1-0.3c0.4,0,0.7,0.1,1,0.2
		c0.3,0.2,0.5,0.4,0.7,0.7c0.3-0.3,0.6-0.6,0.9-0.7c0.3-0.2,0.7-0.2,1.1-0.2c0.4,0,0.8,0.1,1.1,0.2c0.3,0.1,0.5,0.4,0.7,0.6
		c0.1,0.2,0.2,0.4,0.2,0.6c0,0.2,0.1,0.6,0.1,1.1V55v3.8H82.5z"/>
	<path class="st1" d="M88.8,58c-0.3,0.3-0.7,0.6-1,0.8C87.4,58.9,87,59,86.6,59c-0.6,0-1.1-0.2-1.5-0.5c-0.4-0.3-0.5-0.8-0.5-1.4
		c0-0.6,0.2-1,0.5-1.3c0.4-0.3,0.9-0.5,1.6-0.6c0.2,0,0.4,0,0.7-0.1c0.5-0.1,0.9-0.1,1-0.2c0.1,0,0.2-0.1,0.2-0.2
		c0-0.1,0.1-0.2,0.1-0.5c0-0.3-0.1-0.6-0.4-0.7c-0.2-0.2-0.6-0.2-1.1-0.2c-0.5,0-0.9,0.1-1.1,0.3c-0.2,0.2-0.4,0.5-0.4,0.9h-1v0
		c0-0.6,0.2-1.1,0.7-1.5c0.4-0.4,1.1-0.6,1.8-0.6c0.8,0,1.5,0.2,1.9,0.5c0.4,0.3,0.6,0.8,0.6,1.5v3.1c0,0.3,0,0.4,0.1,0.5
		c0.1,0.1,0.2,0.1,0.3,0.1c0,0,0.1,0,0.1,0c0,0,0.1,0,0.2,0v0.8c-0.1,0-0.2,0.1-0.3,0.1c-0.1,0-0.2,0-0.3,0c-0.4,0-0.6-0.1-0.8-0.2
		C88.9,58.5,88.8,58.3,88.8,58L88.8,58z M88.7,55.6c-0.3,0.2-0.8,0.3-1.4,0.4C87,56,86.8,56,86.7,56c-0.4,0.1-0.7,0.2-0.8,0.3
		c-0.2,0.2-0.3,0.4-0.3,0.7s0.1,0.6,0.3,0.7c0.2,0.2,0.5,0.3,0.8,0.3c0.6,0,1-0.1,1.4-0.4c0.4-0.3,0.5-0.7,0.5-1.1V55.6z"/>
	<path class="st1" d="M91.7,58.8v-6.3h1v1.1c0.2-0.4,0.4-0.7,0.7-0.9c0.3-0.2,0.6-0.3,1.1-0.3c0.1,0,0.1,0,0.2,0c0,0,0.1,0,0.1,0
		v1.1c0,0-0.1,0-0.1,0c0,0-0.1,0-0.2,0c-0.6,0-1,0.2-1.3,0.5c-0.3,0.3-0.4,0.8-0.4,1.3v3.5H91.7z"/>
	<path class="st1" d="M97.4,57.2c0,0.3,0,0.5,0.1,0.6c0.1,0.1,0.2,0.1,0.4,0.1c0.1,0,0.1,0,0.2,0c0.1,0,0.2,0,0.3,0v0.9
		c-0.2,0-0.3,0.1-0.5,0.1c-0.1,0-0.3,0-0.4,0c-0.5,0-0.8-0.1-1-0.3c-0.2-0.2-0.3-0.5-0.3-1v-4.2h-0.9v-0.8h0.9v-1.8h1.1v1.8h1.1v0.8
		h-1.1V57.2z"/>
	<path class="st1" d="M103.4,58.8v-8.6h1.2v8.6H103.4z"/>
	<path class="st1" d="M110.8,58c-0.2,0.3-0.5,0.6-0.9,0.7c-0.3,0.2-0.7,0.2-1.1,0.2c-0.8,0-1.5-0.3-2-0.9c-0.5-0.6-0.8-1.4-0.8-2.4
		c0-1,0.3-1.8,0.8-2.4c0.5-0.6,1.2-0.9,2.1-0.9c0.4,0,0.8,0.1,1.1,0.2c0.3,0.2,0.6,0.4,0.9,0.8v-0.8h1v6.1c0,1-0.2,1.7-0.7,2.1
		c-0.5,0.4-1.2,0.6-2.2,0.6c-0.8,0-1.5-0.2-2-0.5c-0.5-0.3-0.7-0.8-0.7-1.3v0h1v0c0,0.3,0.1,0.6,0.4,0.7c0.3,0.2,0.7,0.2,1.2,0.2
		c0.7,0,1.1-0.1,1.4-0.4c0.3-0.3,0.4-0.7,0.4-1.3V58z M109,53.3c-0.6,0-1.1,0.2-1.4,0.6c-0.3,0.4-0.5,1-0.5,1.8
		c0,0.8,0.2,1.3,0.5,1.8c0.3,0.4,0.8,0.6,1.4,0.6c0.6,0,1.1-0.2,1.4-0.6c0.3-0.4,0.5-1,0.5-1.8c0-0.8-0.2-1.4-0.5-1.8
		C110.1,53.5,109.6,53.3,109,53.3z"/>
	<path class="st1" d="M117.9,58.8v-3.9c0-0.6-0.1-1-0.3-1.3c-0.2-0.2-0.5-0.4-1-0.4c-0.6,0-1,0.2-1.4,0.5c-0.3,0.3-0.5,0.8-0.5,1.4
		v3.6h-1.1v-6.3h1v0.9c0.2-0.4,0.5-0.6,0.9-0.8c0.3-0.2,0.7-0.3,1.2-0.3c0.5,0,0.9,0.1,1.2,0.2c0.3,0.1,0.6,0.4,0.8,0.6
		c0.1,0.2,0.2,0.3,0.2,0.5c0,0.2,0.1,0.5,0.1,1V55v3.8H117.9z"/>
	<path class="st1" d="M120.8,51.4v-1.2h1.1v1.2H120.8z M120.8,58.8v-6.3h1.1v6.3H120.8z"/>
	<path class="st1" d="M124.9,57.2c0,0.3,0,0.5,0.1,0.6c0.1,0.1,0.2,0.1,0.4,0.1c0.1,0,0.1,0,0.2,0c0.1,0,0.2,0,0.3,0v0.9
		c-0.2,0-0.3,0.1-0.5,0.1c-0.1,0-0.3,0-0.4,0c-0.5,0-0.8-0.1-1-0.3c-0.2-0.2-0.3-0.5-0.3-1v-4.2h-0.9v-0.8h0.9v-1.8h1.1v1.8h1.1v0.8
		h-1.1V57.2z"/>
	<path class="st1" d="M127.3,51.4v-1.2h1.1v1.2H127.3z M127.3,58.8v-6.3h1.1v6.3H127.3z"/>
	<path class="st1" d="M129.4,55.7c0-1.1,0.3-1.9,0.8-2.5c0.5-0.6,1.3-0.9,2.2-0.9c1,0,1.7,0.3,2.2,0.9c0.5,0.6,0.8,1.4,0.8,2.5
		c0,1.1-0.3,1.9-0.8,2.5c-0.5,0.6-1.3,0.9-2.2,0.9c-1,0-1.7-0.3-2.2-0.9C129.7,57.5,129.4,56.7,129.4,55.7z M130.5,55.7
		c0,0.8,0.2,1.4,0.5,1.8s0.8,0.6,1.4,0.6c0.6,0,1.1-0.2,1.4-0.6c0.3-0.4,0.5-1,0.5-1.8c0-0.8-0.2-1.4-0.5-1.8
		c-0.3-0.4-0.8-0.6-1.4-0.6c-0.6,0-1.1,0.2-1.4,0.6C130.6,54.3,130.5,54.9,130.5,55.7z"/>
	<path class="st1" d="M140.9,58.8v-3.9c0-0.6-0.1-1-0.3-1.3c-0.2-0.2-0.5-0.4-1-0.4c-0.6,0-1,0.2-1.4,0.5c-0.3,0.3-0.5,0.8-0.5,1.4
		v3.6h-1.1v-6.3h1v0.9c0.2-0.4,0.5-0.6,0.9-0.8c0.3-0.2,0.7-0.3,1.2-0.3c0.5,0,0.9,0.1,1.2,0.2c0.3,0.1,0.6,0.4,0.8,0.6
		c0.1,0.2,0.2,0.3,0.2,0.5c0,0.2,0.1,0.5,0.1,1V55v3.8H140.9z"/>
	<path class="st1" d="M149.1,58.8v-7.6h-2.7v-1h6.6v1h-2.7v7.6H149.1z"/>
	<path class="st1" d="M156.7,56.8h1c-0.1,0.7-0.4,1.2-0.9,1.6c-0.5,0.4-1.1,0.6-1.8,0.6c-0.9,0-1.6-0.3-2.1-0.9
		c-0.5-0.6-0.8-1.4-0.8-2.4c0-1.1,0.3-1.9,0.8-2.5c0.5-0.6,1.2-0.9,2.1-0.9c0.9,0,1.6,0.3,2.1,0.8c0.5,0.6,0.7,1.3,0.7,2.3
		c0,0.1,0,0.2,0,0.3c0,0.1,0,0.1,0,0.2h-4.5c0,0.7,0.2,1.2,0.5,1.5c0.3,0.4,0.8,0.5,1.3,0.5c0.4,0,0.8-0.1,1.1-0.3
		C156.4,57.5,156.6,57.2,156.7,56.8z M153.3,55.1h3.4c0-0.6-0.2-1-0.4-1.4c-0.3-0.3-0.7-0.5-1.2-0.5c-0.5,0-0.9,0.2-1.2,0.5
		C153.5,54,153.3,54.5,153.3,55.1z"/>
	<path class="st1" d="M163.2,54.6c0-0.4-0.2-0.8-0.5-1c-0.3-0.2-0.7-0.3-1.1-0.3c-0.6,0-1,0.2-1.3,0.6c-0.3,0.4-0.5,1-0.5,1.8
		c0,0.8,0.1,1.4,0.4,1.8c0.3,0.4,0.7,0.6,1.3,0.6c0.5,0,0.9-0.1,1.2-0.4c0.3-0.3,0.5-0.6,0.5-1.1h1c-0.1,0.8-0.3,1.4-0.8,1.8
		c-0.5,0.4-1.1,0.6-2,0.6c-0.9,0-1.5-0.3-2-0.9c-0.5-0.6-0.7-1.4-0.7-2.4c0-1.1,0.3-1.9,0.8-2.5c0.5-0.6,1.2-0.9,2.1-0.9
		c0.8,0,1.4,0.2,1.9,0.6c0.5,0.4,0.7,1,0.8,1.7H163.2z"/>
	<path class="st1" d="M169.7,58.8v-3.9c0-0.6-0.1-1-0.3-1.3c-0.2-0.2-0.5-0.4-1-0.4c-0.6,0-1,0.2-1.4,0.5c-0.3,0.3-0.5,0.8-0.5,1.3
		v3.7h-1.1v-8.6h1.1v3.2c0.2-0.3,0.5-0.6,0.8-0.8c0.3-0.2,0.7-0.3,1.2-0.3c0.5,0,0.9,0.1,1.2,0.2c0.3,0.1,0.6,0.4,0.8,0.6
		c0.1,0.2,0.2,0.3,0.2,0.5c0,0.2,0.1,0.5,0.1,1V55v3.8H169.7z"/>
	<path class="st1" d="M176.8,58.8v-3.9c0-0.6-0.1-1-0.3-1.3c-0.2-0.2-0.5-0.4-1-0.4c-0.6,0-1,0.2-1.4,0.5c-0.3,0.3-0.5,0.8-0.5,1.4
		v3.6h-1.1v-6.3h1v0.9c0.2-0.4,0.5-0.6,0.9-0.8c0.3-0.2,0.7-0.3,1.2-0.3c0.5,0,0.9,0.1,1.2,0.2c0.3,0.1,0.6,0.4,0.8,0.6
		c0.1,0.2,0.2,0.3,0.2,0.5c0,0.2,0.1,0.5,0.1,1V55v3.8H176.8z"/>
	<path class="st1" d="M178.9,55.7c0-1.1,0.3-1.9,0.8-2.5c0.5-0.6,1.3-0.9,2.2-0.9c1,0,1.7,0.3,2.2,0.9c0.5,0.6,0.8,1.4,0.8,2.5
		c0,1.1-0.3,1.9-0.8,2.5c-0.5,0.6-1.3,0.9-2.2,0.9c-1,0-1.7-0.3-2.2-0.9C179.2,57.5,178.9,56.7,178.9,55.7z M180,55.7
		c0,0.8,0.2,1.4,0.5,1.8s0.8,0.6,1.4,0.6c0.6,0,1.1-0.2,1.4-0.6c0.3-0.4,0.5-1,0.5-1.8c0-0.8-0.2-1.4-0.5-1.8
		c-0.3-0.4-0.8-0.6-1.4-0.6c-0.6,0-1.1,0.2-1.4,0.6C180.1,54.3,180,54.9,180,55.7z"/>
	<path class="st1" d="M186.2,58.8v-8.6h1.1v8.6H186.2z"/>
	<path class="st1" d="M188.6,55.7c0-1.1,0.3-1.9,0.8-2.5c0.5-0.6,1.3-0.9,2.2-0.9c1,0,1.7,0.3,2.2,0.9c0.5,0.6,0.8,1.4,0.8,2.5
		c0,1.1-0.3,1.9-0.8,2.5c-0.5,0.6-1.3,0.9-2.2,0.9c-1,0-1.7-0.3-2.2-0.9C188.8,57.5,188.6,56.7,188.6,55.7z M189.7,55.7
		c0,0.8,0.2,1.4,0.5,1.8s0.8,0.6,1.4,0.6c0.6,0,1.1-0.2,1.4-0.6c0.3-0.4,0.5-1,0.5-1.8c0-0.8-0.2-1.4-0.5-1.8
		c-0.3-0.4-0.8-0.6-1.4-0.6c-0.6,0-1.1,0.2-1.4,0.6C189.8,54.3,189.7,54.9,189.7,55.7z"/>
	<path class="st1" d="M200.4,58c-0.2,0.3-0.5,0.6-0.9,0.7c-0.3,0.2-0.7,0.2-1.1,0.2c-0.8,0-1.5-0.3-2-0.9c-0.5-0.6-0.8-1.4-0.8-2.4
		c0-1,0.3-1.8,0.8-2.4c0.5-0.6,1.2-0.9,2.1-0.9c0.4,0,0.8,0.1,1.1,0.2c0.3,0.2,0.6,0.4,0.9,0.8v-0.8h1v6.1c0,1-0.2,1.7-0.7,2.1
		c-0.5,0.4-1.2,0.6-2.2,0.6c-0.8,0-1.5-0.2-2-0.5c-0.5-0.3-0.7-0.8-0.7-1.3v0h1v0c0,0.3,0.1,0.6,0.4,0.7c0.3,0.2,0.7,0.2,1.2,0.2
		c0.7,0,1.1-0.1,1.4-0.4c0.3-0.3,0.4-0.7,0.4-1.3V58z M198.5,53.3c-0.6,0-1.1,0.2-1.4,0.6c-0.3,0.4-0.5,1-0.5,1.8
		c0,0.8,0.2,1.3,0.5,1.8c0.3,0.4,0.8,0.6,1.4,0.6c0.6,0,1.1-0.2,1.4-0.6c0.3-0.4,0.5-1,0.5-1.8c0-0.8-0.2-1.4-0.5-1.8
		C199.6,53.5,199.2,53.3,198.5,53.3z"/>
	<path class="st1" d="M207.2,52.5h1.2l-2.6,7.2c-0.3,0.7-0.5,1.1-0.8,1.3c-0.3,0.2-0.6,0.3-1.1,0.3c-0.1,0-0.2,0-0.3,0
		c-0.1,0-0.2,0-0.3-0.1v-1c0.1,0,0.2,0.1,0.3,0.1c0.1,0,0.2,0,0.3,0c0.2,0,0.4,0,0.5-0.1c0.1-0.1,0.2-0.2,0.3-0.4l0.3-0.7l-2.4-6.6
		h1.2l1.7,5.1L207.2,52.5z"/>
</g>
<g>
	<path class="st2" d="M68.7,37.8c-2,0-3.9-0.3-5.7-0.8c-1.8-0.5-3.2-1.1-4.5-1.8L57,36.9h-2l-0.3-12h2c0.5,1.1,1,2.3,1.7,3.6
		c0.7,1.3,1.5,2.4,2.4,3.4c1,1,2,1.9,3.2,2.6c1.2,0.7,2.6,1,4.1,1c2.1,0,3.8-0.5,4.9-1.6c1.1-1,1.7-2.3,1.7-3.9
		c0-1.3-0.5-2.4-1.4-3.3c-1-0.9-2.4-1.6-4.5-2.3c-1.3-0.4-2.5-0.8-3.6-1.2c-1.1-0.4-2.1-0.7-3.1-1.1c-2.2-0.9-3.9-2.2-5-3.8
		c-1.1-1.7-1.6-3.5-1.6-5.6c0-1.3,0.3-2.5,0.8-3.7s1.4-2.3,2.5-3.2c1-0.9,2.4-1.6,4-2.2c1.6-0.6,3.4-0.8,5.2-0.8
		c1.8,0,3.6,0.3,5.2,0.8C74.9,4,76.1,4.5,77,5l1.4-1.4h2L80.7,15h-2c-0.5-1.2-1-2.5-1.7-3.7c-0.6-1.3-1.3-2.3-2-3.2
		c-0.8-0.9-1.6-1.6-2.6-2.2c-1-0.5-2.2-0.8-3.5-0.8c-1.7,0-3.1,0.5-4.1,1.4c-1.1,1-1.6,2.1-1.6,3.5c0,1.3,0.5,2.4,1.4,3.3
		c0.9,0.8,2.4,1.6,4.3,2.2c1.2,0.4,2.3,0.8,3.5,1.2c1.2,0.4,2.3,0.8,3.2,1.1c2.3,0.9,4,2.1,5.2,3.6c1.2,1.5,1.8,3.5,1.8,5.7
		c0,1.4-0.3,2.8-1,4.2c-0.7,1.3-1.6,2.5-2.7,3.4c-1.3,1-2.7,1.7-4.3,2.3C72.8,37.5,70.9,37.8,68.7,37.8z"/>
	<path class="st2" d="M95.7,18.3c0,1.1-0.4,2.1-1.3,2.9c-0.8,0.8-1.8,1.2-3,1.2c-1.2,0-2.2-0.4-3-1.2c-0.8-0.8-1.3-1.8-1.3-3
		c0-1.1,0.4-2.1,1.3-3c0.8-0.8,1.8-1.3,3-1.3c1.1,0,2.1,0.4,3,1.3C95.3,16.2,95.7,17.2,95.7,18.3z M95.7,31.9c0,1.1-0.4,2.1-1.3,2.9
		c-0.8,0.8-1.8,1.2-3,1.2c-1.2,0-2.2-0.4-3-1.2c-0.8-0.8-1.3-1.8-1.3-3c0-1.1,0.4-2.1,1.3-3c0.8-0.8,1.8-1.3,3-1.3
		c1.1,0,2.1,0.4,3,1.3C95.3,29.8,95.7,30.8,95.7,31.9z"/>
	<path class="st2" d="M126.3,16.2h-5.2c0.6,0.7,1.1,1.4,1.4,2.2c0.3,0.8,0.5,1.6,0.5,2.4c0,1.1-0.3,2.1-0.9,3
		c-0.6,0.9-1.3,1.7-2.3,2.3c-1,0.6-2.1,1.1-3.4,1.4c-1.3,0.3-2.7,0.5-4.2,0.5h-3.8c-0.2,0.1-0.4,0.4-0.6,0.7
		c-0.2,0.3-0.3,0.6-0.3,0.9c0,0.7,0.3,1.2,0.8,1.4c0.5,0.3,1.5,0.4,3,0.4c1.4,0,2.9,0.1,4.3,0.2c1.5,0.1,2.5,0.1,3.1,0.2
		c0.9,0,1.8,0.2,2.7,0.6c0.9,0.3,1.7,0.7,2.3,1.3c0.7,0.5,1.3,1.2,1.8,2.1c0.5,0.9,0.7,1.8,0.7,2.9c0,1.2-0.3,2.3-0.9,3.4
		c-0.6,1-1.4,2-2.6,2.7c-1.2,0.8-2.7,1.4-4.4,1.9c-1.7,0.4-3.9,0.7-6.4,0.7c-4.1,0-7.2-0.5-9.4-1.5c-2.1-1-3.2-2.5-3.2-4.5
		c0-1.2,0.6-2.3,1.7-3c1.2-0.8,3-1.2,5.4-1.3v-0.3c-1.4-0.5-2.6-1.1-3.4-1.9c-0.8-0.8-1.2-1.7-1.2-2.8c0-0.7,0.2-1.2,0.5-1.7
		c0.3-0.5,0.7-0.9,1.2-1.2c0.4-0.3,1-0.6,1.6-0.8c0.6-0.2,1.1-0.4,1.6-0.5v-0.3c-2.1-0.8-3.7-1.7-4.7-2.9s-1.5-2.5-1.5-4.1
		c0-2.3,1.1-4.1,3.2-5.5s4.8-2.1,8.1-2.1c1.1,0,2.1,0.1,3.1,0.3c1,0.2,1.7,0.3,2.3,0.5h9.1V16.2z M119.2,40.4c0-0.5-0.1-1.1-0.4-1.6
		c-0.3-0.5-1-0.9-2-1.3c-0.6-0.1-1.5-0.2-2.8-0.2c-1.3,0-3.1,0-5.3,0c-0.5,0.5-1,1-1.4,1.7c-0.4,0.6-0.5,1.4-0.5,2.3
		c0,0.4,0.1,0.8,0.3,1.3c0.2,0.5,0.6,0.9,1,1.3c0.5,0.5,1.2,0.8,1.8,1.1c0.7,0.3,1.7,0.4,3,0.4c2,0,3.5-0.4,4.6-1.2
		C118.6,43.4,119.2,42.1,119.2,40.4z M115.3,20.7c0-1.8-0.3-3.3-0.9-4.3c-0.6-1.1-1.5-1.6-2.7-1.6c-0.6,0-1.1,0.1-1.6,0.4
		c-0.5,0.3-0.8,0.7-1.1,1.3c-0.3,0.5-0.4,1.2-0.5,1.9c-0.1,0.7-0.1,1.4-0.1,2.2c0,1.7,0.3,3.1,0.9,4.2c0.6,1.1,1.4,1.6,2.5,1.6
		c1.1,0,2-0.5,2.6-1.5C115,23.9,115.3,22.5,115.3,20.7z"/>
	<path class="st2" d="M160.5,36.9h-14.1v-1.7c0.3,0,0.7-0.1,1.1-0.1c0.4,0,0.7-0.1,1-0.2c0.3-0.2,0.6-0.4,0.7-0.8
		c0.1-0.3,0.2-0.8,0.2-1.5v-11c0-1.6-0.3-2.8-0.9-3.6c-0.6-0.8-1.5-1.2-2.6-1.2c-0.6,0-1.2,0.1-1.8,0.3c-0.5,0.2-1.1,0.5-1.6,0.8
		c-0.5,0.3-0.8,0.6-1.1,1c-0.3,0.3-0.5,0.6-0.7,0.9v12.6c0,0.5,0.1,1,0.2,1.4c0.2,0.4,0.4,0.6,0.8,0.8c0.3,0.1,0.6,0.3,0.9,0.4
		c0.4,0.1,0.7,0.2,1.1,0.2v1.7h-14.2v-1.7c0.4,0,0.8-0.1,1.2-0.1c0.4-0.1,0.7-0.1,1-0.2c0.5-0.2,0.8-0.4,1-0.8
		c0.2-0.4,0.3-0.8,0.3-1.4V19c0-0.5-0.1-1-0.4-1.4c-0.3-0.5-0.6-0.9-1-1.1c-0.3-0.2-0.6-0.3-1.1-0.5s-0.9-0.2-1.4-0.3v-1.7l11.2-0.6
		l0.4,0.4v3.4h0.1c0.4-0.4,1-0.9,1.6-1.4c0.6-0.5,1.2-1,1.7-1.3c0.6-0.4,1.3-0.7,2.3-1s1.9-0.4,3-0.4c2.5,0,4.5,0.7,5.7,2.2
		c1.3,1.4,1.9,3.4,1.9,5.8v11.5c0,0.6,0.1,1,0.3,1.4c0.2,0.3,0.5,0.6,1,0.8c0.3,0.1,0.6,0.2,0.9,0.3c0.4,0.1,0.8,0.2,1.3,0.2V36.9z"
		/>
	<path class="st2" d="M171.8,18.3c0,1.1-0.4,2.1-1.3,2.9c-0.8,0.8-1.8,1.2-3,1.2c-1.2,0-2.2-0.4-3-1.2c-0.8-0.8-1.3-1.8-1.3-3
		c0-1.1,0.4-2.1,1.3-3c0.8-0.8,1.8-1.3,3-1.3c1.1,0,2.1,0.4,3,1.3C171.4,16.2,171.8,17.2,171.8,18.3z M171.8,31.9
		c0,1.1-0.4,2.1-1.3,2.9c-0.8,0.8-1.8,1.2-3,1.2c-1.2,0-2.2-0.4-3-1.2c-0.8-0.8-1.3-1.8-1.3-3c0-1.1,0.4-2.1,1.3-3
		c0.8-0.8,1.8-1.3,3-1.3c1.1,0,2.1,0.4,3,1.3C171.4,29.8,171.8,30.8,171.8,31.9z"/>
	<path class="st2" d="M194.4,35.8c-1,0.4-2.1,0.8-3.2,1.2c-1.1,0.4-2.5,0.5-4.2,0.5c-2.4,0-4.2-0.6-5.4-1.8
		c-1.2-1.2-1.8-2.9-1.8-5.1V16.3h-4.2v-2.6h4.3V6.6h7.6v7.1h6.6v2.6h-6.5v12.8c0,1.8,0.3,3.1,0.8,3.9c0.5,0.8,1.4,1.1,2.7,1.1
		c0.4,0,1,0,1.8-0.1c0.8-0.1,1.3-0.1,1.6-0.2V35.8z"/>
	<path class="st2" d="M221.2,31.3c-0.5,0.9-1.2,1.7-2,2.5c-0.8,0.8-1.7,1.5-2.6,2c-1,0.6-2.1,1-3.2,1.3c-1.1,0.3-2.3,0.5-3.7,0.5
		c-2.3,0-4.3-0.3-6-1c-1.7-0.7-3.1-1.5-4.2-2.6c-1.1-1.1-1.9-2.4-2.4-3.9c-0.5-1.5-0.8-3.1-0.8-4.9c0-1.6,0.3-3.1,0.9-4.6
		c0.6-1.5,1.4-2.8,2.5-3.9c1.1-1.1,2.4-2,4-2.7c1.6-0.7,3.4-1,5.4-1c2.2,0,4,0.3,5.4,0.8c1.4,0.5,2.6,1.3,3.5,2.2
		c0.9,0.9,1.5,1.9,1.9,3.2c0.4,1.2,0.6,2.5,0.6,3.8v1.5h-15.8c0,3.2,0.6,5.6,1.9,7.3c1.2,1.7,3.2,2.5,5.9,2.5c1.5,0,2.8-0.4,4-1.2
		c1.2-0.8,2.2-1.8,3-3.1L221.2,31.3z M212.3,22.4c0-0.9,0-1.9-0.1-2.9c-0.1-1-0.3-1.8-0.5-2.4c-0.3-0.7-0.6-1.3-1.1-1.7
		c-0.5-0.4-1-0.6-1.7-0.6c-1.2,0-2.2,0.6-2.9,1.8c-0.7,1.2-1.1,3.1-1.2,5.8L212.3,22.4z"/>
</g>
</svg>
