<?xml version="1.0" encoding="utf-8"?>
<!-- Generator: Adobe Illustrator 19.1.1, SVG Export Plug-In . SVG Version: 6.00 Build 0)  -->
<!DOCTYPE svg PUBLIC "-//W3C//DTD SVG 1.1//EN" "http://www.w3.org/Graphics/SVG/1.1/DTD/svg11.dtd">
<svg version="1.1" id="レイヤー_1" xmlns="http://www.w3.org/2000/svg" xmlns:xlink="http://www.w3.org/1999/xlink" x="0px"
	 y="0px" viewBox="0 0 166.6 246.4" style="enable-background:new 0 0 166.6 246.4;" xml:space="preserve">
<style type="text/css">
	.st0{fill:#9ED8F5;}
	.st1{fill:#0068B6;}
	.st2{fill:#0054A6;}
	.st3{fill:#54C2F0;}
	.st4{fill:#49A9D1;}
	.st5{fill:#BBC3E3;}
	.st6{fill:#767CBA;}
	.st7{fill:#666BA1;}
	.st8{fill:none;stroke:#231815;stroke-width:0.5;stroke-miterlimit:10;}
	.st9{fill:#FFFFFF;}
</style>
<g>
	<path class="st0" d="M126.8,151.3c1.9-2.3,3.1-5.2,3.1-8v-24.7L29.3,91.7v33.5L126.8,151.3z"/>
	<path class="st1" d="M123.2,100.1c7.4-2,13.4-9.6,13.4-17V49.6L42.7,74.7c-7.4,2-13.4,9.6-13.4,17v33.5L123.2,100.1z"/>
	<polygon class="st2" points="91.9,108.5 29.3,91.7 29.3,125.2 	"/>
	<path class="st3" d="M120,155.9c5.4-1.5,9.9-7.1,9.9-12.5v-24.7l-9.9,2.6l-60.7,16.3c-5.4,1.5-9.9,7.1-9.9,12.5v24.7L120,155.9z"/>
	<path class="st4" d="M67.3,135.4l59.4,15.9c0.7-0.9,1.3-1.8,1.8-2.8c0,0,0,0,0,0c0.1-0.3,0.3-0.6,0.4-0.9c0,0,0-0.1,0-0.1
		c0.1-0.3,0.2-0.6,0.3-0.9c0-0.1,0-0.1,0.1-0.2c0.1-0.3,0.1-0.5,0.2-0.8c0-0.1,0-0.1,0.1-0.2c0.1-0.3,0.1-0.5,0.1-0.8
		c0-0.1,0-0.2,0-0.2c0-0.3,0.1-0.7,0.1-1v-24.7l-9.9,2.6L67.3,135.4z"/>
	<path class="st5" d="M39.1,23.4c-1.9,2.3-3.1,5.2-3.1,8v24.7l100.6,26.9V49.6L39.1,23.4z"/>
	<polygon class="st2" points="74,66.3 136.6,83.1 136.6,49.6 	"/>
	<path class="st6" d="M45.9,18.9C40.5,20.4,36,26,36,31.4v24.7l9.9-2.6l60.7-16.3c5.4-1.5,9.9-7.1,9.9-12.5V0L45.9,18.9z"/>
	<path class="st7" d="M98.6,39.4L39.1,23.4c-0.7,0.9-1.3,1.8-1.8,2.8c0,0,0,0,0,0c-0.1,0.3-0.3,0.6-0.4,0.9c0,0,0,0.1,0,0.1
		c-0.1,0.3-0.2,0.6-0.3,0.9c0,0.1,0,0.1-0.1,0.2c-0.1,0.3-0.1,0.5-0.2,0.8c0,0.1,0,0.1-0.1,0.2c-0.1,0.3-0.1,0.5-0.1,0.8
		c0,0.1,0,0.2,0,0.2c0,0.3-0.1,0.7-0.1,1v24.7l9.9-2.6L98.6,39.4z"/>
</g>
<g>
	<path d="M-179.4-143.3c-0.9-1.2-1.3-1.8-1.8-3.1v9.7h-1.5v-9.9c-0.2,0.6-0.9,3-2.5,5.4l-0.7-2c1.7-2.1,2.7-5.1,3.1-6.7h-2.8v-1.6
		h2.9v-3.9h1.5v3.9h2.5v1.6h-2.5v1.3c0.4,1,1.7,2.7,2.8,3.8L-179.4-143.3z M-171.9-136.6h-1.6v-7.3c-1.3,2.4-2.7,3.9-4.8,5.7
		l-1.1-1.4c2.9-2.1,4.5-4.3,5.5-6.1h-4.7v-1.5h5.1v-3.1h-2.5c-0.6,1.4-1,2-1.4,2.5l-1.5-0.9c1-1.2,1.8-2.6,2.5-5.9l1.7,0.2
		c-0.1,0.6-0.2,1.3-0.6,2.5h2v-3.3h1.6v3.3h4.4v1.5h-4.4v3.1h4.9v1.5h-4.3c1.5,3,2.9,4.5,4.6,5.9l-0.9,1.7c-2.3-2-3.5-4.1-4.2-5.9
		V-136.6z"/>
	<path d="M-155-139.1c-2.9,0.7-6.6,1.3-10.4,1.7l-0.2-1.7c0.8-0.1,1.9-0.2,4.4-0.5v-6.3h-4v-1.6h9.5v1.6h-3.9v6
		c2.9-0.5,3.7-0.7,4.5-0.8L-155-139.1z M-153.4-155.2c0,0.7,0,1.5,0,3.3h6.3v1.6h-6.3c0.2,3.7,0.4,7.6,2.5,10.6
		c0.2,0.3,0.8,1.1,1.3,1.1c0.5,0,1-1.4,1.1-3.3l1.5,0.7c-0.2,1.5-0.6,4.5-2.5,4.5c-2.2,0-3.9-3.3-4.4-4.9c-1-3.1-1.1-4.7-1.4-8.7
		h-10.6v-1.6h10.5c0-0.9-0.1-2.1-0.1-3.3H-153.4z M-149.1-152c-0.8-0.7-1.6-1.2-3.1-2.1l0.9-1.2c1.5,0.8,2.1,1.2,3.2,2L-149.1-152z"
		/>
	<path d="M-131-148.1h-10.6v-1.1c-1.8,1.1-2.9,1.6-3.6,1.9l-0.8-1.6c6-2.3,8.2-5.6,8.7-6.4h1.8c2.1,2.8,5.3,5.2,8.7,6.4l-0.9,1.6
		c-0.9-0.4-2-0.9-3.4-1.9V-148.1z M-132.8-143.4c2.1,2.1,3.4,3.5,4.9,5.9l-1.4,1c-0.3-0.5-0.6-0.9-1-1.5c-3.3,0.5-11.5,0.8-14.6,0.8
		l-0.2-1.6h2.8c1.3-2.2,2-4,2.5-5.2h-5.5v-1.5h17.9v1.5h-10.4c-0.5,1.1-1.3,2.8-2.6,5.1c0.5,0,2.7-0.1,3.2-0.1
		c2.4-0.1,4.5-0.3,6-0.4c-0.2-0.3-1.2-1.5-2.8-3.1L-132.8-143.4z M-131.7-149.7c-2.8-2-4-3.4-4.7-4.3c-1.3,1.8-3,3.2-4.6,4.3H-131.7
		z"/>
	<path d="M-120.8-136.6h-1.6v-8.1c-1.3,1.2-2.2,1.8-2.7,2.1l-0.7-1.6c3.3-2,5.2-4.6,5.9-6.2h-5.6v-1.5h3.2v-3.3h1.6v3.3h2.6v1.5
		c-0.2,0.5-0.7,1.7-2.2,3.5c1.1,1.2,1.8,1.8,2.9,2.6l-0.9,1.5c-1.1-0.9-1.3-1.1-2.4-2.4V-136.6z M-112-155.2v5.8h4.4v1.6h-4.4v8.8
		h4.9v1.6h-11.7v-1.6h5.1v-8.8h-4.2v-1.6h4.2v-5.8H-112z"/>
	<path d="M-98.6-145.3c-2.3-1.4-4-1.9-5.7-2.4l0.7-1.6c2.3,0.6,3.7,1.1,5.8,2.3L-98.6-145.3z M-103.2-139.9
		c7.8-0.8,11.4-3.7,13.8-11.3l1.5,1.1c-2.8,8.3-6.5,11-14.9,12.1L-103.2-139.9z M-97-150c-2.2-1.3-4.2-1.9-5.8-2.4l0.7-1.5
		c2.3,0.6,3.8,1.1,5.9,2.2L-97-150z"/>
	<path d="M-84.1-139c7.8-1.5,10.9-6.2,12-12.3h-6.9c-1.3,2.1-2.8,3.7-5.1,5.3l-1.1-1.4c1.6-1.1,3.6-2.8,5-5.6h8l1.9,2.5
		c-1.7,7.6-5.8,11.6-13,13.2L-84.1-139z M-71.1-155.3c1,1.3,1.4,2,2.3,3.6l-1.3,0.9c-0.7-1.6-1.2-2.4-2.2-3.7L-71.1-155.3z
		 M-68.4-156.1c1,1.3,1.4,2,2.2,3.7l-1.3,0.8c-0.7-1.5-1.1-2.3-2.1-3.8L-68.4-156.1z"/>
	<path d="M-47.9-150.2v1.8h-7.2c0,6-2.5,9-7.6,10.8l-1-1.6c2.9-1,5-2.4,5.9-4.4c0.6-1.3,0.9-3.5,0.9-4.9h-7.7v-1.8h7.7v-4.2h1.9v4.2
		H-47.9z"/>
	<path d="M-34.2-137.4h-1.9v-9.3c-2.7,1.9-5.3,3.1-7.9,4l-0.9-1.7c5.7-1.8,10.6-5.4,14.3-10.1l1.7,1.1c-0.9,1-2.5,3-5.3,5.2V-137.4z
		"/>
	<path d="M-9.4-143.2c-1.4-0.8-4.6-2.8-8.8-4.3v10.1h-1.9v-17.1h1.9v5.1c3.8,1.2,6.9,2.7,9.8,4.3L-9.4-143.2z"/>
	<path d="M-0.2-144.1c-0.8-1.2-1-1.8-1.3-2.5v10.1h-1.6v-9.5c-0.4,1.6-0.9,3.1-2.2,5l-0.7-2c1.3-1.6,2.3-4,2.8-6.6h-2.5v-1.5h2.6
		v-3.9h1.6v3.9h2v1.5h-2v0.7c0.4,1.2,1.2,2.5,2.2,3.6L-0.2-144.1z M-0.4-138.6c0.7-0.3,2.8-1.1,5-2.8L5-140
		c-1.1,0.8-3.2,2.1-4.8,2.8L-0.4-138.6z M12.3-137.3c-2-1.2-3.5-2.5-4.7-4.5v3.5c0,0.4,0,1.6-1.5,1.6H3.8l-0.3-1.6l1.9,0
		c0.4,0,0.6,0,0.6-0.6v-6.4H1v-1.4h5.1v-1.8H1.8v-1.4h4.3v-1.6H1.3v-1.4H4c-0.2-0.6-0.5-1.4-0.9-2.1l1.5-0.2c0.4,0.7,0.8,1.6,1,2.3
		h2.7c0.2-0.4,0.6-1.2,1-2.3l1.6,0.2c-0.4,1.2-0.9,1.9-1,2.1h2.7v1.4H7.7v1.6h4.4v1.4H7.7v1.8h5.2v1.4H7.7v0.7
		c0.7,1.9,2.5,4.4,5.5,5.7L12.3-137.3z M2.1-144.8c0.3,0.2,1.4,0.9,2.5,2.1l-1.1,1.1c-0.6-0.7-1.5-1.5-2.4-2.1L2.1-144.8z
		 M9.5-142.7c0.7-0.6,1.5-1.5,2-2.2l1.3,0.9c-0.6,0.9-1.3,1.6-2.1,2.2L9.5-142.7z"/>
	<path d="M51-152.9v14.3H36.3v-14.3H51z M49.2-151.2H38.1v10.9h11.1V-151.2z"/>
	<path d="M67.6-152.4l2.3,2.6v10.9H56.2v-1.8H68v-10.1H56.3v-1.8H67.6z M68.6-155.1c1,1.1,1.6,1.9,2.5,3.5l-1.2,0.9
		c-0.8-1.6-1.3-2.2-2.4-3.6L68.6-155.1z M71.4-156.1c1,1.1,1.8,2.3,2.5,3.5l-1.3,0.9c-0.8-1.5-1.3-2.4-2.4-3.6L71.4-156.1z"/>
	<path d="M77.3-137.4l-0.7-1.6c5.1-0.9,6.7-2.8,6.8-7.8h-7.8v-1.7h16.3v1.7h-6.6C85-141.1,82.8-138.6,77.3-137.4z M88-153.7v1.7
		H77.1v-1.7H88z M89.6-155.5c0.6,1.3,0.9,2.4,1.3,4.1l-1.5,0.5c-0.3-1.7-0.6-2.6-1.2-4.1L89.6-155.5z M92.6-155.9
		c0.6,1.3,0.9,2.5,1.2,4.1l-1.5,0.5c-0.3-1.7-0.5-2.6-1.1-4.2L92.6-155.9z"/>
	<path d="M100.1-143.4h-1.8v-5.3H95v-1.7h3.3v-3.8h1.8v3.8h6.5v-3.9h1.7l0.1,3.9h3.7v1.7h-3.6v2.6c0,2.9-0.5,7.7-8.8,8.7l-0.7-1.7
		c7.7-0.6,7.7-5.1,7.7-7v-2.6h-6.5V-143.4z M110-155.7c0.5,1.3,0.7,2.5,1,4.2l-1.5,0.3c-0.2-1.7-0.4-2.5-0.9-4.1L110-155.7z
		 M112.8-156.1c0.6,1.5,0.8,2.5,1,4.2l-1.5,0.3c-0.2-1.7-0.4-2.6-0.9-4.1L112.8-156.1z"/>
	<path d="M125.8-137.4h-1.9v-9.3c-2.7,1.9-5.3,3.1-7.9,4l-0.9-1.7c5.7-1.8,10.6-5.4,14.3-10.1l1.7,1.1c-0.9,1-2.5,3-5.3,5.2V-137.4z
		"/>
	<path d="M142-148.7c-1.2-0.8-3.3-2-6.2-2.9l0.9-1.6c3.5,1.1,5.7,2.5,6.3,2.8L142-148.7z M136.3-140c10.1-0.5,13.1-7.6,14.5-12.1
		l1.6,1.2c-1,2.8-4.2,12.2-15.7,12.9L136.3-140z"/>
</g>
<line class="st8" x1="-186.3" y1="600.8" x2="352.2" y2="600.8"/>
<line class="st8" x1="-186.3" y1="-122.1" x2="352.2" y2="-122.1"/>
<g>
	<g>
		<path class="st9" d="M12.4,241h1.1c0,0.6,0.2,1.1,0.6,1.5c0.4,0.4,0.9,0.6,1.6,0.6c0.7,0,1.2-0.1,1.6-0.4c0.4-0.3,0.6-0.7,0.6-1.1
			c0-0.7-0.7-1.2-2.2-1.5c-0.1,0-0.2,0-0.2,0c-1.2-0.3-1.9-0.6-2.3-0.9c-0.4-0.3-0.6-0.8-0.6-1.5c0-0.8,0.3-1.4,0.8-1.9
			c0.6-0.5,1.3-0.7,2.2-0.7c1,0,1.7,0.2,2.2,0.7c0.5,0.5,0.8,1.2,0.8,2l-1.1,0c0-0.6-0.2-1-0.6-1.3c-0.4-0.3-0.8-0.5-1.5-0.5
			c-0.6,0-1,0.1-1.4,0.4c-0.3,0.3-0.5,0.6-0.5,1c0,0.7,0.7,1.2,2.1,1.5c0.2,0.1,0.4,0.1,0.5,0.1l0.1,0c0.9,0.2,1.5,0.5,1.9,0.7
			c0.2,0.2,0.4,0.4,0.5,0.7c0.1,0.3,0.2,0.6,0.2,0.9c0,0.8-0.3,1.5-0.9,2c-0.6,0.5-1.4,0.7-2.4,0.7c-1,0-1.9-0.3-2.4-0.8
			C12.7,242.7,12.4,242,12.4,241z"/>
		<path class="st9" d="M27.8,243.8v-3.9c0-0.6-0.1-1.1-0.3-1.3c-0.2-0.2-0.5-0.3-0.9-0.3c-0.5,0-0.9,0.2-1.2,0.5
			c-0.3,0.3-0.4,0.8-0.4,1.3v3.7H24v-3.9c0-0.6-0.1-1.1-0.3-1.3c-0.2-0.2-0.5-0.3-0.9-0.3c-0.5,0-0.9,0.2-1.2,0.5
			c-0.3,0.3-0.4,0.8-0.4,1.3v3.7h-1.1v-6.3h1v0.9c0.2-0.4,0.5-0.6,0.8-0.8c0.3-0.2,0.7-0.3,1.1-0.3c0.4,0,0.7,0.1,1,0.2
			c0.3,0.2,0.5,0.4,0.7,0.7c0.3-0.3,0.6-0.6,0.9-0.7c0.3-0.2,0.7-0.2,1.1-0.2c0.4,0,0.8,0.1,1.1,0.2s0.5,0.4,0.7,0.6
			c0.1,0.2,0.2,0.4,0.2,0.6c0,0.2,0.1,0.6,0.1,1.1v0.2v3.8H27.8z"/>
		<path class="st9" d="M34.1,243c-0.3,0.3-0.7,0.6-1,0.8c-0.4,0.2-0.8,0.3-1.2,0.3c-0.6,0-1.1-0.2-1.5-0.5c-0.4-0.3-0.5-0.8-0.5-1.4
			c0-0.6,0.2-1,0.5-1.3c0.4-0.3,0.9-0.5,1.6-0.6c0.2,0,0.4,0,0.7-0.1c0.5-0.1,0.9-0.1,1-0.2c0.1,0,0.2-0.1,0.2-0.2
			c0-0.1,0.1-0.2,0.1-0.5c0-0.3-0.1-0.6-0.4-0.7c-0.2-0.2-0.6-0.2-1.1-0.2c-0.5,0-0.9,0.1-1.1,0.3c-0.2,0.2-0.4,0.5-0.4,0.9h-1v0
			c0-0.6,0.2-1.1,0.7-1.5c0.4-0.4,1.1-0.6,1.8-0.6c0.8,0,1.5,0.2,1.9,0.5c0.4,0.3,0.6,0.8,0.6,1.5v3.1c0,0.3,0,0.4,0.1,0.5
			c0.1,0.1,0.2,0.1,0.3,0.1c0,0,0.1,0,0.1,0c0,0,0.1,0,0.2,0v0.8c-0.1,0-0.2,0.1-0.3,0.1c-0.1,0-0.2,0-0.3,0c-0.4,0-0.6-0.1-0.8-0.2
			C34.2,243.5,34.1,243.3,34.1,243L34.1,243z M34,240.6c-0.3,0.2-0.8,0.3-1.4,0.4c-0.2,0-0.4,0.1-0.5,0.1c-0.4,0.1-0.7,0.2-0.8,0.3
			c-0.2,0.2-0.3,0.4-0.3,0.7s0.1,0.6,0.3,0.7c0.2,0.2,0.5,0.3,0.8,0.3c0.6,0,1-0.1,1.4-0.4c0.4-0.3,0.5-0.7,0.5-1.1V240.6z"/>
		<path class="st9" d="M37,243.8v-6.3h1v1.1c0.2-0.4,0.4-0.7,0.7-0.9c0.3-0.2,0.6-0.3,1.1-0.3c0.1,0,0.1,0,0.2,0c0,0,0.1,0,0.1,0
			v1.1c0,0-0.1,0-0.1,0c0,0-0.1,0-0.2,0c-0.6,0-1,0.2-1.3,0.5c-0.3,0.3-0.4,0.8-0.4,1.3v3.5H37z"/>
		<path class="st9" d="M42.7,242.2c0,0.3,0,0.5,0.1,0.6c0.1,0.1,0.2,0.1,0.4,0.1c0.1,0,0.1,0,0.2,0c0.1,0,0.2,0,0.3,0v0.9
			c-0.2,0-0.3,0.1-0.5,0.1c-0.1,0-0.3,0-0.4,0c-0.5,0-0.8-0.1-1-0.3c-0.2-0.2-0.3-0.5-0.3-1v-4.2h-0.9v-0.8h0.9v-1.8h1.1v1.8h1.1
			v0.8h-1.1V242.2z"/>
		<path class="st9" d="M48.7,243.8v-8.6h1.2v8.6H48.7z"/>
		<path class="st9" d="M56.2,243c-0.2,0.3-0.5,0.6-0.9,0.7c-0.3,0.2-0.7,0.2-1.1,0.2c-0.8,0-1.5-0.3-2-0.9c-0.5-0.6-0.8-1.4-0.8-2.4
			c0-1,0.3-1.8,0.8-2.4c0.5-0.6,1.2-0.9,2.1-0.9c0.4,0,0.8,0.1,1.1,0.2c0.3,0.2,0.6,0.4,0.9,0.8v-0.8h1v6.1c0,1-0.2,1.7-0.7,2.1
			c-0.5,0.4-1.2,0.6-2.2,0.6c-0.8,0-1.5-0.2-2-0.5c-0.5-0.3-0.7-0.8-0.7-1.3v0h1v0c0,0.3,0.1,0.6,0.4,0.7c0.3,0.2,0.7,0.2,1.2,0.2
			c0.7,0,1.1-0.1,1.4-0.4c0.3-0.3,0.4-0.7,0.4-1.3V243z M54.3,238.3c-0.6,0-1.1,0.2-1.4,0.6c-0.3,0.4-0.5,1-0.5,1.8
			c0,0.8,0.2,1.3,0.5,1.8c0.3,0.4,0.8,0.6,1.4,0.6c0.6,0,1.1-0.2,1.4-0.6c0.3-0.4,0.5-1,0.5-1.8c0-0.8-0.2-1.4-0.5-1.8
			C55.4,238.5,54.9,238.3,54.3,238.3z"/>
		<path class="st9" d="M63.2,243.8v-3.9c0-0.6-0.1-1-0.3-1.3c-0.2-0.2-0.5-0.4-1-0.4c-0.6,0-1,0.2-1.4,0.5c-0.3,0.3-0.5,0.8-0.5,1.4
			v3.6H59v-6.3h1v0.9c0.2-0.4,0.5-0.6,0.9-0.8c0.3-0.2,0.7-0.3,1.2-0.3c0.5,0,0.9,0.1,1.2,0.2c0.3,0.1,0.6,0.4,0.8,0.6
			c0.1,0.2,0.2,0.3,0.2,0.5c0,0.2,0.1,0.5,0.1,1v0.3v3.8H63.2z"/>
		<path class="st9" d="M66.1,236.4v-1.2h1.1v1.2H66.1z M66.1,243.8v-6.3h1.1v6.3H66.1z"/>
		<path class="st9" d="M70.2,242.2c0,0.3,0,0.5,0.1,0.6c0.1,0.1,0.2,0.1,0.4,0.1c0.1,0,0.1,0,0.2,0c0.1,0,0.2,0,0.3,0v0.9
			c-0.2,0-0.3,0.1-0.5,0.1c-0.1,0-0.3,0-0.4,0c-0.5,0-0.8-0.1-1-0.3c-0.2-0.2-0.3-0.5-0.3-1v-4.2h-0.9v-0.8h0.9v-1.8h1.1v1.8h1.1
			v0.8h-1.1V242.2z"/>
		<path class="st9" d="M72.6,236.4v-1.2h1.1v1.2H72.6z M72.6,243.8v-6.3h1.1v6.3H72.6z"/>
		<path class="st9" d="M74.7,240.7c0-1.1,0.3-1.9,0.8-2.5c0.5-0.6,1.3-0.9,2.2-0.9c1,0,1.7,0.3,2.2,0.9c0.5,0.6,0.8,1.4,0.8,2.5
			s-0.3,1.9-0.8,2.5c-0.5,0.6-1.3,0.9-2.2,0.9c-1,0-1.7-0.3-2.2-0.9C75,242.5,74.7,241.7,74.7,240.7z M75.8,240.7
			c0,0.8,0.2,1.4,0.5,1.8c0.3,0.4,0.8,0.6,1.4,0.6c0.6,0,1.1-0.2,1.4-0.6c0.3-0.4,0.5-1,0.5-1.8c0-0.8-0.2-1.4-0.5-1.8
			c-0.3-0.4-0.8-0.6-1.4-0.6c-0.6,0-1.1,0.2-1.4,0.6C76,239.3,75.8,239.9,75.8,240.7z"/>
		<path class="st9" d="M86.2,243.8v-3.9c0-0.6-0.1-1-0.3-1.3c-0.2-0.2-0.5-0.4-1-0.4c-0.6,0-1,0.2-1.4,0.5c-0.3,0.3-0.5,0.8-0.5,1.4
			v3.6H82v-6.3h1v0.9c0.2-0.4,0.5-0.6,0.9-0.8c0.3-0.2,0.7-0.3,1.2-0.3c0.5,0,0.9,0.1,1.2,0.2c0.3,0.1,0.6,0.4,0.8,0.6
			c0.1,0.2,0.2,0.3,0.2,0.5c0,0.2,0.1,0.5,0.1,1v0.3v3.8H86.2z"/>
		<path class="st9" d="M94.4,243.8v-7.6h-2.7v-1h6.6v1h-2.7v7.6H94.4z"/>
		<path class="st9" d="M102,241.8h1c-0.1,0.7-0.4,1.2-0.9,1.6c-0.5,0.4-1.1,0.6-1.8,0.6c-0.9,0-1.6-0.3-2.1-0.9
			c-0.5-0.6-0.8-1.4-0.8-2.4c0-1.1,0.3-1.9,0.8-2.5c0.5-0.6,1.2-0.9,2.1-0.9c0.9,0,1.6,0.3,2.1,0.8c0.5,0.6,0.7,1.3,0.7,2.3
			c0,0.1,0,0.2,0,0.3c0,0.1,0,0.1,0,0.2h-4.5c0,0.7,0.2,1.2,0.5,1.5c0.3,0.4,0.8,0.5,1.3,0.5c0.4,0,0.8-0.1,1.1-0.3
			C101.7,242.5,101.9,242.2,102,241.8z M98.6,240.1h3.4c0-0.6-0.2-1-0.4-1.4c-0.3-0.3-0.7-0.5-1.2-0.5c-0.5,0-0.9,0.2-1.2,0.5
			C98.8,239,98.6,239.5,98.6,240.1z"/>
		<path class="st9" d="M108.5,239.6c0-0.4-0.2-0.8-0.5-1c-0.3-0.2-0.7-0.3-1.1-0.3c-0.6,0-1,0.2-1.3,0.6c-0.3,0.4-0.5,1-0.5,1.8
			c0,0.8,0.1,1.4,0.4,1.8c0.3,0.4,0.7,0.6,1.3,0.6c0.5,0,0.9-0.1,1.2-0.4c0.3-0.3,0.5-0.6,0.5-1.1h1c-0.1,0.8-0.3,1.4-0.8,1.8
			c-0.5,0.4-1.1,0.6-2,0.6c-0.9,0-1.5-0.3-2-0.9c-0.5-0.6-0.7-1.4-0.7-2.4c0-1.1,0.3-1.9,0.8-2.5s1.2-0.9,2.1-0.9
			c0.8,0,1.4,0.2,1.9,0.6c0.5,0.4,0.7,1,0.8,1.7H108.5z"/>
		<path class="st9" d="M115.1,243.8v-3.9c0-0.6-0.1-1-0.3-1.3c-0.2-0.2-0.5-0.4-1-0.4c-0.6,0-1,0.2-1.4,0.5
			c-0.3,0.3-0.5,0.8-0.5,1.3v3.7h-1.1v-8.6h1.1v3.2c0.2-0.3,0.5-0.6,0.8-0.8c0.3-0.2,0.7-0.3,1.2-0.3c0.5,0,0.9,0.1,1.2,0.2
			c0.3,0.1,0.6,0.4,0.8,0.6c0.1,0.2,0.2,0.3,0.2,0.5c0,0.2,0.1,0.5,0.1,1v0.3v3.8H115.1z"/>
		<path class="st9" d="M122.1,243.8v-3.9c0-0.6-0.1-1-0.3-1.3c-0.2-0.2-0.5-0.4-1-0.4c-0.6,0-1,0.2-1.4,0.5
			c-0.3,0.3-0.5,0.8-0.5,1.4v3.6h-1.1v-6.3h1v0.9c0.2-0.4,0.5-0.6,0.9-0.8c0.3-0.2,0.7-0.3,1.2-0.3c0.5,0,0.9,0.1,1.2,0.2
			c0.3,0.1,0.6,0.4,0.8,0.6c0.1,0.2,0.2,0.3,0.2,0.5c0,0.2,0.1,0.5,0.1,1v0.3v3.8H122.1z"/>
		<path class="st9" d="M124.2,240.7c0-1.1,0.3-1.9,0.8-2.5c0.5-0.6,1.3-0.9,2.2-0.9c1,0,1.7,0.3,2.2,0.9c0.5,0.6,0.8,1.4,0.8,2.5
			s-0.3,1.9-0.8,2.5c-0.5,0.6-1.3,0.9-2.2,0.9c-1,0-1.7-0.3-2.2-0.9C124.5,242.5,124.2,241.7,124.2,240.7z M125.3,240.7
			c0,0.8,0.2,1.4,0.5,1.8c0.3,0.4,0.8,0.6,1.4,0.6c0.6,0,1.1-0.2,1.4-0.6c0.3-0.4,0.5-1,0.5-1.8c0-0.8-0.2-1.4-0.5-1.8
			c-0.3-0.4-0.8-0.6-1.4-0.6c-0.6,0-1.1,0.2-1.4,0.6C125.5,239.3,125.3,239.9,125.3,240.7z"/>
		<path class="st9" d="M131.5,243.8v-8.6h1.1v8.6H131.5z"/>
		<path class="st9" d="M133.9,240.7c0-1.1,0.3-1.9,0.8-2.5c0.5-0.6,1.3-0.9,2.2-0.9c1,0,1.7,0.3,2.2,0.9c0.5,0.6,0.8,1.4,0.8,2.5
			s-0.3,1.9-0.8,2.5c-0.5,0.6-1.3,0.9-2.2,0.9c-1,0-1.7-0.3-2.2-0.9C134.2,242.5,133.9,241.7,133.9,240.7z M135,240.7
			c0,0.8,0.2,1.4,0.5,1.8c0.3,0.4,0.8,0.6,1.4,0.6c0.6,0,1.1-0.2,1.4-0.6c0.3-0.4,0.5-1,0.5-1.8c0-0.8-0.2-1.4-0.5-1.8
			c-0.3-0.4-0.8-0.6-1.4-0.6c-0.6,0-1.1,0.2-1.4,0.6C135.1,239.3,135,239.9,135,240.7z"/>
		<path class="st9" d="M145.7,243c-0.2,0.3-0.5,0.6-0.9,0.7c-0.3,0.2-0.7,0.2-1.1,0.2c-0.8,0-1.5-0.3-2-0.9
			c-0.5-0.6-0.8-1.4-0.8-2.4c0-1,0.3-1.8,0.8-2.4c0.5-0.6,1.2-0.9,2.1-0.9c0.4,0,0.8,0.1,1.1,0.2c0.3,0.2,0.6,0.4,0.9,0.8v-0.8h1
			v6.1c0,1-0.2,1.7-0.7,2.1c-0.5,0.4-1.2,0.6-2.2,0.6c-0.8,0-1.5-0.2-2-0.5c-0.5-0.3-0.7-0.8-0.7-1.3v0h1v0c0,0.3,0.1,0.6,0.4,0.7
			c0.3,0.2,0.7,0.2,1.2,0.2c0.7,0,1.1-0.1,1.4-0.4c0.3-0.3,0.4-0.7,0.4-1.3V243z M143.8,238.3c-0.6,0-1.1,0.2-1.4,0.6
			c-0.3,0.4-0.5,1-0.5,1.8c0,0.8,0.2,1.3,0.5,1.8c0.3,0.4,0.8,0.6,1.4,0.6c0.6,0,1.1-0.2,1.4-0.6c0.3-0.4,0.5-1,0.5-1.8
			c0-0.8-0.2-1.4-0.5-1.8C144.9,238.5,144.5,238.3,143.8,238.3z"/>
		<path class="st9" d="M152.5,237.5h1.2l-2.6,7.2c-0.3,0.7-0.5,1.1-0.8,1.3c-0.3,0.2-0.6,0.3-1.1,0.3c-0.1,0-0.2,0-0.3,0
			c-0.1,0-0.2,0-0.3-0.1v-1c0.1,0,0.2,0.1,0.3,0.1c0.1,0,0.2,0,0.3,0c0.2,0,0.4,0,0.5-0.1c0.1-0.1,0.2-0.2,0.3-0.4l0.3-0.7l-2.4-6.6
			h1.2l1.7,5.1L152.5,237.5z"/>
	</g>
</g>
<g>
	<g>
		<path class="st9" d="M14.1,222.8c-2,0-3.9-0.3-5.7-0.8c-1.8-0.5-3.2-1.1-4.5-1.8l-1.6,1.6h-2l-0.3-12h2c0.5,1.1,1,2.3,1.7,3.6
			c0.7,1.3,1.5,2.4,2.4,3.4c1,1,2,1.9,3.2,2.6c1.2,0.7,2.6,1,4.1,1c2.1,0,3.8-0.5,4.9-1.6c1.1-1,1.7-2.3,1.7-3.9
			c0-1.3-0.5-2.4-1.4-3.3c-1-0.9-2.4-1.6-4.5-2.3c-1.3-0.4-2.5-0.8-3.6-1.2c-1.1-0.4-2.1-0.7-3.1-1.1c-2.2-0.9-3.9-2.2-5-3.8
			c-1.1-1.7-1.6-3.5-1.6-5.6c0-1.3,0.3-2.5,0.8-3.7c0.6-1.2,1.4-2.3,2.5-3.2c1-0.9,2.4-1.6,4-2.2c1.6-0.6,3.4-0.8,5.2-0.8
			c1.8,0,3.6,0.3,5.2,0.8c1.6,0.5,2.9,1,3.8,1.5l1.4-1.4h2L26,200h-2c-0.5-1.2-1-2.5-1.7-3.7c-0.6-1.3-1.3-2.3-2-3.2
			c-0.8-0.9-1.6-1.6-2.6-2.2c-1-0.5-2.2-0.8-3.5-0.8c-1.7,0-3.1,0.5-4.1,1.4c-1.1,1-1.6,2.1-1.6,3.5c0,1.3,0.5,2.4,1.4,3.3
			c0.9,0.8,2.4,1.6,4.3,2.2c1.2,0.4,2.3,0.8,3.5,1.2s2.3,0.8,3.2,1.1c2.3,0.9,4,2.1,5.2,3.6c1.2,1.5,1.8,3.5,1.8,5.7
			c0,1.4-0.3,2.8-1,4.2c-0.7,1.3-1.6,2.5-2.7,3.4c-1.3,1-2.7,1.7-4.3,2.3C18.2,222.5,16.3,222.8,14.1,222.8z"/>
		<path class="st9" d="M41,203.3c0,1.1-0.4,2.1-1.3,2.9c-0.8,0.8-1.8,1.2-3,1.2c-1.2,0-2.2-0.4-3-1.2c-0.8-0.8-1.3-1.8-1.3-3
			c0-1.1,0.4-2.1,1.3-3c0.8-0.8,1.8-1.3,3-1.3c1.1,0,2.1,0.4,3,1.3C40.6,201.2,41,202.2,41,203.3z M41,216.9c0,1.1-0.4,2.1-1.3,2.9
			c-0.8,0.8-1.8,1.2-3,1.2c-1.2,0-2.2-0.4-3-1.2c-0.8-0.8-1.3-1.8-1.3-3c0-1.1,0.4-2.1,1.3-3c0.8-0.8,1.8-1.3,3-1.3
			c1.1,0,2.1,0.4,3,1.3C40.6,214.8,41,215.8,41,216.9z"/>
		<path class="st9" d="M71.6,201.2h-5.2c0.6,0.7,1.1,1.4,1.4,2.2c0.3,0.8,0.5,1.6,0.5,2.4c0,1.1-0.3,2.1-0.9,3
			c-0.6,0.9-1.3,1.7-2.3,2.3c-1,0.6-2.1,1.1-3.4,1.4c-1.3,0.3-2.7,0.5-4.2,0.5h-3.8c-0.2,0.1-0.4,0.4-0.6,0.7
			c-0.2,0.3-0.3,0.6-0.3,0.9c0,0.7,0.3,1.2,0.8,1.4c0.5,0.3,1.5,0.4,3,0.4c1.4,0,2.9,0.1,4.3,0.2c1.5,0.1,2.5,0.1,3.1,0.2
			c0.9,0,1.8,0.2,2.7,0.6c0.9,0.3,1.7,0.7,2.3,1.3c0.7,0.5,1.3,1.2,1.8,2.1c0.5,0.9,0.7,1.8,0.7,2.9c0,1.2-0.3,2.3-0.9,3.4
			c-0.6,1-1.4,2-2.6,2.7c-1.2,0.8-2.7,1.4-4.4,1.9c-1.7,0.4-3.9,0.7-6.4,0.7c-4.1,0-7.2-0.5-9.4-1.5c-2.1-1-3.2-2.5-3.2-4.5
			c0-1.2,0.6-2.3,1.7-3c1.2-0.8,3-1.2,5.4-1.3v-0.3c-1.4-0.5-2.6-1.1-3.4-1.9c-0.8-0.8-1.2-1.7-1.2-2.8c0-0.7,0.2-1.2,0.5-1.7
			c0.3-0.5,0.7-0.9,1.2-1.2c0.4-0.3,1-0.6,1.6-0.8c0.6-0.2,1.1-0.4,1.6-0.5v-0.3c-2.1-0.8-3.7-1.7-4.7-2.9s-1.5-2.5-1.5-4.1
			c0-2.3,1.1-4.1,3.2-5.5s4.8-2.1,8.1-2.1c1.1,0,2.1,0.1,3.1,0.3c1,0.2,1.7,0.3,2.3,0.5h9.1V201.2z M64.5,225.4
			c0-0.5-0.1-1.1-0.4-1.6c-0.3-0.5-1-0.9-2-1.3c-0.6-0.1-1.5-0.2-2.8-0.2c-1.3,0-3.1,0-5.3,0c-0.5,0.5-1,1-1.4,1.7
			c-0.4,0.6-0.5,1.4-0.5,2.3c0,0.4,0.1,0.8,0.3,1.3c0.2,0.5,0.6,0.9,1,1.3c0.5,0.5,1.2,0.8,1.8,1.1c0.7,0.3,1.7,0.4,3,0.4
			c2,0,3.5-0.4,4.6-1.2C64,228.4,64.5,227.1,64.5,225.4z M60.6,205.7c0-1.8-0.3-3.3-0.9-4.3c-0.6-1.1-1.5-1.6-2.7-1.6
			c-0.6,0-1.1,0.1-1.6,0.4c-0.5,0.3-0.8,0.7-1.1,1.3c-0.3,0.5-0.4,1.2-0.5,1.9c-0.1,0.7-0.1,1.4-0.1,2.2c0,1.7,0.3,3.1,0.9,4.2
			c0.6,1.1,1.4,1.6,2.5,1.6c1.1,0,2-0.5,2.6-1.5C60.3,208.9,60.6,207.5,60.6,205.7z"/>
		<path class="st9" d="M105.9,221.9H91.8v-1.7c0.3,0,0.7-0.1,1.1-0.1c0.4,0,0.7-0.1,1-0.2c0.3-0.2,0.6-0.4,0.7-0.8
			c0.1-0.3,0.2-0.8,0.2-1.5v-11c0-1.6-0.3-2.8-0.9-3.6c-0.6-0.8-1.5-1.2-2.6-1.2c-0.6,0-1.2,0.1-1.8,0.3c-0.5,0.2-1.1,0.5-1.6,0.8
			c-0.5,0.3-0.8,0.6-1.1,1c-0.3,0.3-0.5,0.6-0.7,0.9v12.6c0,0.5,0.1,1,0.2,1.4c0.2,0.4,0.4,0.6,0.8,0.8c0.3,0.1,0.6,0.3,0.9,0.4
			c0.4,0.1,0.7,0.2,1.1,0.2v1.7H74.9v-1.7c0.4,0,0.8-0.1,1.2-0.1c0.4-0.1,0.7-0.1,1-0.2c0.5-0.2,0.8-0.4,1-0.8
			c0.2-0.4,0.3-0.8,0.3-1.4V204c0-0.5-0.1-1-0.4-1.4c-0.3-0.5-0.6-0.9-1-1.1c-0.3-0.2-0.6-0.3-1.1-0.5c-0.4-0.1-0.9-0.2-1.4-0.3
			v-1.7l11.2-0.6l0.4,0.4v3.4h0.1c0.4-0.4,1-0.9,1.6-1.4c0.6-0.5,1.2-1,1.7-1.3c0.6-0.4,1.3-0.7,2.3-1c0.9-0.3,1.9-0.4,3-0.4
			c2.5,0,4.5,0.7,5.7,2.2c1.3,1.4,1.9,3.4,1.9,5.8v11.5c0,0.6,0.1,1,0.3,1.4c0.2,0.3,0.5,0.6,1,0.8c0.3,0.1,0.6,0.2,0.9,0.3
			c0.4,0.1,0.8,0.2,1.3,0.2V221.9z"/>
		<path class="st9" d="M117.1,203.3c0,1.1-0.4,2.1-1.3,2.9c-0.8,0.8-1.8,1.2-3,1.2c-1.2,0-2.2-0.4-3-1.2c-0.8-0.8-1.3-1.8-1.3-3
			c0-1.1,0.4-2.1,1.3-3c0.8-0.8,1.8-1.3,3-1.3c1.1,0,2.1,0.4,3,1.3C116.7,201.2,117.1,202.2,117.1,203.3z M117.1,216.9
			c0,1.1-0.4,2.1-1.3,2.9c-0.8,0.8-1.8,1.2-3,1.2c-1.2,0-2.2-0.4-3-1.2c-0.8-0.8-1.3-1.8-1.3-3c0-1.1,0.4-2.1,1.3-3
			c0.8-0.8,1.8-1.3,3-1.3c1.1,0,2.1,0.4,3,1.3C116.7,214.8,117.1,215.8,117.1,216.9z"/>
		<path class="st9" d="M139.7,220.8c-1,0.4-2.1,0.8-3.2,1.2c-1.1,0.4-2.5,0.5-4.2,0.5c-2.4,0-4.2-0.6-5.4-1.8
			c-1.2-1.2-1.8-2.9-1.8-5.1v-14.4h-4.2v-2.6h4.3v-7.1h7.6v7.1h6.6v2.6h-6.5v12.8c0,1.8,0.3,3.1,0.8,3.9c0.5,0.8,1.4,1.1,2.7,1.1
			c0.4,0,1,0,1.8-0.1c0.8-0.1,1.3-0.1,1.6-0.2V220.8z"/>
		<path class="st9" d="M166.6,216.3c-0.5,0.9-1.2,1.7-2,2.5c-0.8,0.8-1.7,1.5-2.6,2c-1,0.6-2.1,1-3.2,1.3c-1.1,0.3-2.3,0.5-3.7,0.5
			c-2.3,0-4.3-0.3-6-1c-1.7-0.7-3.1-1.5-4.2-2.6c-1.1-1.1-1.9-2.4-2.4-3.9c-0.5-1.5-0.8-3.1-0.8-4.9c0-1.6,0.3-3.1,0.9-4.6
			c0.6-1.5,1.4-2.8,2.5-3.9c1.1-1.1,2.4-2,4-2.7c1.6-0.7,3.4-1,5.4-1c2.2,0,4,0.3,5.4,0.8c1.4,0.5,2.6,1.3,3.5,2.2
			c0.9,0.9,1.5,1.9,1.9,3.2c0.4,1.2,0.6,2.5,0.6,3.8v1.5h-15.8c0,3.2,0.6,5.6,1.9,7.3c1.2,1.7,3.2,2.5,5.9,2.5c1.5,0,2.8-0.4,4-1.2
			c1.2-0.8,2.2-1.8,3-3.1L166.6,216.3z M157.6,207.4c0-0.9,0-1.9-0.1-2.9c-0.1-1-0.3-1.8-0.5-2.4c-0.3-0.7-0.6-1.3-1.1-1.7
			c-0.5-0.4-1-0.6-1.7-0.6c-1.2,0-2.2,0.6-2.9,1.8c-0.7,1.2-1.1,3.1-1.2,5.8L157.6,207.4z"/>
	</g>
</g>
<g>
	<path class="st0" d="M-71.9,498.4c1.8-2.1,2.9-4.8,2.9-7.4v-22.8l-92.7-24.8v30.9L-71.9,498.4z"/>
	<path class="st1" d="M-75.2,451.1c6.8-1.8,12.4-8.9,12.4-15.7v-30.9l-86.5,23.2c-6.8,1.8-12.4,8.9-12.4,15.7v30.9L-75.2,451.1z"/>
	<polygon class="st2" points="-104.1,458.8 -161.7,443.4 -161.7,474.3 	"/>
	<path class="st3" d="M-78.1,502.5c5-1.3,9.1-6.5,9.1-11.5v-22.8l-9.1,2.4l-55.9,15c-5,1.3-9.1,6.5-9.1,11.5V520L-78.1,502.5z"/>
	<path class="st4" d="M-126.7,483.7l54.8,14.7c0.7-0.8,1.2-1.7,1.7-2.6c0,0,0,0,0,0c0.1-0.3,0.3-0.6,0.4-0.8c0,0,0-0.1,0-0.1
		c0.1-0.3,0.2-0.5,0.3-0.8c0-0.1,0-0.1,0.1-0.2c0.1-0.2,0.1-0.5,0.2-0.8c0-0.1,0-0.1,0.1-0.2c0-0.2,0.1-0.5,0.1-0.7
		c0-0.1,0-0.2,0-0.2c0-0.3,0.1-0.6,0.1-1v-22.8l-9.1,2.4L-126.7,483.7z"/>
	<path class="st5" d="M-152.7,380.5c-1.8,2.1-2.9,4.8-2.9,7.4v22.8l92.7,24.8v-30.9L-152.7,380.5z"/>
	<polygon class="st2" points="-120.5,420 -62.8,435.4 -62.8,404.6 	"/>
	<path class="st6" d="M-146.4,376.3c-5,1.3-9.1,6.5-9.1,11.5v22.8l9.1-2.4l55.9-15c5-1.3,9.1-6.5,9.1-11.5v-22.8L-146.4,376.3z"/>
	<path class="st7" d="M-97.9,395.2l-54.8-14.7c-0.7,0.8-1.2,1.7-1.7,2.6c0,0,0,0,0,0c-0.1,0.3-0.3,0.6-0.4,0.8c0,0,0,0.1,0,0.1
		c-0.1,0.3-0.2,0.5-0.3,0.8c0,0.1,0,0.1-0.1,0.2c-0.1,0.2-0.1,0.5-0.2,0.8c0,0.1,0,0.1-0.1,0.2c0,0.2-0.1,0.5-0.1,0.7
		c0,0.1,0,0.2,0,0.2c0,0.3-0.1,0.6-0.1,1v22.8l9.1-2.4L-97.9,395.2z"/>
</g>
<g>
	<path class="st1" d="M-17.4,492.1h2.6c0,1.4,0.5,2.6,1.4,3.5c0.9,0.9,2.2,1.3,3.8,1.3c1.5,0,2.8-0.3,3.7-1c0.9-0.7,1.3-1.5,1.3-2.7
		c0-1.5-1.7-2.7-5-3.5c-0.2,0-0.4-0.1-0.5-0.1c-2.7-0.6-4.5-1.4-5.4-2.1c-0.9-0.8-1.3-1.9-1.3-3.4c0-1.8,0.7-3.2,2-4.3
		s3-1.6,5.2-1.6c2.2,0,3.9,0.6,5.2,1.7c1.3,1.1,1.9,2.7,1.9,4.7l-2.6,0c-0.1-1.3-0.5-2.4-1.4-3.1s-1.9-1.1-3.4-1.1
		c-1.3,0-2.4,0.3-3.2,0.9c-0.8,0.6-1.2,1.4-1.2,2.3c0,1.5,1.6,2.7,4.9,3.5c0.5,0.1,0.9,0.2,1.1,0.3l0.3,0.1c2.2,0.5,3.6,1.1,4.3,1.7
		c0.5,0.5,0.9,1,1.2,1.6c0.3,0.6,0.4,1.4,0.4,2.2c0,1.9-0.7,3.5-2.1,4.6c-1.4,1.1-3.2,1.7-5.6,1.7c-2.4,0-4.3-0.6-5.7-1.8
		S-17.3,494.4-17.4,492.1z"/>
	<path class="st1" d="M18.4,498.6v-8.9c0-1.5-0.2-2.5-0.6-3c-0.4-0.5-1.1-0.8-2.1-0.8c-1.2,0-2.1,0.4-2.7,1.1c-0.7,0.7-1,1.8-1,3.1
		v8.6H9.5v-8.9c0-1.5-0.2-2.5-0.6-3c-0.4-0.5-1.1-0.8-2.1-0.8c-1.2,0-2.1,0.4-2.7,1.1c-0.7,0.7-1,1.8-1,3.1v8.6H0.7v-14.5H3v2
		c0.5-0.8,1.2-1.4,1.9-1.8c0.7-0.4,1.6-0.6,2.6-0.6c0.9,0,1.7,0.2,2.3,0.5c0.6,0.4,1.2,0.9,1.7,1.7c0.6-0.8,1.3-1.4,2.1-1.7
		c0.8-0.4,1.6-0.5,2.6-0.5c0.9,0,1.8,0.2,2.5,0.5c0.7,0.3,1.2,0.8,1.6,1.5c0.2,0.4,0.4,0.8,0.4,1.3c0.1,0.5,0.1,1.3,0.1,2.4v0.4v8.7
		H18.4z"/>
	<path class="st1" d="M32.9,496.7c-0.8,0.8-1.6,1.4-2.4,1.8c-0.9,0.4-1.8,0.6-2.7,0.6c-1.5,0-2.6-0.4-3.5-1.2
		c-0.8-0.8-1.2-1.8-1.2-3.2c0-1.3,0.4-2.4,1.2-3.1c0.8-0.8,2.1-1.2,3.7-1.5c0.4,0,1-0.1,1.7-0.2c1.2-0.1,2-0.2,2.3-0.4
		c0.3-0.1,0.5-0.3,0.6-0.4c0.1-0.2,0.1-0.6,0.1-1.1c0-0.7-0.3-1.3-0.8-1.7c-0.5-0.4-1.4-0.6-2.5-0.6c-1.1,0-2,0.2-2.6,0.7
		c-0.6,0.5-0.9,1.1-0.9,2h-2.3v-0.1c0-1.5,0.5-2.6,1.5-3.5c1-0.9,2.5-1.3,4.3-1.3c1.9,0,3.4,0.4,4.3,1.1c0.9,0.7,1.4,1.9,1.4,3.4
		v7.3c0,0.6,0.1,1,0.2,1.2c0.1,0.2,0.4,0.3,0.7,0.3c0.1,0,0.2,0,0.3,0c0.1,0,0.2,0,0.4-0.1v1.9c-0.3,0.1-0.6,0.1-0.8,0.2
		c-0.2,0-0.4,0-0.6,0c-0.8,0-1.4-0.2-1.8-0.5C33.1,498,32.9,497.5,32.9,496.7L32.9,496.7z M32.7,491.3c-0.7,0.4-1.8,0.6-3.4,0.8
		c-0.6,0.1-1,0.1-1.3,0.2c-0.9,0.1-1.5,0.4-1.9,0.8c-0.4,0.4-0.6,0.9-0.6,1.7c0,0.7,0.2,1.3,0.7,1.7c0.5,0.4,1.1,0.6,1.9,0.6
		c1.3,0,2.4-0.3,3.2-1c0.8-0.7,1.3-1.5,1.3-2.5V491.3z"/>
	<path class="st1" d="M39.6,498.6v-14.5h2.4v2.6c0.4-1,0.9-1.7,1.6-2.2s1.5-0.7,2.4-0.7c0.2,0,0.3,0,0.4,0c0.1,0,0.2,0,0.2,0v2.6
		c-0.1,0-0.1,0-0.2,0c-0.1,0-0.2,0-0.4,0c-1.3,0-2.3,0.4-3,1.1c-0.7,0.7-1,1.7-1,3.1v8.1H39.6z"/>
	<path class="st1" d="M52.8,495c0,0.7,0.1,1.1,0.3,1.3c0.2,0.2,0.5,0.3,1,0.3c0.1,0,0.3,0,0.5,0c0.2,0,0.5,0,0.8-0.1v2.1
		c-0.4,0.1-0.8,0.1-1.1,0.2c-0.3,0-0.6,0.1-0.9,0.1c-1.1,0-2-0.2-2.4-0.7c-0.5-0.4-0.7-1.2-0.7-2.4v-9.8h-2.2v-1.9h2.2v-4.1h2.4v4.1
		h2.6v1.9h-2.6V495z"/>
	<path class="st1" d="M66.8,498.6v-20h2.7v20H66.8z"/>
	<path class="st1" d="M84,496.9c-0.6,0.8-1.2,1.3-2,1.7s-1.6,0.6-2.6,0.6c-2,0-3.5-0.7-4.7-2.1c-1.2-1.4-1.8-3.3-1.8-5.6
		c0-2.3,0.6-4.2,1.8-5.6c1.2-1.4,2.8-2.1,4.8-2.1c1,0,1.8,0.2,2.5,0.5c0.7,0.4,1.4,1,2,1.8v-1.8h2.4v14.2c0,2.2-0.5,3.9-1.6,4.9
		c-1.1,1-2.8,1.5-5.2,1.5c-1.9,0-3.4-0.4-4.5-1.1c-1.1-0.8-1.6-1.8-1.6-3.1v-0.1h2.4v0.1c0,0.8,0.3,1.3,1,1.7
		c0.6,0.4,1.6,0.6,2.9,0.6c1.5,0,2.6-0.3,3.3-0.9c0.7-0.6,1-1.6,1-2.9V496.9z M79.7,485.8c-1.4,0-2.4,0.5-3.2,1.4
		c-0.7,1-1.1,2.3-1.1,4.1c0,1.7,0.4,3.1,1.1,4.1c0.8,1,1.8,1.5,3.2,1.5c1.5,0,2.6-0.4,3.3-1.3c0.7-0.9,1.1-2.3,1.1-4.1
		c0-1.9-0.4-3.3-1.1-4.2C82.3,486.3,81.2,485.8,79.7,485.8z"/>
	<path class="st1" d="M100.3,498.6v-8.9c0-1.4-0.2-2.4-0.7-3c-0.4-0.5-1.2-0.8-2.3-0.8c-1.4,0-2.4,0.4-3.2,1.2
		c-0.8,0.8-1.1,1.9-1.1,3.3v8.3h-2.4v-14.5H93v2.1c0.6-0.8,1.2-1.5,2-1.9c0.8-0.4,1.7-0.6,2.7-0.6c1.1,0,2,0.2,2.8,0.5
		c0.8,0.3,1.3,0.8,1.7,1.5c0.2,0.4,0.4,0.8,0.5,1.2c0.1,0.5,0.1,1.2,0.1,2.3v0.7v8.7H100.3z"/>
	<path class="st1" d="M107,481.4v-2.8h2.4v2.8H107z M107,498.6v-14.5h2.4v14.5H107z"/>
	<path class="st1" d="M116.6,495c0,0.7,0.1,1.1,0.3,1.3c0.2,0.2,0.5,0.3,1,0.3c0.1,0,0.3,0,0.5,0s0.5,0,0.8-0.1v2.1
		c-0.4,0.1-0.8,0.1-1.1,0.2c-0.3,0-0.6,0.1-0.9,0.1c-1.1,0-2-0.2-2.4-0.7c-0.5-0.4-0.7-1.2-0.7-2.4v-9.8H112v-1.9h2.2v-4.1h2.4v4.1
		h2.6v1.9h-2.6V495z"/>
	<path class="st1" d="M122.1,481.4v-2.8h2.4v2.8H122.1z M122.1,498.6v-14.5h2.4v14.5H122.1z"/>
	<path class="st1" d="M127,491.4c0-2.4,0.6-4.3,1.8-5.7c1.2-1.4,2.9-2,5.1-2c2.2,0,3.9,0.7,5.1,2c1.2,1.4,1.8,3.2,1.8,5.7
		c0,2.4-0.6,4.3-1.8,5.7c-1.2,1.4-2.9,2-5.1,2c-2.2,0-3.9-0.7-5.1-2C127.6,495.7,127,493.8,127,491.4z M129.5,491.4
		c0,1.8,0.4,3.2,1.2,4.1s1.9,1.4,3.3,1.4c1.4,0,2.5-0.5,3.3-1.4s1.1-2.3,1.1-4.1c0-1.8-0.4-3.2-1.1-4.1s-1.9-1.4-3.3-1.4
		c-1.4,0-2.6,0.5-3.3,1.4C129.9,488.2,129.5,489.6,129.5,491.4z"/>
	<path class="st1" d="M153.5,498.6v-8.9c0-1.4-0.2-2.4-0.7-3c-0.4-0.5-1.2-0.8-2.3-0.8c-1.4,0-2.4,0.4-3.2,1.2
		c-0.8,0.8-1.1,1.9-1.1,3.3v8.3h-2.4v-14.5h2.3v2.1c0.6-0.8,1.2-1.5,2-1.9c0.8-0.4,1.7-0.6,2.7-0.6c1.1,0,2,0.2,2.8,0.5
		c0.8,0.3,1.3,0.8,1.7,1.5c0.2,0.4,0.4,0.8,0.5,1.2c0.1,0.5,0.1,1.2,0.1,2.3v0.7v8.7H153.5z"/>
	<path class="st1" d="M172.5,498.6v-17.6h-6.3v-2.4h15.3v2.4h-6.3v17.6H172.5z"/>
	<path class="st1" d="M190.1,494h2.4c-0.3,1.6-1,2.9-2.1,3.8c-1.1,0.9-2.6,1.4-4.3,1.4c-2,0-3.6-0.7-4.8-2c-1.2-1.4-1.7-3.2-1.7-5.5
		c0-2.5,0.6-4.4,1.7-5.8c1.2-1.4,2.8-2.1,4.8-2.1c2.1,0,3.7,0.6,4.8,1.9c1.1,1.3,1.7,3.1,1.7,5.4c0,0.3,0,0.5,0,0.7
		c0,0.1,0,0.3,0,0.4h-10.5c0,1.5,0.4,2.7,1.1,3.5c0.7,0.8,1.7,1.3,3.1,1.3c1,0,1.8-0.3,2.5-0.8C189.5,495.6,189.9,494.9,190.1,494z
		 M182.2,490.1h8c0-1.4-0.4-2.4-1-3.1c-0.7-0.7-1.6-1.1-2.9-1.1c-1.2,0-2.1,0.4-2.8,1.1C182.7,487.6,182.3,488.7,182.2,490.1z"/>
	<path class="st1" d="M205.2,488.9c-0.1-1-0.4-1.8-1.1-2.3s-1.5-0.8-2.7-0.8c-1.3,0-2.3,0.5-3.1,1.4c-0.7,0.9-1.1,2.3-1.1,4.1
		c0,1.8,0.3,3.1,1,4.1c0.7,1,1.7,1.4,2.9,1.4c1.1,0,2.1-0.3,2.7-0.9c0.7-0.6,1.1-1.4,1.3-2.6h2.3c-0.1,1.8-0.8,3.2-1.9,4.2
		c-1.1,1-2.6,1.5-4.6,1.5c-2,0-3.6-0.7-4.7-2c-1.1-1.4-1.7-3.2-1.7-5.6c0-2.4,0.6-4.3,1.8-5.7c1.2-1.4,2.8-2.1,4.9-2.1
		c1.8,0,3.3,0.5,4.4,1.4c1.1,1,1.7,2.2,1.8,3.9H205.2z"/>
	<path class="st1" d="M220.4,498.6v-8.9c0-1.4-0.2-2.4-0.7-3c-0.4-0.5-1.2-0.8-2.3-0.8c-1.3,0-2.4,0.4-3.1,1.1
		c-0.8,0.7-1.2,1.8-1.2,3v8.6h-2.4v-20h2.4v7.5c0.4-0.8,1.1-1.4,1.8-1.8c0.8-0.4,1.7-0.6,2.7-0.6c1.1,0,2,0.2,2.8,0.5
		c0.8,0.3,1.3,0.8,1.7,1.5c0.2,0.4,0.4,0.8,0.5,1.2c0.1,0.5,0.1,1.2,0.1,2.3v0.7v8.7H220.4z"/>
	<path class="st1" d="M236.7,498.6v-8.9c0-1.4-0.2-2.4-0.7-3c-0.4-0.5-1.2-0.8-2.3-0.8c-1.4,0-2.4,0.4-3.2,1.2
		c-0.8,0.8-1.1,1.9-1.1,3.3v8.3H227v-14.5h2.3v2.1c0.6-0.8,1.2-1.5,2-1.9c0.8-0.4,1.7-0.6,2.7-0.6c1.1,0,2,0.2,2.8,0.5
		c0.8,0.3,1.3,0.8,1.7,1.5c0.2,0.4,0.4,0.8,0.5,1.2c0.1,0.5,0.1,1.2,0.1,2.3v0.7v8.7H236.7z"/>
	<path class="st1" d="M241.5,491.4c0-2.4,0.6-4.3,1.8-5.7c1.2-1.4,2.9-2,5.1-2c2.2,0,3.9,0.7,5.1,2c1.2,1.4,1.8,3.2,1.8,5.7
		c0,2.4-0.6,4.3-1.8,5.7c-1.2,1.4-2.9,2-5.1,2c-2.2,0-3.9-0.7-5.1-2C242.2,495.7,241.5,493.8,241.5,491.4z M244,491.4
		c0,1.8,0.4,3.2,1.2,4.1s1.9,1.4,3.3,1.4c1.4,0,2.5-0.5,3.3-1.4c0.8-1,1.1-2.3,1.1-4.1c0-1.8-0.4-3.2-1.1-4.1
		c-0.8-1-1.9-1.4-3.3-1.4c-1.4,0-2.6,0.5-3.3,1.4C244.4,488.2,244,489.6,244,491.4z"/>
	<path class="st1" d="M258.5,498.6v-20h2.5v20H258.5z"/>
	<path class="st1" d="M264,491.4c0-2.4,0.6-4.3,1.8-5.7c1.2-1.4,2.9-2,5.1-2c2.2,0,3.9,0.7,5.1,2c1.2,1.4,1.8,3.2,1.8,5.7
		c0,2.4-0.6,4.3-1.8,5.7c-1.2,1.4-2.9,2-5.1,2c-2.2,0-3.9-0.7-5.1-2C264.6,495.7,264,493.8,264,491.4z M266.5,491.4
		c0,1.8,0.4,3.2,1.2,4.1c0.8,1,1.9,1.4,3.3,1.4c1.4,0,2.5-0.5,3.3-1.4s1.1-2.3,1.1-4.1c0-1.8-0.4-3.2-1.1-4.1s-1.9-1.4-3.3-1.4
		c-1.4,0-2.6,0.5-3.3,1.4C266.8,488.2,266.5,489.6,266.5,491.4z"/>
	<path class="st1" d="M291.3,496.9c-0.6,0.8-1.2,1.3-2,1.7s-1.6,0.6-2.6,0.6c-2,0-3.5-0.7-4.7-2.1c-1.2-1.4-1.8-3.3-1.8-5.6
		c0-2.3,0.6-4.2,1.8-5.6c1.2-1.4,2.8-2.1,4.8-2.1c1,0,1.8,0.2,2.5,0.5c0.7,0.4,1.4,1,2,1.8v-1.8h2.4v14.2c0,2.2-0.5,3.9-1.6,4.9
		c-1.1,1-2.8,1.5-5.2,1.5c-1.9,0-3.4-0.4-4.5-1.1c-1.1-0.8-1.6-1.8-1.6-3.1v-0.1h2.4v0.1c0,0.8,0.3,1.3,1,1.7
		c0.6,0.4,1.6,0.6,2.9,0.6c1.5,0,2.6-0.3,3.3-0.9c0.7-0.6,1-1.6,1-2.9V496.9z M287,485.8c-1.4,0-2.4,0.5-3.2,1.4
		c-0.7,1-1.1,2.3-1.1,4.1c0,1.7,0.4,3.1,1.1,4.1c0.8,1,1.8,1.5,3.2,1.5c1.5,0,2.6-0.4,3.3-1.3c0.7-0.9,1.1-2.3,1.1-4.1
		c0-1.9-0.4-3.3-1.1-4.2C289.5,486.3,288.4,485.8,287,485.8z"/>
	<path class="st1" d="M307.1,484.1h2.7l-6.1,16.8c-0.6,1.6-1.2,2.6-1.7,3.1c-0.6,0.5-1.4,0.7-2.6,0.7c-0.2,0-0.5,0-0.7-0.1
		c-0.2,0-0.5-0.1-0.7-0.2v-2.3c0.2,0.1,0.5,0.1,0.7,0.2c0.2,0,0.5,0.1,0.7,0.1c0.5,0,0.9-0.1,1.1-0.3c0.3-0.2,0.5-0.5,0.7-0.9
		l0.6-1.7l-5.5-15.4h2.7l4,11.7L307.1,484.1z"/>
</g>
<g>
	<path class="st2" d="M-13.4,450c-4.7,0-9.1-0.6-13.2-1.8c-4.1-1.2-7.5-2.6-10.3-4.2l-3.7,3.8h-4.6L-46,420h4.7c1,2.6,2.4,5.4,4,8.4
		c1.6,2.9,3.5,5.6,5.6,7.9c2.2,2.4,4.7,4.4,7.4,5.9c2.7,1.5,5.9,2.3,9.6,2.3c4.9,0,8.7-1.2,11.3-3.6c2.6-2.4,3.9-5.4,3.9-9.1
		c0-3-1.1-5.5-3.3-7.6c-2.2-2-5.7-3.8-10.3-5.3c-3-1-5.8-1.9-8.4-2.7c-2.6-0.8-4.9-1.7-7.2-2.6c-5.2-2.1-9-5-11.5-8.9
		c-2.5-3.8-3.8-8.1-3.8-12.9c0-3,0.7-5.9,2-8.7c1.3-2.8,3.2-5.3,5.7-7.5c2.4-2.1,5.4-3.7,9.2-5.1c3.7-1.3,7.8-2,12.2-2
		c4.3,0,8.3,0.6,12,1.8c3.7,1.2,6.7,2.4,8.8,3.6l3.3-3.3h4.7l0.4,26.3H9.6c-1.1-2.8-2.4-5.7-3.8-8.7c-1.5-3-3-5.4-4.6-7.4
		c-1.8-2.1-3.8-3.8-6.1-5c-2.3-1.3-5-1.9-8.1-1.9c-3.9,0-7.1,1.1-9.6,3.3c-2.5,2.2-3.7,4.9-3.7,8.2c0,3.1,1.1,5.6,3.2,7.6
		c2.2,2,5.5,3.7,10.1,5.2c2.7,0.9,5.4,1.8,8.2,2.7s5.3,1.8,7.4,2.6c5.2,2,9.2,4.8,12,8.4s4.1,8,4.1,13.3c0,3.3-0.8,6.6-2.3,9.7
		c-1.6,3.1-3.7,5.7-6.3,7.8c-2.9,2.3-6.2,4-10,5.3C-4,449.4-8.4,450-13.4,450z"/>
	<path class="st2" d="M49,404.9c0,2.6-1,4.9-2.9,6.8c-1.9,1.9-4.2,2.9-6.9,2.9c-2.7,0-5-1-6.9-2.9c-1.9-1.9-2.9-4.2-2.9-6.8
		c0-2.7,1-4.9,2.9-6.9c1.9-1.9,4.3-2.9,6.9-2.9c2.7,0,4.9,1,6.9,2.9C48,400,49,402.3,49,404.9z M49,436.4c0,2.6-1,4.9-2.9,6.8
		c-1.9,1.9-4.2,2.9-6.9,2.9c-2.7,0-5-1-6.9-2.9c-1.9-1.9-2.9-4.2-2.9-6.8c0-2.7,1-4.9,2.9-6.9c1.9-1.9,4.3-2.9,6.9-2.9
		c2.7,0,4.9,1,6.9,2.9C48,431.5,49,433.8,49,436.4z"/>
	<path class="st2" d="M119.7,400.1h-11.9c1.4,1.6,2.5,3.3,3.2,5c0.7,1.8,1.1,3.6,1.1,5.5c0,2.5-0.7,4.8-2,7c-1.3,2.2-3.1,4-5.3,5.3
		c-2.2,1.4-4.8,2.5-7.8,3.3c-3,0.8-6.2,1.2-9.7,1.2h-8.8c-0.4,0.3-0.9,0.8-1.4,1.6c-0.5,0.7-0.8,1.4-0.8,2c0,1.6,0.6,2.7,1.9,3.3
		c1.3,0.6,3.6,1,6.9,1c3.3,0.1,6.6,0.2,10,0.4c3.4,0.2,5.8,0.3,7.2,0.4c2.1,0.1,4.2,0.5,6.2,1.3c2.1,0.7,3.9,1.7,5.4,2.9
		c1.7,1.3,3,2.9,4.1,4.9c1.1,2,1.6,4.2,1.6,6.8c0,2.7-0.7,5.3-2,7.8c-1.3,2.4-3.3,4.5-6,6.3c-2.9,1.8-6.3,3.3-10.3,4.3
		c-4,1-8.9,1.5-14.8,1.5c-9.5,0-16.7-1.2-21.7-3.5c-5-2.3-7.4-5.8-7.4-10.4c0-2.9,1.3-5.2,4-7.1c2.7-1.8,6.8-2.9,12.5-3v-0.7
		c-3.3-1.1-5.9-2.6-7.8-4.5c-1.9-1.9-2.8-4-2.8-6.5c0-1.5,0.4-2.8,1.1-3.9c0.7-1.1,1.7-2,2.8-2.8c1-0.7,2.2-1.3,3.7-1.8
		c1.4-0.5,2.7-0.9,3.6-1.2v-0.6c-4.9-1.8-8.5-4-10.8-6.6c-2.3-2.6-3.4-5.8-3.4-9.5c0-5.3,2.5-9.6,7.4-12.8s11.1-4.8,18.6-4.8
		c2.5,0,4.8,0.2,7.1,0.6s4,0.8,5.2,1.1h21.1V400.1z M103.3,456.1c0-1.2-0.3-2.5-1-3.7c-0.7-1.2-2.2-2.2-4.6-3
		c-1.3-0.2-3.4-0.4-6.4-0.4c-3-0.1-7.1-0.1-12.3-0.1c-1.3,1.1-2.3,2.4-3.2,3.9c-0.8,1.5-1.3,3.3-1.3,5.4c0,0.9,0.3,1.9,0.8,3
		c0.5,1.1,1.3,2.1,2.4,3c1.3,1,2.7,1.9,4.2,2.5c1.6,0.6,3.9,0.9,7,0.9c4.7,0,8.2-0.9,10.7-2.7C102.1,463,103.3,460.1,103.3,456.1z
		 M94.2,410.4c0-4.2-0.7-7.6-2-10c-1.3-2.5-3.4-3.7-6.2-3.7c-1.4,0-2.6,0.3-3.7,1c-1.1,0.7-1.9,1.6-2.6,2.9c-0.6,1.2-1,2.7-1.3,4.3
		c-0.2,1.6-0.3,3.3-0.3,5.1c0,3.9,0.7,7.2,2.1,9.7c1.4,2.5,3.3,3.8,5.9,3.8c2.6,0,4.6-1.1,6-3.4C93.5,417.8,94.2,414.6,94.2,410.4z"
		/>
	<path class="st2" d="M199.1,447.9h-32.6v-4c0.7-0.1,1.5-0.2,2.5-0.3c1-0.1,1.7-0.3,2.2-0.5c0.8-0.4,1.3-1,1.6-1.7
		c0.3-0.8,0.5-1.9,0.5-3.4v-25.4c0-3.7-0.7-6.5-2-8.3c-1.4-1.9-3.4-2.8-6-2.8c-1.5,0-2.8,0.2-4.1,0.7c-1.3,0.4-2.5,1.1-3.7,1.9
		c-1.1,0.7-1.9,1.5-2.5,2.2c-0.6,0.8-1.2,1.4-1.6,2v29.1c0,1.3,0.2,2.3,0.5,3.2c0.4,0.9,1,1.5,1.8,1.9c0.6,0.3,1.3,0.6,2.2,0.9
		c0.9,0.3,1.7,0.4,2.6,0.5v4h-33v-4c0.9-0.1,1.8-0.2,2.7-0.3c0.9-0.1,1.7-0.3,2.4-0.5c1.2-0.4,2-1,2.4-1.8c0.4-0.8,0.7-1.9,0.7-3.3
		v-31.6c0-1.1-0.3-2.2-0.9-3.3c-0.6-1.1-1.3-2-2.3-2.7c-0.7-0.4-1.5-0.8-2.5-1.1s-2.1-0.5-3.3-0.6v-4l25.9-1.4l0.8,0.8v7.9h0.2
		c1-0.9,2.2-2,3.7-3.3c1.4-1.3,2.8-2.3,4-3.1c1.3-0.9,3.1-1.6,5.3-2.2c2.2-0.6,4.5-0.9,6.9-0.9c5.9,0,10.3,1.7,13.3,5
		s4.4,7.8,4.4,13.3v26.6c0,1.3,0.2,2.4,0.6,3.2c0.4,0.8,1.1,1.4,2.2,1.9c0.6,0.3,1.3,0.5,2.1,0.8c0.9,0.3,1.8,0.4,2.9,0.5V447.9z"/>
	<path class="st2" d="M225.1,404.9c0,2.6-1,4.9-2.9,6.8c-1.9,1.9-4.2,2.9-6.9,2.9c-2.7,0-5-1-6.9-2.9c-1.9-1.9-2.9-4.2-2.9-6.8
		c0-2.7,1-4.9,2.9-6.9c1.9-1.9,4.3-2.9,6.9-2.9c2.7,0,4.9,1,6.9,2.9C224.1,400,225.1,402.3,225.1,404.9z M225.1,436.4
		c0,2.6-1,4.9-2.9,6.8c-1.9,1.9-4.2,2.9-6.9,2.9c-2.7,0-5-1-6.9-2.9c-1.9-1.9-2.9-4.2-2.9-6.8c0-2.7,1-4.9,2.9-6.9
		c1.9-1.9,4.3-2.9,6.9-2.9c2.7,0,4.9,1,6.9,2.9C224.1,431.5,225.1,433.8,225.1,436.4z"/>
	<path class="st2" d="M277.4,445.4c-2.3,1-4.8,1.9-7.4,2.7c-2.6,0.8-5.9,1.2-9.7,1.2c-5.6,0-9.8-1.4-12.6-4.1
		c-2.7-2.7-4.1-6.7-4.1-11.8v-33.3h-9.8v-5.9h10v-16.4h17.6v16.4h15.2v5.9h-15.1v29.7c0,4.2,0.6,7.2,1.8,9c1.2,1.8,3.3,2.7,6.3,2.7
		c1,0,2.3-0.1,4.1-0.2c1.7-0.1,3-0.3,3.6-0.5V445.4z"/>
	<path class="st2" d="M339.6,434.9c-1.3,2.1-2.8,4-4.6,5.8c-1.8,1.8-3.8,3.4-6.1,4.7c-2.4,1.4-4.9,2.4-7.4,3.1
		c-2.5,0.7-5.3,1.1-8.5,1.1c-5.4,0-10-0.8-13.9-2.3c-3.9-1.5-7.1-3.6-9.6-6.1c-2.5-2.6-4.4-5.6-5.7-9.1c-1.2-3.5-1.9-7.3-1.9-11.4
		c0-3.7,0.7-7.2,2-10.6c1.4-3.4,3.3-6.4,5.8-9c2.5-2.6,5.6-4.6,9.3-6.2c3.7-1.6,7.9-2.4,12.6-2.4c5.1,0,9.2,0.6,12.5,1.8
		c3.3,1.2,6,2.9,8.1,5.1c2.1,2.1,3.6,4.5,4.5,7.3c0.9,2.8,1.4,5.7,1.4,8.8v3.5h-36.7c0,7.4,1.4,13.1,4.3,16.9
		c2.9,3.9,7.4,5.8,13.6,5.8c3.4,0,6.5-0.9,9.2-2.8c2.7-1.9,5-4.2,6.9-7.1L339.6,434.9z M318.8,414.3c0-2.2-0.1-4.4-0.3-6.7
		c-0.2-2.3-0.6-4.1-1.1-5.6c-0.6-1.7-1.5-3-2.5-3.9c-1.1-0.9-2.4-1.3-4-1.3c-2.8,0-5,1.4-6.7,4.2c-1.7,2.8-2.6,7.3-2.7,13.4
		L318.8,414.3z"/>
</g>
<g>
	<path class="st0" d="M502.7,50.9c0.7-0.8,1.1-1.9,1.1-2.9v-9L467,29.1v12.3L502.7,50.9z"/>
	<path class="st1" d="M501.4,32.1c2.7-0.7,4.9-3.5,4.9-6.2V13.6L472,22.8c-2.7,0.7-4.9,3.5-4.9,6.2v12.3L501.4,32.1z"/>
	<polygon class="st2" points="489.9,35.2 467,29.1 467,41.3 	"/>
	<path class="st3" d="M500.2,52.5c2-0.5,3.6-2.6,3.6-4.6v-9l-3.6,1l-22.2,6c-2,0.5-3.6,2.6-3.6,4.6v9L500.2,52.5z"/>
	<path class="st4" d="M481,45.1l21.8,5.8c0.3-0.3,0.5-0.7,0.7-1c0,0,0,0,0,0c0.1-0.1,0.1-0.2,0.1-0.3c0,0,0,0,0,0
		c0-0.1,0.1-0.2,0.1-0.3c0,0,0,0,0-0.1c0-0.1,0.1-0.2,0.1-0.3c0,0,0-0.1,0-0.1c0-0.1,0-0.2,0-0.3c0,0,0-0.1,0-0.1c0-0.1,0-0.3,0-0.4
		v-9l-3.6,1L481,45.1z"/>
	<path class="st5" d="M470.6,4.1c-0.7,0.8-1.1,1.9-1.1,2.9v9l36.8,9.9V13.6L470.6,4.1z"/>
	<polygon class="st2" points="483.4,19.8 506.3,25.9 506.3,13.6 	"/>
	<path class="st6" d="M473.1,2.4c-2,0.5-3.6,2.6-3.6,4.6v9l3.6-1l22.2-6c2-0.5,3.6-2.6,3.6-4.6v-9L473.1,2.4z"/>
	<path class="st7" d="M492.4,9.9l-21.8-5.8c-0.3,0.3-0.5,0.7-0.7,1c0,0,0,0,0,0c-0.1,0.1-0.1,0.2-0.1,0.3c0,0,0,0,0,0
		c0,0.1-0.1,0.2-0.1,0.3c0,0,0,0,0,0.1c0,0.1-0.1,0.2-0.1,0.3c0,0,0,0.1,0,0.1c0,0.1,0,0.2,0,0.3c0,0,0,0.1,0,0.1c0,0.1,0,0.3,0,0.4
		v9l3.6-1L492.4,9.9z"/>
</g>
<g>
	<path class="st1" d="M534.1,51.5h1.1c0,0.6,0.2,1.1,0.6,1.5c0.4,0.4,0.9,0.6,1.6,0.6c0.7,0,1.2-0.1,1.6-0.4
		c0.4-0.3,0.6-0.7,0.6-1.1c0-0.7-0.7-1.2-2.2-1.5c-0.1,0-0.2,0-0.2,0c-1.2-0.3-1.9-0.6-2.3-0.9c-0.4-0.3-0.6-0.8-0.6-1.5
		c0-0.8,0.3-1.4,0.8-1.9c0.6-0.5,1.3-0.7,2.2-0.7c1,0,1.7,0.2,2.3,0.7c0.5,0.5,0.8,1.2,0.8,2l-1.1,0c0-0.6-0.2-1-0.6-1.3
		c-0.4-0.3-0.8-0.5-1.5-0.5c-0.6,0-1,0.1-1.4,0.4c-0.3,0.3-0.5,0.6-0.5,1c0,0.7,0.7,1.2,2.1,1.5c0.2,0.1,0.4,0.1,0.5,0.1l0.1,0
		c0.9,0.2,1.5,0.5,1.9,0.7c0.2,0.2,0.4,0.4,0.5,0.7c0.1,0.3,0.2,0.6,0.2,0.9c0,0.8-0.3,1.5-0.9,2s-1.4,0.7-2.4,0.7
		c-1,0-1.9-0.3-2.4-0.8C534.5,53.2,534.1,52.4,534.1,51.5z"/>
	<path class="st1" d="M549.5,54.3v-3.9c0-0.6-0.1-1.1-0.3-1.3c-0.2-0.2-0.5-0.3-0.9-0.3c-0.5,0-0.9,0.2-1.2,0.5
		c-0.3,0.3-0.4,0.8-0.4,1.3v3.7h-1.1v-3.9c0-0.6-0.1-1.1-0.3-1.3c-0.2-0.2-0.5-0.3-0.9-0.3c-0.5,0-0.9,0.2-1.2,0.5
		c-0.3,0.3-0.4,0.8-0.4,1.3v3.7h-1.1V48h1v0.9c0.2-0.4,0.5-0.6,0.8-0.8c0.3-0.2,0.7-0.3,1.1-0.3c0.4,0,0.7,0.1,1,0.2
		c0.3,0.2,0.5,0.4,0.7,0.7c0.3-0.3,0.6-0.6,0.9-0.7c0.3-0.2,0.7-0.2,1.1-0.2c0.4,0,0.8,0.1,1.1,0.2c0.3,0.1,0.5,0.4,0.7,0.6
		c0.1,0.2,0.2,0.4,0.2,0.6c0,0.2,0.1,0.6,0.1,1.1v0.2v3.8H549.5z"/>
	<path class="st1" d="M555.8,53.5c-0.3,0.3-0.7,0.6-1,0.8c-0.4,0.2-0.8,0.3-1.2,0.3c-0.6,0-1.1-0.2-1.5-0.5
		c-0.4-0.3-0.5-0.8-0.5-1.4c0-0.6,0.2-1,0.5-1.3c0.4-0.3,0.9-0.5,1.6-0.6c0.2,0,0.4,0,0.7-0.1c0.5-0.1,0.9-0.1,1-0.2
		c0.1,0,0.2-0.1,0.2-0.2c0-0.1,0.1-0.2,0.1-0.5c0-0.3-0.1-0.6-0.4-0.7c-0.2-0.2-0.6-0.2-1.1-0.2c-0.5,0-0.9,0.1-1.1,0.3
		c-0.2,0.2-0.4,0.5-0.4,0.9h-1v0c0-0.6,0.2-1.1,0.7-1.5s1.1-0.6,1.8-0.6c0.8,0,1.5,0.2,1.9,0.5c0.4,0.3,0.6,0.8,0.6,1.5v3.1
		c0,0.3,0,0.4,0.1,0.5c0.1,0.1,0.2,0.1,0.3,0.1c0,0,0.1,0,0.1,0c0,0,0.1,0,0.2,0v0.8c-0.1,0-0.2,0.1-0.3,0.1c-0.1,0-0.2,0-0.3,0
		c-0.4,0-0.6-0.1-0.8-0.2C555.9,54,555.8,53.8,555.8,53.5L555.8,53.5z M555.7,51.1c-0.3,0.2-0.8,0.3-1.4,0.4c-0.2,0-0.4,0.1-0.5,0.1
		c-0.4,0.1-0.7,0.2-0.8,0.3c-0.2,0.2-0.3,0.4-0.3,0.7s0.1,0.6,0.3,0.7c0.2,0.2,0.5,0.3,0.8,0.3c0.6,0,1-0.1,1.4-0.4
		c0.4-0.3,0.5-0.7,0.5-1.1V51.1z"/>
	<path class="st1" d="M558.7,54.3V48h1v1.1c0.2-0.4,0.4-0.7,0.7-0.9s0.6-0.3,1.1-0.3c0.1,0,0.1,0,0.2,0c0,0,0.1,0,0.1,0V49
		c0,0-0.1,0-0.1,0c0,0-0.1,0-0.2,0c-0.6,0-1,0.2-1.3,0.5c-0.3,0.3-0.4,0.8-0.4,1.3v3.5H558.7z"/>
	<path class="st1" d="M564.4,52.7c0,0.3,0,0.5,0.1,0.6c0.1,0.1,0.2,0.1,0.4,0.1c0.1,0,0.1,0,0.2,0s0.2,0,0.3,0v0.9
		c-0.2,0-0.3,0.1-0.5,0.1c-0.1,0-0.3,0-0.4,0c-0.5,0-0.8-0.1-1-0.3c-0.2-0.2-0.3-0.5-0.3-1v-4.2h-0.9V48h0.9v-1.8h1.1V48h1.1v0.8
		h-1.1V52.7z"/>
	<path class="st1" d="M570.4,54.3v-8.6h1.2v8.6H570.4z"/>
	<path class="st1" d="M577.9,53.5c-0.2,0.3-0.5,0.6-0.9,0.7c-0.3,0.2-0.7,0.2-1.1,0.2c-0.8,0-1.5-0.3-2-0.9
		c-0.5-0.6-0.8-1.4-0.8-2.4c0-1,0.3-1.8,0.8-2.4c0.5-0.6,1.2-0.9,2.1-0.9c0.4,0,0.8,0.1,1.1,0.2c0.3,0.2,0.6,0.4,0.9,0.8V48h1v6.1
		c0,1-0.2,1.7-0.7,2.1c-0.5,0.4-1.2,0.6-2.2,0.6c-0.8,0-1.5-0.2-2-0.5c-0.5-0.3-0.7-0.8-0.7-1.3v0h1v0c0,0.3,0.1,0.6,0.4,0.7
		c0.3,0.2,0.7,0.2,1.2,0.2c0.7,0,1.1-0.1,1.4-0.4c0.3-0.3,0.4-0.7,0.4-1.3V53.5z M576,48.8c-0.6,0-1.1,0.2-1.4,0.6
		c-0.3,0.4-0.5,1-0.5,1.8c0,0.8,0.2,1.3,0.5,1.8c0.3,0.4,0.8,0.6,1.4,0.6c0.6,0,1.1-0.2,1.4-0.6c0.3-0.4,0.5-1,0.5-1.8
		c0-0.8-0.2-1.4-0.5-1.8C577.1,49,576.7,48.8,576,48.8z"/>
	<path class="st1" d="M584.9,54.3v-3.9c0-0.6-0.1-1-0.3-1.3c-0.2-0.2-0.5-0.4-1-0.4c-0.6,0-1,0.2-1.4,0.5c-0.3,0.3-0.5,0.8-0.5,1.4
		v3.6h-1.1V48h1v0.9c0.2-0.4,0.5-0.6,0.9-0.8c0.3-0.2,0.7-0.3,1.2-0.3c0.5,0,0.9,0.1,1.2,0.2c0.3,0.1,0.6,0.4,0.8,0.6
		c0.1,0.2,0.2,0.3,0.2,0.5c0,0.2,0.1,0.5,0.1,1v0.3v3.8H584.9z"/>
	<path class="st1" d="M587.8,46.9v-1.2h1.1v1.2H587.8z M587.8,54.3V48h1.1v6.3H587.8z"/>
	<path class="st1" d="M592,52.7c0,0.3,0,0.5,0.1,0.6c0.1,0.1,0.2,0.1,0.4,0.1c0.1,0,0.1,0,0.2,0s0.2,0,0.3,0v0.9
		c-0.2,0-0.3,0.1-0.5,0.1c-0.1,0-0.3,0-0.4,0c-0.5,0-0.8-0.1-1-0.3c-0.2-0.2-0.3-0.5-0.3-1v-4.2H590V48h0.9v-1.8h1.1V48h1.1v0.8H592
		V52.7z"/>
	<path class="st1" d="M594.3,46.9v-1.2h1.1v1.2H594.3z M594.3,54.3V48h1.1v6.3H594.3z"/>
	<path class="st1" d="M596.4,51.2c0-1.1,0.3-1.9,0.8-2.5c0.5-0.6,1.3-0.9,2.2-0.9c1,0,1.7,0.3,2.2,0.9c0.5,0.6,0.8,1.4,0.8,2.5
		s-0.3,1.9-0.8,2.5c-0.5,0.6-1.3,0.9-2.2,0.9c-1,0-1.7-0.3-2.2-0.9C596.7,53,596.4,52.2,596.4,51.2z M597.5,51.2
		c0,0.8,0.2,1.4,0.5,1.8c0.3,0.4,0.8,0.6,1.4,0.6c0.6,0,1.1-0.2,1.4-0.6c0.3-0.4,0.5-1,0.5-1.8c0-0.8-0.2-1.4-0.5-1.8
		c-0.3-0.4-0.8-0.6-1.4-0.6c-0.6,0-1.1,0.2-1.4,0.6C597.7,49.8,597.5,50.4,597.5,51.2z"/>
	<path class="st1" d="M607.9,54.3v-3.9c0-0.6-0.1-1-0.3-1.3c-0.2-0.2-0.5-0.4-1-0.4c-0.6,0-1,0.2-1.4,0.5c-0.3,0.3-0.5,0.8-0.5,1.4
		v3.6h-1.1V48h1v0.9c0.2-0.4,0.5-0.6,0.9-0.8c0.3-0.2,0.7-0.3,1.2-0.3c0.5,0,0.9,0.1,1.2,0.2c0.3,0.1,0.6,0.4,0.8,0.6
		c0.1,0.2,0.2,0.3,0.2,0.5c0,0.2,0.1,0.5,0.1,1v0.3v3.8H607.9z"/>
	<path class="st1" d="M616.1,54.3v-7.6h-2.7v-1h6.6v1h-2.7v7.6H616.1z"/>
	<path class="st1" d="M623.7,52.3h1c-0.1,0.7-0.4,1.2-0.9,1.6c-0.5,0.4-1.1,0.6-1.8,0.6c-0.9,0-1.6-0.3-2.1-0.9
		c-0.5-0.6-0.8-1.4-0.8-2.4c0-1.1,0.3-1.9,0.8-2.5c0.5-0.6,1.2-0.9,2.1-0.9c0.9,0,1.6,0.3,2.1,0.8c0.5,0.6,0.7,1.3,0.7,2.3
		c0,0.1,0,0.2,0,0.3c0,0.1,0,0.1,0,0.2h-4.5c0,0.7,0.2,1.2,0.5,1.5c0.3,0.4,0.8,0.5,1.3,0.5c0.4,0,0.8-0.1,1.1-0.3
		S623.7,52.7,623.7,52.3z M620.3,50.6h3.4c0-0.6-0.2-1-0.4-1.4c-0.3-0.3-0.7-0.5-1.2-0.5c-0.5,0-0.9,0.2-1.2,0.5
		C620.5,49.5,620.4,50,620.3,50.6z"/>
	<path class="st1" d="M630.2,50.1c0-0.4-0.2-0.8-0.5-1c-0.3-0.2-0.7-0.3-1.1-0.3c-0.6,0-1,0.2-1.3,0.6c-0.3,0.4-0.5,1-0.5,1.8
		c0,0.8,0.1,1.4,0.4,1.8c0.3,0.4,0.7,0.6,1.3,0.6c0.5,0,0.9-0.1,1.2-0.4c0.3-0.3,0.5-0.6,0.5-1.1h1c-0.1,0.8-0.3,1.4-0.8,1.8
		c-0.5,0.4-1.1,0.6-2,0.6c-0.9,0-1.5-0.3-2-0.9c-0.5-0.6-0.7-1.4-0.7-2.4c0-1.1,0.3-1.9,0.8-2.5s1.2-0.9,2.1-0.9
		c0.8,0,1.4,0.2,1.9,0.6c0.5,0.4,0.7,1,0.8,1.7H630.2z"/>
	<path class="st1" d="M636.8,54.3v-3.9c0-0.6-0.1-1-0.3-1.3c-0.2-0.2-0.5-0.4-1-0.4c-0.6,0-1,0.2-1.4,0.5c-0.3,0.3-0.5,0.8-0.5,1.3
		v3.7h-1.1v-8.6h1.1v3.2c0.2-0.3,0.5-0.6,0.8-0.8c0.3-0.2,0.7-0.3,1.2-0.3c0.5,0,0.9,0.1,1.2,0.2c0.3,0.1,0.6,0.4,0.8,0.6
		c0.1,0.2,0.2,0.3,0.2,0.5c0,0.2,0.1,0.5,0.1,1v0.3v3.8H636.8z"/>
	<path class="st1" d="M643.9,54.3v-3.9c0-0.6-0.1-1-0.3-1.3c-0.2-0.2-0.5-0.4-1-0.4c-0.6,0-1,0.2-1.4,0.5c-0.3,0.3-0.5,0.8-0.5,1.4
		v3.6h-1.1V48h1v0.9c0.2-0.4,0.5-0.6,0.9-0.8c0.3-0.2,0.7-0.3,1.2-0.3c0.5,0,0.9,0.1,1.2,0.2c0.3,0.1,0.6,0.4,0.8,0.6
		c0.1,0.2,0.2,0.3,0.2,0.5c0,0.2,0.1,0.5,0.1,1v0.3v3.8H643.9z"/>
	<path class="st1" d="M645.9,51.2c0-1.1,0.3-1.9,0.8-2.5c0.5-0.6,1.3-0.9,2.2-0.9c1,0,1.7,0.3,2.2,0.9c0.5,0.6,0.8,1.4,0.8,2.5
		s-0.3,1.9-0.8,2.5c-0.5,0.6-1.3,0.9-2.2,0.9c-1,0-1.7-0.3-2.2-0.9C646.2,53,645.9,52.2,645.9,51.2z M647,51.2
		c0,0.8,0.2,1.4,0.5,1.8c0.3,0.4,0.8,0.6,1.4,0.6c0.6,0,1.1-0.2,1.4-0.6c0.3-0.4,0.5-1,0.5-1.8c0-0.8-0.2-1.4-0.5-1.8
		c-0.3-0.4-0.8-0.6-1.4-0.6c-0.6,0-1.1,0.2-1.4,0.6C647.2,49.8,647,50.4,647,51.2z"/>
	<path class="st1" d="M653.2,54.3v-8.6h1.1v8.6H653.2z"/>
	<path class="st1" d="M655.6,51.2c0-1.1,0.3-1.9,0.8-2.5c0.5-0.6,1.3-0.9,2.2-0.9c1,0,1.7,0.3,2.2,0.9c0.5,0.6,0.8,1.4,0.8,2.5
		s-0.3,1.9-0.8,2.5c-0.5,0.6-1.3,0.9-2.2,0.9c-1,0-1.7-0.3-2.2-0.9C655.9,53,655.6,52.2,655.6,51.2z M656.7,51.2
		c0,0.8,0.2,1.4,0.5,1.8c0.3,0.4,0.8,0.6,1.4,0.6c0.6,0,1.1-0.2,1.4-0.6c0.3-0.4,0.5-1,0.5-1.8c0-0.8-0.2-1.4-0.5-1.8
		c-0.3-0.4-0.8-0.6-1.4-0.6c-0.6,0-1.1,0.2-1.4,0.6C656.9,49.8,656.7,50.4,656.7,51.2z"/>
	<path class="st1" d="M667.4,53.5c-0.2,0.3-0.5,0.6-0.9,0.7c-0.3,0.2-0.7,0.2-1.1,0.2c-0.8,0-1.5-0.3-2-0.9
		c-0.5-0.6-0.8-1.4-0.8-2.4c0-1,0.3-1.8,0.8-2.4c0.5-0.6,1.2-0.9,2.1-0.9c0.4,0,0.8,0.1,1.1,0.2c0.3,0.2,0.6,0.4,0.9,0.8V48h1v6.1
		c0,1-0.2,1.7-0.7,2.1c-0.5,0.4-1.2,0.6-2.2,0.6c-0.8,0-1.5-0.2-2-0.5c-0.5-0.3-0.7-0.8-0.7-1.3v0h1v0c0,0.3,0.1,0.6,0.4,0.7
		c0.3,0.2,0.7,0.2,1.2,0.2c0.7,0,1.1-0.1,1.4-0.4c0.3-0.3,0.4-0.7,0.4-1.3V53.5z M665.6,48.8c-0.6,0-1.1,0.2-1.4,0.6
		c-0.3,0.4-0.5,1-0.5,1.8c0,0.8,0.2,1.3,0.5,1.8c0.3,0.4,0.8,0.6,1.4,0.6c0.6,0,1.1-0.2,1.4-0.6c0.3-0.4,0.5-1,0.5-1.8
		c0-0.8-0.2-1.4-0.5-1.8C666.7,49,666.2,48.8,665.6,48.8z"/>
	<path class="st1" d="M674.3,48h1.2l-2.6,7.2c-0.3,0.7-0.5,1.1-0.8,1.3c-0.3,0.2-0.6,0.3-1.1,0.3c-0.1,0-0.2,0-0.3,0
		c-0.1,0-0.2,0-0.3-0.1v-1c0.1,0,0.2,0.1,0.3,0.1c0.1,0,0.2,0,0.3,0c0.2,0,0.4,0,0.5-0.1c0.1-0.1,0.2-0.2,0.3-0.4l0.3-0.7l-2.4-6.6
		h1.2l1.7,5.1L674.3,48z"/>
</g>
<g>
	<path class="st2" d="M535.8,33.3c-2,0-3.9-0.3-5.7-0.8c-1.8-0.5-3.2-1.1-4.5-1.8l-1.6,1.6h-2l-0.3-12h2c0.5,1.1,1,2.3,1.7,3.6
		c0.7,1.3,1.5,2.4,2.4,3.4c1,1,2,1.9,3.2,2.6c1.2,0.7,2.6,1,4.1,1c2.1,0,3.8-0.5,4.9-1.6c1.1-1,1.7-2.3,1.7-3.9
		c0-1.3-0.5-2.4-1.4-3.3c-1-0.9-2.4-1.6-4.5-2.3c-1.3-0.4-2.5-0.8-3.6-1.2c-1.1-0.4-2.1-0.7-3.1-1.1c-2.2-0.9-3.9-2.2-5-3.8
		c-1.1-1.7-1.6-3.5-1.6-5.6c0-1.3,0.3-2.5,0.8-3.7s1.4-2.3,2.5-3.2c1-0.9,2.4-1.6,4-2.2c1.6-0.6,3.4-0.8,5.3-0.8
		c1.8,0,3.6,0.3,5.2,0.8c1.6,0.5,2.9,1,3.8,1.5l1.4-1.4h2l0.2,11.3h-2c-0.5-1.2-1-2.5-1.7-3.7c-0.6-1.3-1.3-2.3-2-3.2
		c-0.8-0.9-1.6-1.6-2.6-2.2c-1-0.5-2.2-0.8-3.5-0.8c-1.7,0-3.1,0.5-4.1,1.4c-1.1,1-1.6,2.1-1.6,3.5c0,1.3,0.5,2.4,1.4,3.3
		c0.9,0.8,2.4,1.6,4.3,2.2c1.2,0.4,2.3,0.8,3.5,1.2c1.2,0.4,2.3,0.8,3.2,1.1c2.3,0.9,4,2.1,5.2,3.6c1.2,1.5,1.8,3.5,1.8,5.7
		c0,1.4-0.3,2.8-1,4.2c-0.7,1.3-1.6,2.5-2.7,3.4c-1.3,1-2.7,1.7-4.3,2.3C539.9,33,538,33.3,535.8,33.3z"/>
	<path class="st2" d="M562.7,13.8c0,1.1-0.4,2.1-1.3,2.9c-0.8,0.8-1.8,1.2-3,1.2c-1.2,0-2.2-0.4-3-1.2c-0.8-0.8-1.3-1.8-1.3-3
		c0-1.1,0.4-2.1,1.3-3c0.8-0.8,1.8-1.3,3-1.3c1.1,0,2.1,0.4,3,1.3C562.3,11.7,562.7,12.7,562.7,13.8z M562.7,27.4
		c0,1.1-0.4,2.1-1.3,2.9c-0.8,0.8-1.8,1.2-3,1.2c-1.2,0-2.2-0.4-3-1.2c-0.8-0.8-1.3-1.8-1.3-3c0-1.1,0.4-2.1,1.3-3
		c0.8-0.8,1.8-1.3,3-1.3c1.1,0,2.1,0.4,3,1.3C562.3,25.3,562.7,26.3,562.7,27.4z"/>
	<path class="st2" d="M593.3,11.7h-5.2c0.6,0.7,1.1,1.4,1.4,2.2c0.3,0.8,0.5,1.6,0.5,2.4c0,1.1-0.3,2.1-0.9,3
		c-0.6,0.9-1.3,1.7-2.3,2.3c-1,0.6-2.1,1.1-3.4,1.4c-1.3,0.3-2.7,0.5-4.2,0.5h-3.8c-0.2,0.1-0.4,0.4-0.6,0.7
		c-0.2,0.3-0.3,0.6-0.3,0.9c0,0.7,0.3,1.2,0.8,1.4c0.5,0.3,1.5,0.4,3,0.4c1.4,0,2.9,0.1,4.3,0.2c1.5,0.1,2.5,0.1,3.1,0.2
		c0.9,0,1.8,0.2,2.7,0.6c0.9,0.3,1.7,0.7,2.3,1.3c0.7,0.5,1.3,1.2,1.8,2.1c0.5,0.9,0.7,1.8,0.7,2.9c0,1.2-0.3,2.3-0.9,3.4
		c-0.6,1-1.4,2-2.6,2.7c-1.2,0.8-2.7,1.4-4.4,1.9c-1.7,0.4-3.9,0.7-6.4,0.7c-4.1,0-7.2-0.5-9.4-1.5c-2.1-1-3.2-2.5-3.2-4.5
		c0-1.2,0.6-2.3,1.7-3c1.2-0.8,3-1.2,5.4-1.3v-0.3c-1.4-0.5-2.6-1.1-3.4-1.9c-0.8-0.8-1.2-1.7-1.2-2.8c0-0.7,0.2-1.2,0.5-1.7
		c0.3-0.5,0.7-0.9,1.2-1.2c0.4-0.3,1-0.6,1.6-0.8c0.6-0.2,1.1-0.4,1.6-0.5V23c-2.1-0.8-3.7-1.7-4.7-2.9s-1.5-2.5-1.5-4.1
		c0-2.3,1.1-4.1,3.2-5.5s4.8-2.1,8.1-2.1c1.1,0,2.1,0.1,3.1,0.3c1,0.2,1.7,0.3,2.3,0.5h9.1V11.7z M586.2,35.9c0-0.5-0.1-1.1-0.4-1.6
		c-0.3-0.5-1-0.9-2-1.3c-0.6-0.1-1.5-0.2-2.8-0.2c-1.3,0-3.1,0-5.3,0c-0.5,0.5-1,1-1.4,1.7c-0.4,0.6-0.5,1.4-0.5,2.3
		c0,0.4,0.1,0.8,0.3,1.3c0.2,0.5,0.6,0.9,1,1.3c0.5,0.5,1.2,0.8,1.8,1.1c0.7,0.3,1.7,0.4,3,0.4c2,0,3.5-0.4,4.6-1.2
		C585.7,38.9,586.2,37.6,586.2,35.9z M582.3,16.2c0-1.8-0.3-3.3-0.9-4.3c-0.6-1.1-1.5-1.6-2.7-1.6c-0.6,0-1.1,0.1-1.6,0.4
		c-0.5,0.3-0.8,0.7-1.1,1.3c-0.3,0.5-0.4,1.2-0.5,1.9c-0.1,0.7-0.1,1.4-0.1,2.2c0,1.7,0.3,3.1,0.9,4.2c0.6,1.1,1.4,1.6,2.5,1.6
		c1.1,0,2-0.5,2.6-1.5C582,19.4,582.3,18,582.3,16.2z"/>
	<path class="st2" d="M627.6,32.4h-14.1v-1.7c0.3,0,0.7-0.1,1.1-0.1c0.4,0,0.7-0.1,1-0.2c0.3-0.2,0.6-0.4,0.7-0.8
		c0.1-0.3,0.2-0.8,0.2-1.5v-11c0-1.6-0.3-2.8-0.9-3.6c-0.6-0.8-1.5-1.2-2.6-1.2c-0.6,0-1.2,0.1-1.8,0.3c-0.5,0.2-1.1,0.5-1.6,0.8
		c-0.5,0.3-0.8,0.6-1.1,1s-0.5,0.6-0.7,0.9v12.6c0,0.5,0.1,1,0.2,1.4c0.2,0.4,0.4,0.6,0.8,0.8c0.3,0.1,0.6,0.3,0.9,0.4
		c0.4,0.1,0.7,0.2,1.1,0.2v1.7h-14.2v-1.7c0.4,0,0.8-0.1,1.2-0.1c0.4-0.1,0.7-0.1,1-0.2c0.5-0.2,0.8-0.4,1-0.8
		c0.2-0.4,0.3-0.8,0.3-1.4V14.5c0-0.5-0.1-1-0.4-1.4c-0.3-0.5-0.6-0.9-1-1.1c-0.3-0.2-0.6-0.3-1.1-0.5s-0.9-0.2-1.4-0.3V9.4
		l11.2-0.6l0.4,0.4v3.4h0.1c0.4-0.4,1-0.9,1.6-1.4c0.6-0.5,1.2-1,1.7-1.3c0.6-0.4,1.3-0.7,2.3-1s1.9-0.4,3-0.4
		c2.5,0,4.5,0.7,5.7,2.2c1.3,1.4,1.9,3.4,1.9,5.8v11.5c0,0.6,0.1,1,0.3,1.4c0.2,0.3,0.5,0.6,1,0.8c0.3,0.1,0.6,0.2,0.9,0.3
		c0.4,0.1,0.8,0.2,1.3,0.2V32.4z"/>
	<path class="st2" d="M638.8,13.8c0,1.1-0.4,2.1-1.3,2.9c-0.8,0.8-1.8,1.2-3,1.2c-1.2,0-2.2-0.4-3-1.2c-0.8-0.8-1.3-1.8-1.3-3
		c0-1.1,0.4-2.1,1.3-3c0.8-0.8,1.8-1.3,3-1.3c1.1,0,2.1,0.4,3,1.3C638.4,11.7,638.8,12.7,638.8,13.8z M638.8,27.4
		c0,1.1-0.4,2.1-1.3,2.9c-0.8,0.8-1.8,1.2-3,1.2c-1.2,0-2.2-0.4-3-1.2s-1.3-1.8-1.3-3c0-1.1,0.4-2.1,1.3-3s1.8-1.3,3-1.3
		c1.1,0,2.1,0.4,3,1.3C638.4,25.3,638.8,26.3,638.8,27.4z"/>
	<path class="st2" d="M661.4,31.3c-1,0.4-2.1,0.8-3.2,1.2c-1.1,0.4-2.5,0.5-4.2,0.5c-2.4,0-4.2-0.6-5.4-1.8
		c-1.2-1.2-1.8-2.9-1.8-5.1V11.8h-4.2V9.2h4.3V2.1h7.6v7.1h6.6v2.6h-6.5v12.8c0,1.8,0.3,3.1,0.8,3.9c0.5,0.8,1.4,1.1,2.7,1.1
		c0.4,0,1,0,1.8-0.1c0.8-0.1,1.3-0.1,1.6-0.2V31.3z"/>
	<path class="st2" d="M688.3,26.8c-0.5,0.9-1.2,1.7-2,2.5c-0.8,0.8-1.7,1.5-2.6,2c-1,0.6-2.1,1-3.2,1.3c-1.1,0.3-2.3,0.5-3.7,0.5
		c-2.3,0-4.3-0.3-6-1c-1.7-0.7-3.1-1.5-4.2-2.6c-1.1-1.1-1.9-2.4-2.4-3.9c-0.5-1.5-0.8-3.1-0.8-4.9c0-1.6,0.3-3.1,0.9-4.6
		c0.6-1.5,1.4-2.8,2.5-3.9c1.1-1.1,2.4-2,4-2.7c1.6-0.7,3.4-1,5.4-1c2.2,0,4,0.3,5.4,0.8c1.4,0.5,2.6,1.3,3.5,2.2
		c0.9,0.9,1.5,1.9,1.9,3.2s0.6,2.5,0.6,3.8v1.5h-15.8c0,3.2,0.6,5.6,1.9,7.3c1.2,1.7,3.2,2.5,5.9,2.5c1.5,0,2.8-0.4,4-1.2
		c1.2-0.8,2.2-1.8,3-3.1L688.3,26.8z M679.3,17.9c0-0.9,0-1.9-0.1-2.9c-0.1-1-0.3-1.8-0.5-2.4c-0.3-0.7-0.6-1.3-1.1-1.7
		c-0.5-0.4-1-0.6-1.7-0.6c-1.2,0-2.2,0.6-2.9,1.8c-0.7,1.2-1.1,3.1-1.2,5.8L679.3,17.9z"/>
</g>
</svg>
