<?xml version="1.0" encoding="utf-8"?>
<!-- Generator: Adobe Illustrator 19.1.1, SVG Export Plug-In . SVG Version: 6.00 Build 0)  -->
<!DOCTYPE svg PUBLIC "-//W3C//DTD SVG 1.1//EN" "http://www.w3.org/Graphics/SVG/1.1/DTD/svg11.dtd">
<svg version="1.1" id="レイヤー_1" xmlns="http://www.w3.org/2000/svg" xmlns:xlink="http://www.w3.org/1999/xlink" x="0px"
	 y="0px" viewBox="0 0 112.4 124.3" style="enable-background:new 0 0 112.4 124.3;" xml:space="preserve">
<style type="text/css">
	.st0{fill:#FFFFFF;stroke:#4F99C6;stroke-width:0.707;stroke-miterlimit:10;}
	.st1{fill:#0054A6;}
	.st2{fill:#9ED8F5;}
	.st3{fill:#0068B6;}
	.st4{fill:#54C2F0;}
	.st5{fill:#49A9D1;}
	.st6{fill:#BBC3E3;}
	.st7{fill:#767CBA;}
	.st8{fill:#666BA1;}
	.st9{fill:none;stroke:#231815;stroke-width:0.5;stroke-miterlimit:10;}
</style>
<path class="st0" d="M101.4,0.4H11.1C5.2,0.4,0.4,5.2,0.4,11.1v90.3c0,5.9,4.8,10.7,10.7,10.7h33.4l11.7,11.7l11.7-11.7h33.4
	c5.9,0,10.7-4.8,10.7-10.7V11.1C112.1,5.2,107.2,0.4,101.4,0.4z"/>
<g>
	<path class="st1" d="M23.3,102.5c-1,0-1.9-0.1-2.7-0.4c-0.8-0.2-1.5-0.5-2.1-0.9l-0.8,0.8h-0.9l-0.1-5.7h1c0.2,0.5,0.5,1.1,0.8,1.7
		c0.3,0.6,0.7,1.1,1.2,1.6c0.5,0.5,1,0.9,1.5,1.2c0.6,0.3,1.2,0.5,2,0.5c1,0,1.8-0.2,2.3-0.7c0.5-0.5,0.8-1.1,0.8-1.9
		c0-0.6-0.2-1.1-0.7-1.6c-0.5-0.4-1.2-0.8-2.1-1.1c-0.6-0.2-1.2-0.4-1.7-0.6c-0.5-0.2-1-0.3-1.5-0.5c-1.1-0.4-1.9-1-2.4-1.8
		c-0.5-0.8-0.8-1.7-0.8-2.6c0-0.6,0.1-1.2,0.4-1.8c0.3-0.6,0.7-1.1,1.2-1.5c0.5-0.4,1.1-0.8,1.9-1c0.8-0.3,1.6-0.4,2.5-0.4
		c0.9,0,1.7,0.1,2.5,0.4c0.8,0.2,1.4,0.5,1.8,0.7l0.7-0.7h1l0.1,5.4h-1c-0.2-0.6-0.5-1.2-0.8-1.8c-0.3-0.6-0.6-1.1-1-1.5
		c-0.4-0.4-0.8-0.8-1.3-1c-0.5-0.3-1-0.4-1.7-0.4c-0.8,0-1.5,0.2-2,0.7c-0.5,0.5-0.8,1-0.8,1.7c0,0.6,0.2,1.2,0.7,1.6
		c0.4,0.4,1.1,0.8,2.1,1.1c0.5,0.2,1.1,0.4,1.7,0.6c0.6,0.2,1.1,0.4,1.5,0.5c1.1,0.4,1.9,1,2.5,1.7c0.6,0.7,0.8,1.6,0.8,2.7
		c0,0.7-0.2,1.3-0.5,2c-0.3,0.6-0.8,1.2-1.3,1.6c-0.6,0.5-1.3,0.8-2.1,1.1C25.2,102.4,24.3,102.5,23.3,102.5z"/>
	<path class="st1" d="M36.1,93.3c0,0.5-0.2,1-0.6,1.4c-0.4,0.4-0.9,0.6-1.4,0.6c-0.6,0-1-0.2-1.4-0.6c-0.4-0.4-0.6-0.9-0.6-1.4
		c0-0.5,0.2-1,0.6-1.4c0.4-0.4,0.9-0.6,1.4-0.6c0.5,0,1,0.2,1.4,0.6C35.9,92.3,36.1,92.7,36.1,93.3z M36.1,99.7c0,0.5-0.2,1-0.6,1.4
		c-0.4,0.4-0.9,0.6-1.4,0.6c-0.6,0-1-0.2-1.4-0.6c-0.4-0.4-0.6-0.9-0.6-1.4c0-0.5,0.2-1,0.6-1.4c0.4-0.4,0.9-0.6,1.4-0.6
		c0.5,0,1,0.2,1.4,0.6C35.9,98.7,36.1,99.2,36.1,99.7z"/>
	<path class="st1" d="M50.6,92.3h-2.5c0.3,0.3,0.5,0.7,0.7,1c0.1,0.4,0.2,0.7,0.2,1.1c0,0.5-0.1,1-0.4,1.4c-0.3,0.4-0.6,0.8-1.1,1.1
		c-0.5,0.3-1,0.5-1.6,0.7c-0.6,0.2-1.3,0.2-2,0.2h-1.8c-0.1,0.1-0.2,0.2-0.3,0.3c-0.1,0.1-0.2,0.3-0.2,0.4c0,0.3,0.1,0.6,0.4,0.7
		c0.3,0.1,0.7,0.2,1.4,0.2c0.7,0,1.4,0,2.1,0.1c0.7,0,1.2,0.1,1.5,0.1c0.4,0,0.9,0.1,1.3,0.3c0.4,0.2,0.8,0.4,1.1,0.6
		c0.3,0.3,0.6,0.6,0.8,1c0.2,0.4,0.3,0.9,0.3,1.4c0,0.6-0.1,1.1-0.4,1.6c-0.3,0.5-0.7,0.9-1.2,1.3c-0.6,0.4-1.3,0.7-2.1,0.9
		c-0.8,0.2-1.8,0.3-3,0.3c-2,0-3.4-0.2-4.5-0.7c-1-0.5-1.5-1.2-1.5-2.1c0-0.6,0.3-1.1,0.8-1.4c0.5-0.4,1.4-0.6,2.6-0.6V102
		c-0.7-0.2-1.2-0.5-1.6-0.9c-0.4-0.4-0.6-0.8-0.6-1.3c0-0.3,0.1-0.6,0.2-0.8c0.2-0.2,0.3-0.4,0.6-0.6c0.2-0.1,0.5-0.3,0.8-0.4
		c0.3-0.1,0.5-0.2,0.7-0.2v-0.1c-1-0.4-1.7-0.8-2.2-1.4s-0.7-1.2-0.7-2c0-1.1,0.5-2,1.5-2.6c1-0.7,2.3-1,3.8-1c0.5,0,1,0,1.5,0.1
		s0.8,0.2,1.1,0.2h4.3V92.3z M47.3,103.8c0-0.3-0.1-0.5-0.2-0.8c-0.1-0.2-0.5-0.5-0.9-0.6c-0.3,0-0.7-0.1-1.3-0.1
		c-0.6,0-1.5,0-2.5,0c-0.3,0.2-0.5,0.5-0.7,0.8c-0.2,0.3-0.3,0.7-0.3,1.1c0,0.2,0.1,0.4,0.2,0.6c0.1,0.2,0.3,0.4,0.5,0.6
		c0.3,0.2,0.5,0.4,0.9,0.5s0.8,0.2,1.4,0.2c1,0,1.7-0.2,2.2-0.6C47,105.2,47.3,104.6,47.3,103.8z M45.4,94.4c0-0.9-0.1-1.6-0.4-2.1
		c-0.3-0.5-0.7-0.8-1.3-0.8c-0.3,0-0.5,0.1-0.8,0.2c-0.2,0.1-0.4,0.3-0.5,0.6c-0.1,0.3-0.2,0.5-0.3,0.9c0,0.3-0.1,0.7-0.1,1
		c0,0.8,0.1,1.5,0.4,2c0.3,0.5,0.7,0.8,1.2,0.8c0.5,0,0.9-0.2,1.2-0.7C45.3,95.9,45.4,95.3,45.4,94.4z"/>
	<path class="st1" d="M67,102.1h-6.7v-0.8c0.1,0,0.3,0,0.5-0.1c0.2,0,0.4-0.1,0.5-0.1c0.2-0.1,0.3-0.2,0.3-0.4
		c0.1-0.2,0.1-0.4,0.1-0.7v-5.2c0-0.8-0.1-1.3-0.4-1.7c-0.3-0.4-0.7-0.6-1.2-0.6c-0.3,0-0.6,0-0.8,0.1c-0.3,0.1-0.5,0.2-0.8,0.4
		c-0.2,0.1-0.4,0.3-0.5,0.5s-0.2,0.3-0.3,0.4v6c0,0.3,0,0.5,0.1,0.7c0.1,0.2,0.2,0.3,0.4,0.4c0.1,0.1,0.3,0.1,0.4,0.2
		c0.2,0.1,0.4,0.1,0.5,0.1v0.8h-6.8v-0.8c0.2,0,0.4,0,0.6-0.1c0.2,0,0.4-0.1,0.5-0.1c0.2-0.1,0.4-0.2,0.5-0.4
		c0.1-0.2,0.1-0.4,0.1-0.7v-6.5c0-0.2-0.1-0.5-0.2-0.7c-0.1-0.2-0.3-0.4-0.5-0.5c-0.1-0.1-0.3-0.2-0.5-0.2c-0.2-0.1-0.4-0.1-0.7-0.1
		v-0.8l5.3-0.3l0.2,0.2v1.6h0c0.2-0.2,0.5-0.4,0.8-0.7c0.3-0.3,0.6-0.5,0.8-0.6c0.3-0.2,0.6-0.3,1.1-0.5s0.9-0.2,1.4-0.2
		c1.2,0,2.1,0.3,2.7,1c0.6,0.7,0.9,1.6,0.9,2.7v5.5c0,0.3,0,0.5,0.1,0.7c0.1,0.2,0.2,0.3,0.5,0.4c0.1,0.1,0.3,0.1,0.4,0.2
		c0.2,0.1,0.4,0.1,0.6,0.1V102.1z"/>
	<path class="st1" d="M72.3,93.3c0,0.5-0.2,1-0.6,1.4c-0.4,0.4-0.9,0.6-1.4,0.6c-0.6,0-1-0.2-1.4-0.6c-0.4-0.4-0.6-0.9-0.6-1.4
		c0-0.5,0.2-1,0.6-1.4c0.4-0.4,0.9-0.6,1.4-0.6c0.5,0,1,0.2,1.4,0.6C72.1,92.3,72.3,92.7,72.3,93.3z M72.3,99.7c0,0.5-0.2,1-0.6,1.4
		c-0.4,0.4-0.9,0.6-1.4,0.6c-0.6,0-1-0.2-1.4-0.6c-0.4-0.4-0.6-0.9-0.6-1.4c0-0.5,0.2-1,0.6-1.4c0.4-0.4,0.9-0.6,1.4-0.6
		c0.5,0,1,0.2,1.4,0.6C72.1,98.7,72.3,99.2,72.3,99.7z"/>
	<path class="st1" d="M83.1,101.6c-0.5,0.2-1,0.4-1.5,0.6c-0.5,0.2-1.2,0.3-2,0.3c-1.2,0-2-0.3-2.6-0.8c-0.6-0.6-0.8-1.4-0.8-2.4
		v-6.8h-2v-1.2h2.1v-3.4h3.6v3.4h3.1v1.2h-3.1v6.1c0,0.9,0.1,1.5,0.4,1.8c0.2,0.4,0.7,0.5,1.3,0.5c0.2,0,0.5,0,0.8,0
		c0.4,0,0.6-0.1,0.7-0.1V101.6z"/>
	<path class="st1" d="M95.8,99.4c-0.3,0.4-0.6,0.8-0.9,1.2c-0.4,0.4-0.8,0.7-1.3,1c-0.5,0.3-1,0.5-1.5,0.6c-0.5,0.1-1.1,0.2-1.8,0.2
		c-1.1,0-2-0.2-2.8-0.5c-0.8-0.3-1.5-0.7-2-1.3c-0.5-0.5-0.9-1.1-1.2-1.9c-0.3-0.7-0.4-1.5-0.4-2.3c0-0.8,0.1-1.5,0.4-2.2
		c0.3-0.7,0.7-1.3,1.2-1.9c0.5-0.5,1.1-1,1.9-1.3c0.8-0.3,1.6-0.5,2.6-0.5c1,0,1.9,0.1,2.6,0.4c0.7,0.3,1.2,0.6,1.7,1
		c0.4,0.4,0.7,0.9,0.9,1.5c0.2,0.6,0.3,1.2,0.3,1.8v0.7H88c0,1.5,0.3,2.7,0.9,3.5c0.6,0.8,1.5,1.2,2.8,1.2c0.7,0,1.3-0.2,1.9-0.6
		c0.6-0.4,1-0.9,1.4-1.5L95.8,99.4z M91.6,95.2c0-0.4,0-0.9-0.1-1.4c0-0.5-0.1-0.9-0.2-1.1c-0.1-0.3-0.3-0.6-0.5-0.8
		c-0.2-0.2-0.5-0.3-0.8-0.3c-0.6,0-1,0.3-1.4,0.9C88.2,93.1,88,94,88,95.2L91.6,95.2z"/>
</g>
<g>
	<path class="st2" d="M74.5,75.1c0.9-1,1.4-2.3,1.4-3.6V60.4L30.7,48.2v15.1L74.5,75.1z"/>
	<path class="st3" d="M72.9,52c3.3-0.9,6-4.3,6-7.6V29.3L36.7,40.6c-3.3,0.9-6,4.3-6,7.6v15.1L72.9,52z"/>
	<polygon class="st1" points="58.8,55.8 30.7,48.2 30.7,63.3 	"/>
	<path class="st4" d="M71.5,77.1c2.4-0.7,4.4-3.2,4.4-5.6V60.4l-4.4,1.2l-27.3,7.3c-2.4,0.7-4.4,3.2-4.4,5.6v11.1L71.5,77.1z"/>
	<path class="st5" d="M47.8,67.9l26.7,7.2c0.3-0.4,0.6-0.8,0.8-1.2c0,0,0,0,0,0c0.1-0.1,0.1-0.3,0.2-0.4c0,0,0,0,0,0
		c0.1-0.1,0.1-0.3,0.1-0.4c0,0,0-0.1,0-0.1c0-0.1,0.1-0.2,0.1-0.4c0,0,0-0.1,0-0.1c0-0.1,0-0.2,0.1-0.4c0,0,0-0.1,0-0.1
		c0-0.2,0-0.3,0-0.5V60.4l-4.4,1.2L47.8,67.9z"/>
	<path class="st6" d="M35.1,17.6c-0.9,1-1.4,2.3-1.4,3.6v11.1l45.2,12.1V29.3L35.1,17.6z"/>
	<polygon class="st1" points="50.8,36.8 78.9,44.4 78.9,29.3 	"/>
	<path class="st7" d="M38.2,15.5c-2.4,0.7-4.4,3.2-4.4,5.6v11.1l4.4-1.2l27.3-7.3c2.4-0.7,4.4-3.2,4.4-5.6V7L38.2,15.5z"/>
	<path class="st8" d="M61.8,24.7l-26.7-7.2c-0.3,0.4-0.6,0.8-0.8,1.2c0,0,0,0,0,0c-0.1,0.1-0.1,0.3-0.2,0.4c0,0,0,0,0,0
		C34,19.4,34,19.5,34,19.7c0,0,0,0.1,0,0.1c0,0.1-0.1,0.2-0.1,0.4c0,0,0,0.1,0,0.1c0,0.1,0,0.2-0.1,0.4c0,0,0,0.1,0,0.1
		c0,0.2,0,0.3,0,0.5v11.1l4.4-1.2L61.8,24.7z"/>
</g>
<g>
	<path d="M-284.2-259.1c-0.9-1.2-1.3-1.8-1.8-3.1v9.7h-1.5v-9.9c-0.2,0.6-0.9,3-2.5,5.4l-0.7-2c1.7-2.1,2.7-5.1,3.1-6.7h-2.8v-1.6
		h2.9v-3.9h1.5v3.9h2.5v1.6h-2.5v1.3c0.4,1,1.7,2.7,2.8,3.8L-284.2-259.1z M-276.7-252.4h-1.6v-7.3c-1.3,2.4-2.7,3.9-4.8,5.7
		l-1.1-1.4c2.9-2.1,4.5-4.3,5.5-6.1h-4.7v-1.5h5.1v-3.1h-2.5c-0.6,1.4-1,2-1.4,2.5l-1.5-0.9c1-1.2,1.8-2.6,2.5-5.9l1.7,0.2
		c-0.1,0.6-0.2,1.3-0.6,2.5h2v-3.3h1.6v3.3h4.4v1.5h-4.4v3.1h4.9v1.5h-4.3c1.5,3,2.9,4.5,4.6,5.9l-0.9,1.7c-2.3-2-3.5-4.1-4.2-5.9
		V-252.4z"/>
	<path d="M-259.8-254.9c-2.9,0.7-6.6,1.3-10.4,1.7l-0.2-1.7c0.8-0.1,1.9-0.2,4.4-0.5v-6.3h-4v-1.6h9.5v1.6h-3.9v6
		c2.9-0.5,3.7-0.7,4.5-0.8L-259.8-254.9z M-258.2-271c0,0.7,0,1.5,0,3.3h6.3v1.6h-6.3c0.2,3.7,0.4,7.6,2.5,10.6
		c0.2,0.3,0.8,1.1,1.3,1.1c0.5,0,1-1.4,1.1-3.3l1.5,0.7c-0.2,1.5-0.6,4.5-2.5,4.5c-2.2,0-3.9-3.3-4.4-4.9c-1-3.1-1.1-4.7-1.4-8.7
		h-10.6v-1.6h10.5c0-0.9-0.1-2.1-0.1-3.3H-258.2z M-253.9-267.8c-0.8-0.7-1.6-1.2-3.1-2.1l0.9-1.2c1.5,0.8,2.1,1.2,3.2,2
		L-253.9-267.8z"/>
	<path d="M-235.8-263.9h-10.6v-1.1c-1.8,1.1-2.9,1.6-3.6,1.9l-0.8-1.6c6-2.3,8.2-5.6,8.7-6.4h1.8c2.1,2.8,5.3,5.2,8.7,6.4l-0.9,1.6
		c-0.9-0.4-2-0.9-3.4-1.9V-263.9z M-237.6-259.2c2.1,2.1,3.4,3.5,4.9,5.9l-1.4,1c-0.3-0.5-0.6-0.9-1-1.5c-3.3,0.5-11.5,0.8-14.6,0.8
		l-0.2-1.6h2.8c1.3-2.2,2-4,2.5-5.2h-5.5v-1.5h17.9v1.5h-10.4c-0.5,1.1-1.3,2.8-2.6,5.1c0.5,0,2.7-0.1,3.2-0.1
		c2.4-0.1,4.5-0.3,6-0.4c-0.2-0.3-1.2-1.5-2.8-3.1L-237.6-259.2z M-236.5-265.5c-2.8-2-4-3.4-4.7-4.3c-1.3,1.8-3,3.2-4.6,4.3H-236.5
		z"/>
	<path d="M-225.6-252.4h-1.6v-8.1c-1.3,1.2-2.2,1.8-2.7,2.1l-0.7-1.6c3.3-2,5.2-4.6,5.9-6.2h-5.6v-1.5h3.2v-3.3h1.6v3.3h2.6v1.5
		c-0.2,0.5-0.7,1.7-2.2,3.5c1.1,1.2,1.8,1.8,2.9,2.6l-0.9,1.5c-1.1-0.9-1.3-1.1-2.4-2.4V-252.4z M-216.8-271v5.8h4.4v1.6h-4.4v8.8
		h4.9v1.6h-11.7v-1.6h5.1v-8.8h-4.2v-1.6h4.2v-5.8H-216.8z"/>
	<path d="M-203.4-261.1c-2.3-1.4-4-1.9-5.7-2.4l0.7-1.6c2.3,0.6,3.7,1.1,5.8,2.3L-203.4-261.1z M-208-255.7
		c7.8-0.8,11.4-3.7,13.8-11.3l1.5,1.1c-2.8,8.3-6.5,11-14.9,12.1L-208-255.7z M-201.8-265.9c-2.2-1.3-4.2-1.9-5.8-2.4l0.7-1.5
		c2.3,0.6,3.8,1.1,5.9,2.2L-201.8-265.9z"/>
	<path d="M-188.9-254.8c7.8-1.5,10.9-6.2,12-12.3h-6.9c-1.3,2.1-2.8,3.7-5.1,5.3l-1.1-1.4c1.6-1.1,3.6-2.8,5-5.6h8l1.9,2.5
		c-1.7,7.6-5.8,11.6-13,13.2L-188.9-254.8z M-175.9-271.1c1,1.3,1.4,2,2.3,3.6l-1.3,0.9c-0.7-1.6-1.2-2.4-2.2-3.7L-175.9-271.1z
		 M-173.2-271.9c1,1.3,1.4,2,2.2,3.7l-1.3,0.8c-0.7-1.5-1.1-2.3-2.1-3.8L-173.2-271.9z"/>
	<path d="M-152.7-266v1.8h-7.2c0,6-2.5,9-7.6,10.8l-1-1.6c2.9-1,5-2.4,5.9-4.4c0.6-1.3,0.9-3.5,0.9-4.9h-7.7v-1.8h7.7v-4.2h1.9v4.2
		H-152.7z"/>
	<path d="M-139-253.2h-1.9v-9.3c-2.7,1.9-5.3,3.1-7.9,4l-0.9-1.7c5.7-1.8,10.6-5.4,14.3-10.1l1.7,1.1c-0.9,1-2.5,3-5.3,5.2V-253.2z"
		/>
	<path d="M-114.2-259c-1.4-0.8-4.6-2.8-8.8-4.3v10.1h-1.9v-17.1h1.9v5.1c3.8,1.2,6.9,2.7,9.8,4.3L-114.2-259z"/>
	<path d="M-105-259.9c-0.8-1.2-1-1.8-1.3-2.5v10.1h-1.6v-9.5c-0.4,1.6-0.9,3.1-2.2,5l-0.7-2c1.3-1.6,2.3-4,2.8-6.6h-2.5v-1.5h2.6
		v-3.9h1.6v3.9h2v1.5h-2v0.7c0.4,1.2,1.2,2.5,2.2,3.6L-105-259.9z M-105.2-254.4c0.7-0.3,2.8-1.1,5-2.8l0.4,1.4
		c-1.1,0.8-3.2,2.1-4.8,2.8L-105.2-254.4z M-92.5-253.1c-2-1.2-3.5-2.5-4.7-4.5v3.5c0,0.4,0,1.6-1.5,1.6h-2.3l-0.3-1.6l1.9,0
		c0.4,0,0.6,0,0.6-0.6v-6.4h-5.1v-1.4h5.1v-1.8h-4.3v-1.4h4.3v-1.6h-4.8v-1.4h2.7c-0.2-0.6-0.5-1.4-0.9-2.1l1.5-0.2
		c0.4,0.7,0.8,1.6,1,2.3h2.7c0.2-0.4,0.6-1.2,1-2.3l1.6,0.2c-0.4,1.2-0.9,1.9-1,2.1h2.7v1.4h-4.9v1.6h4.4v1.4h-4.4v1.8h5.2v1.4h-5.2
		v0.7c0.7,1.9,2.5,4.4,5.5,5.7L-92.5-253.1z M-102.7-260.6c0.3,0.2,1.4,0.9,2.5,2.1l-1.1,1.1c-0.6-0.7-1.5-1.5-2.4-2.1L-102.7-260.6
		z M-95.3-258.5c0.7-0.6,1.5-1.5,2-2.2l1.3,0.9c-0.6,0.9-1.3,1.6-2.1,2.2L-95.3-258.5z"/>
	<path d="M-53.8-268.7v14.3h-14.8v-14.3H-53.8z M-55.6-267h-11.1v10.9h11.1V-267z"/>
	<path d="M-37.2-268.2l2.3,2.6v10.9h-13.8v-1.8h11.9v-10.1h-11.7v-1.8H-37.2z M-36.2-270.9c1,1.1,1.6,1.9,2.5,3.5l-1.2,0.9
		c-0.8-1.6-1.3-2.2-2.4-3.6L-36.2-270.9z M-33.4-271.9c1,1.1,1.8,2.3,2.5,3.5l-1.3,0.9c-0.8-1.5-1.3-2.4-2.4-3.6L-33.4-271.9z"/>
	<path d="M-27.5-253.2l-0.7-1.6c5.1-0.9,6.7-2.8,6.8-7.8h-7.8v-1.7h16.3v1.7h-6.6C-19.8-256.9-22-254.4-27.5-253.2z M-16.8-269.5
		v1.7h-10.9v-1.7H-16.8z M-15.2-271.3c0.6,1.3,0.9,2.4,1.3,4.1l-1.5,0.5c-0.3-1.7-0.6-2.6-1.2-4.1L-15.2-271.3z M-12.2-271.7
		c0.6,1.3,0.9,2.5,1.2,4.1l-1.5,0.5c-0.3-1.7-0.5-2.6-1.1-4.2L-12.2-271.7z"/>
	<path d="M-4.7-259.2h-1.8v-5.3h-3.3v-1.7h3.3v-3.8h1.8v3.8h6.5v-3.9h1.7l0.1,3.9h3.7v1.7H3.6v2.6c0,2.9-0.5,7.7-8.8,8.7l-0.7-1.7
		c7.7-0.6,7.7-5.1,7.7-7v-2.6h-6.5V-259.2z M5.2-271.5c0.5,1.3,0.7,2.5,1,4.2L4.7-267c-0.2-1.7-0.4-2.5-0.9-4.1L5.2-271.5z M8-271.9
		c0.6,1.5,0.8,2.5,1,4.2l-1.5,0.3c-0.2-1.7-0.4-2.6-0.9-4.1L8-271.9z"/>
	<path d="M21-253.2h-1.9v-9.3c-2.7,1.9-5.3,3.1-7.9,4l-0.9-1.7c5.7-1.8,10.6-5.4,14.3-10.1l1.7,1.1c-0.9,1-2.5,3-5.3,5.2V-253.2z"/>
	<path d="M37.2-264.5c-1.2-0.8-3.3-2-6.2-2.9L32-269c3.5,1.1,5.7,2.5,6.3,2.8L37.2-264.5z M31.5-255.8c10.1-0.5,13.1-7.6,14.5-12.1
		l1.6,1.2c-1,2.8-4.2,12.2-15.7,12.9L31.5-255.8z"/>
</g>
<line class="st9" x1="-291.1" y1="485" x2="247.4" y2="485"/>
<line class="st9" x1="-291.1" y1="-237.9" x2="247.4" y2="-237.9"/>
<g>
	<path class="st2" d="M-176.7,382.5c1.8-2.1,2.9-4.8,2.9-7.4v-22.8l-92.7-24.8v30.9L-176.7,382.5z"/>
	<path class="st3" d="M-180,335.3c6.8-1.8,12.4-8.9,12.4-15.7v-30.9l-86.5,23.2c-6.8,1.8-12.4,8.9-12.4,15.7v30.9L-180,335.3z"/>
	<polygon class="st1" points="-208.9,343 -266.5,327.6 -266.5,358.5 	"/>
	<path class="st4" d="M-182.9,386.7c5-1.3,9.1-6.5,9.1-11.5v-22.8l-9.1,2.4l-55.9,15c-5,1.3-9.1,6.5-9.1,11.5v22.8L-182.9,386.7z"/>
	<path class="st5" d="M-231.5,367.9l54.8,14.7c0.7-0.8,1.2-1.7,1.7-2.6c0,0,0,0,0,0c0.1-0.3,0.3-0.6,0.4-0.8c0,0,0-0.1,0-0.1
		c0.1-0.3,0.2-0.5,0.3-0.8c0-0.1,0-0.1,0.1-0.2c0.1-0.2,0.1-0.5,0.2-0.8c0-0.1,0-0.1,0.1-0.2c0-0.2,0.1-0.5,0.1-0.7
		c0-0.1,0-0.2,0-0.2c0-0.3,0.1-0.6,0.1-1v-22.8l-9.1,2.4L-231.5,367.9z"/>
	<path class="st6" d="M-257.5,264.7c-1.8,2.1-2.9,4.8-2.9,7.4v22.8l92.7,24.8v-30.9L-257.5,264.7z"/>
	<polygon class="st1" points="-225.3,304.2 -167.6,319.6 -167.6,288.7 	"/>
	<path class="st7" d="M-251.2,260.5c-5,1.3-9.1,6.5-9.1,11.5v22.8l9.1-2.4l55.9-15c5-1.3,9.1-6.5,9.1-11.5v-22.8L-251.2,260.5z"/>
	<path class="st8" d="M-202.7,279.3l-54.8-14.7c-0.7,0.8-1.2,1.7-1.7,2.6c0,0,0,0,0,0c-0.1,0.3-0.3,0.6-0.4,0.8c0,0,0,0.1,0,0.1
		c-0.1,0.3-0.2,0.5-0.3,0.8c0,0.1,0,0.1-0.1,0.2c-0.1,0.2-0.1,0.5-0.2,0.8c0,0.1,0,0.1-0.1,0.2c0,0.2-0.1,0.5-0.1,0.7
		c0,0.1,0,0.2,0,0.2c0,0.3-0.1,0.6-0.1,1v22.8l9.1-2.4L-202.7,279.3z"/>
</g>
<g>
	<path class="st3" d="M-122.2,376.3h2.6c0,1.4,0.5,2.6,1.4,3.5c0.9,0.9,2.2,1.3,3.8,1.3c1.5,0,2.8-0.3,3.7-1
		c0.9-0.7,1.3-1.5,1.3-2.7c0-1.5-1.7-2.7-5-3.5c-0.2,0-0.4-0.1-0.5-0.1c-2.7-0.6-4.5-1.4-5.4-2.1c-0.9-0.8-1.3-1.9-1.3-3.4
		c0-1.8,0.7-3.2,2-4.3c1.3-1.1,3-1.6,5.2-1.6c2.2,0,3.9,0.6,5.2,1.7c1.3,1.1,1.9,2.7,1.9,4.7l-2.6,0c-0.1-1.3-0.5-2.4-1.4-3.1
		s-1.9-1.1-3.4-1.1c-1.3,0-2.4,0.3-3.2,0.9c-0.8,0.6-1.2,1.4-1.2,2.3c0,1.5,1.6,2.7,4.9,3.5c0.5,0.1,0.9,0.2,1.1,0.3l0.3,0.1
		c2.2,0.5,3.6,1.1,4.3,1.7c0.5,0.5,0.9,1,1.2,1.6c0.3,0.6,0.4,1.4,0.4,2.2c0,1.9-0.7,3.5-2.1,4.6c-1.4,1.1-3.2,1.7-5.6,1.7
		c-2.4,0-4.3-0.6-5.7-1.8S-122.1,378.5-122.2,376.3z"/>
	<path class="st3" d="M-86.4,382.8v-8.9c0-1.5-0.2-2.5-0.6-3c-0.4-0.5-1.1-0.8-2.1-0.8c-1.2,0-2.1,0.4-2.7,1.1c-0.7,0.7-1,1.8-1,3.1
		v8.6h-2.5v-8.9c0-1.5-0.2-2.5-0.6-3s-1.1-0.8-2.1-0.8c-1.2,0-2.1,0.4-2.7,1.1c-0.7,0.7-1,1.8-1,3.1v8.6h-2.4v-14.5h2.3v2
		c0.5-0.8,1.2-1.4,1.9-1.8c0.7-0.4,1.6-0.6,2.6-0.6c0.9,0,1.7,0.2,2.3,0.5c0.6,0.4,1.2,0.9,1.7,1.7c0.6-0.8,1.3-1.4,2.1-1.7
		c0.8-0.4,1.6-0.5,2.6-0.5c0.9,0,1.8,0.2,2.5,0.5c0.7,0.3,1.2,0.8,1.6,1.5c0.2,0.4,0.4,0.8,0.4,1.3c0.1,0.5,0.1,1.3,0.1,2.4v0.4v8.7
		H-86.4z"/>
	<path class="st3" d="M-71.9,380.9c-0.8,0.8-1.6,1.4-2.4,1.8c-0.9,0.4-1.8,0.6-2.7,0.6c-1.5,0-2.6-0.4-3.5-1.2
		c-0.8-0.8-1.2-1.8-1.2-3.2c0-1.3,0.4-2.4,1.2-3.1c0.8-0.8,2.1-1.2,3.7-1.5c0.4,0,1-0.1,1.7-0.2c1.2-0.1,2-0.2,2.3-0.4
		c0.3-0.1,0.5-0.3,0.6-0.4c0.1-0.2,0.1-0.6,0.1-1.1c0-0.7-0.3-1.3-0.8-1.7c-0.5-0.4-1.4-0.6-2.5-0.6c-1.1,0-2,0.2-2.6,0.7
		c-0.6,0.5-0.9,1.1-0.9,2h-2.3v-0.1c0-1.5,0.5-2.6,1.5-3.5c1-0.9,2.5-1.3,4.3-1.3c1.9,0,3.4,0.4,4.3,1.1c0.9,0.7,1.4,1.9,1.4,3.4
		v7.3c0,0.6,0.1,1,0.2,1.2c0.1,0.2,0.4,0.3,0.7,0.3c0.1,0,0.2,0,0.3,0c0.1,0,0.2,0,0.4-0.1v1.9c-0.3,0.1-0.6,0.1-0.8,0.2
		c-0.2,0-0.4,0-0.6,0c-0.8,0-1.4-0.2-1.8-0.5C-71.7,382.2-71.9,381.7-71.9,380.9L-71.9,380.9z M-72.1,375.4
		c-0.7,0.4-1.8,0.6-3.4,0.8c-0.6,0.1-1,0.1-1.3,0.2c-0.9,0.1-1.5,0.4-1.9,0.8c-0.4,0.4-0.6,0.9-0.6,1.7c0,0.7,0.2,1.3,0.7,1.7
		c0.5,0.4,1.1,0.6,1.9,0.6c1.3,0,2.4-0.3,3.2-1c0.8-0.7,1.3-1.5,1.3-2.5V375.4z"/>
	<path class="st3" d="M-65.2,382.8v-14.5h2.4v2.6c0.4-1,0.9-1.7,1.6-2.2s1.5-0.7,2.4-0.7c0.2,0,0.3,0,0.4,0c0.1,0,0.2,0,0.2,0v2.6
		c-0.1,0-0.1,0-0.2,0c-0.1,0-0.2,0-0.4,0c-1.3,0-2.3,0.4-3,1.1c-0.7,0.7-1,1.7-1,3.1v8.1H-65.2z"/>
	<path class="st3" d="M-52,379.2c0,0.7,0.1,1.1,0.3,1.3c0.2,0.2,0.5,0.3,1,0.3c0.1,0,0.3,0,0.5,0c0.2,0,0.5,0,0.8-0.1v2.1
		c-0.4,0.1-0.8,0.1-1.1,0.2c-0.3,0-0.6,0.1-0.9,0.1c-1.1,0-2-0.2-2.4-0.7c-0.5-0.4-0.7-1.2-0.7-2.4v-9.8h-2.2v-1.9h2.2v-4.1h2.4v4.1
		h2.6v1.9H-52V379.2z"/>
	<path class="st3" d="M-38,382.8v-20h2.7v20H-38z"/>
	<path class="st3" d="M-20.8,381.1c-0.6,0.8-1.2,1.3-2,1.7s-1.6,0.6-2.6,0.6c-2,0-3.5-0.7-4.7-2.1c-1.2-1.4-1.8-3.3-1.8-5.6
		c0-2.3,0.6-4.2,1.8-5.6c1.2-1.4,2.8-2.1,4.8-2.1c1,0,1.8,0.2,2.5,0.5c0.7,0.4,1.4,1,2,1.8v-1.8h2.4v14.2c0,2.2-0.5,3.9-1.6,4.9
		c-1.1,1-2.8,1.5-5.2,1.5c-1.9,0-3.4-0.4-4.5-1.1c-1.1-0.8-1.6-1.8-1.6-3.1v-0.1h2.4v0.1c0,0.8,0.3,1.3,1,1.7
		c0.6,0.4,1.6,0.6,2.9,0.6c1.5,0,2.6-0.3,3.3-0.9c0.7-0.6,1-1.6,1-2.9V381.1z M-25.1,370c-1.4,0-2.4,0.5-3.2,1.4
		c-0.7,1-1.1,2.3-1.1,4.1c0,1.7,0.4,3.1,1.1,4.1c0.8,1,1.8,1.5,3.2,1.5c1.5,0,2.6-0.4,3.3-1.3c0.7-0.9,1.1-2.3,1.1-4.1
		c0-1.9-0.4-3.3-1.1-4.2C-22.5,370.5-23.6,370-25.1,370z"/>
	<path class="st3" d="M-4.5,382.8v-8.9c0-1.4-0.2-2.4-0.7-3c-0.4-0.5-1.2-0.8-2.3-0.8c-1.4,0-2.4,0.4-3.2,1.2
		c-0.8,0.8-1.1,1.9-1.1,3.3v8.3h-2.4v-14.5h2.3v2.1c0.6-0.8,1.2-1.5,2-1.9c0.8-0.4,1.7-0.6,2.7-0.6c1.1,0,2,0.2,2.8,0.5
		c0.8,0.3,1.3,0.8,1.7,1.5c0.2,0.4,0.4,0.8,0.5,1.2c0.1,0.5,0.1,1.2,0.1,2.3v0.7v8.7H-4.5z"/>
	<path class="st3" d="M2.2,365.6v-2.8h2.4v2.8H2.2z M2.2,382.8v-14.5h2.4v14.5H2.2z"/>
	<path class="st3" d="M11.8,379.2c0,0.7,0.1,1.1,0.3,1.3c0.2,0.2,0.5,0.3,1,0.3c0.1,0,0.3,0,0.5,0c0.2,0,0.5,0,0.8-0.1v2.1
		c-0.4,0.1-0.8,0.1-1.1,0.2c-0.3,0-0.6,0.1-0.9,0.1c-1.1,0-2-0.2-2.4-0.7c-0.5-0.4-0.7-1.2-0.7-2.4v-9.8H7.2v-1.9h2.2v-4.1h2.4v4.1
		h2.6v1.9h-2.6V379.2z"/>
	<path class="st3" d="M17.3,365.6v-2.8h2.4v2.8H17.3z M17.3,382.8v-14.5h2.4v14.5H17.3z"/>
	<path class="st3" d="M22.2,375.5c0-2.4,0.6-4.3,1.8-5.7c1.2-1.4,2.9-2,5.1-2c2.2,0,3.9,0.7,5.1,2c1.2,1.4,1.8,3.2,1.8,5.7
		c0,2.4-0.6,4.3-1.8,5.7c-1.2,1.4-2.9,2-5.1,2c-2.2,0-3.9-0.7-5.1-2C22.8,379.9,22.2,378,22.2,375.5z M24.7,375.5
		c0,1.8,0.4,3.2,1.2,4.1s1.9,1.4,3.3,1.4c1.4,0,2.5-0.5,3.3-1.4c0.8-1,1.1-2.3,1.1-4.1c0-1.8-0.4-3.2-1.1-4.1
		c-0.8-1-1.9-1.4-3.3-1.4c-1.4,0-2.6,0.5-3.3,1.4C25.1,372.4,24.7,373.7,24.7,375.5z"/>
	<path class="st3" d="M48.7,382.8v-8.9c0-1.4-0.2-2.4-0.7-3c-0.4-0.5-1.2-0.8-2.3-0.8c-1.4,0-2.4,0.4-3.2,1.2
		c-0.8,0.8-1.1,1.9-1.1,3.3v8.3h-2.4v-14.5h2.3v2.1c0.6-0.8,1.2-1.5,2-1.9c0.8-0.4,1.7-0.6,2.7-0.6c1.1,0,2,0.2,2.8,0.5
		c0.8,0.3,1.3,0.8,1.7,1.5c0.2,0.4,0.4,0.8,0.5,1.2c0.1,0.5,0.1,1.2,0.1,2.3v0.7v8.7H48.7z"/>
	<path class="st3" d="M67.7,382.8v-17.6h-6.3v-2.4h15.3v2.4h-6.3v17.6H67.7z"/>
	<path class="st3" d="M85.3,378.1h2.4c-0.3,1.6-1,2.9-2.1,3.8c-1.1,0.9-2.6,1.4-4.3,1.4c-2,0-3.6-0.7-4.8-2
		c-1.2-1.4-1.7-3.2-1.7-5.5c0-2.5,0.6-4.4,1.7-5.8c1.2-1.4,2.8-2.1,4.8-2.1c2.1,0,3.7,0.6,4.8,1.9c1.1,1.3,1.7,3.1,1.7,5.4
		c0,0.3,0,0.5,0,0.7c0,0.1,0,0.3,0,0.4H77.4c0,1.5,0.4,2.7,1.1,3.5c0.7,0.8,1.7,1.3,3.1,1.3c1,0,1.8-0.3,2.5-0.8
		C84.7,379.8,85.1,379.1,85.3,378.1z M77.4,374.2h8c0-1.4-0.4-2.4-1-3.1c-0.7-0.7-1.6-1.1-2.9-1.1c-1.2,0-2.1,0.4-2.8,1.1
		C77.9,371.8,77.5,372.9,77.4,374.2z"/>
	<path class="st3" d="M100.4,373.1c-0.1-1-0.4-1.8-1.1-2.3c-0.6-0.5-1.5-0.8-2.7-0.8c-1.3,0-2.3,0.5-3.1,1.4
		c-0.7,0.9-1.1,2.3-1.1,4.1c0,1.8,0.3,3.1,1,4.1c0.7,1,1.7,1.4,2.9,1.4c1.1,0,2.1-0.3,2.7-0.9c0.7-0.6,1.1-1.4,1.3-2.6h2.3
		c-0.1,1.8-0.8,3.2-1.9,4.2c-1.1,1-2.6,1.5-4.6,1.5c-2,0-3.6-0.7-4.7-2c-1.1-1.4-1.7-3.2-1.7-5.6c0-2.4,0.6-4.3,1.8-5.7
		c1.2-1.4,2.8-2.1,4.9-2.1c1.8,0,3.3,0.5,4.4,1.4c1.1,1,1.7,2.2,1.8,3.9H100.4z"/>
	<path class="st3" d="M115.6,382.8v-8.9c0-1.4-0.2-2.4-0.7-3c-0.4-0.5-1.2-0.8-2.3-0.8c-1.3,0-2.4,0.4-3.1,1.1
		c-0.8,0.7-1.2,1.8-1.2,3v8.6h-2.4v-20h2.4v7.5c0.4-0.8,1.1-1.4,1.8-1.8c0.8-0.4,1.7-0.6,2.7-0.6c1.1,0,2,0.2,2.8,0.5
		c0.8,0.3,1.3,0.8,1.7,1.5c0.2,0.4,0.4,0.8,0.5,1.2c0.1,0.5,0.1,1.2,0.1,2.3v0.7v8.7H115.6z"/>
	<path class="st3" d="M131.9,382.8v-8.9c0-1.4-0.2-2.4-0.7-3c-0.4-0.5-1.2-0.8-2.3-0.8c-1.4,0-2.4,0.4-3.2,1.2
		c-0.8,0.8-1.1,1.9-1.1,3.3v8.3h-2.4v-14.5h2.3v2.1c0.6-0.8,1.2-1.5,2-1.9c0.8-0.4,1.7-0.6,2.7-0.6c1.1,0,2,0.2,2.8,0.5
		c0.8,0.3,1.3,0.8,1.7,1.5c0.2,0.4,0.4,0.8,0.5,1.2c0.1,0.5,0.1,1.2,0.1,2.3v0.7v8.7H131.9z"/>
	<path class="st3" d="M136.7,375.5c0-2.4,0.6-4.3,1.8-5.7c1.2-1.4,2.9-2,5.1-2c2.2,0,3.9,0.7,5.1,2c1.2,1.4,1.8,3.2,1.8,5.7
		c0,2.4-0.6,4.3-1.8,5.7c-1.2,1.4-2.9,2-5.1,2c-2.2,0-3.9-0.7-5.1-2C137.3,379.9,136.7,378,136.7,375.5z M139.2,375.5
		c0,1.8,0.4,3.2,1.2,4.1s1.9,1.4,3.3,1.4c1.4,0,2.5-0.5,3.3-1.4c0.8-1,1.1-2.3,1.1-4.1c0-1.8-0.4-3.2-1.1-4.1
		c-0.8-1-1.9-1.4-3.3-1.4c-1.4,0-2.6,0.5-3.3,1.4C139.6,372.4,139.2,373.7,139.2,375.5z"/>
	<path class="st3" d="M153.7,382.8v-20h2.5v20H153.7z"/>
	<path class="st3" d="M159.2,375.5c0-2.4,0.6-4.3,1.8-5.7c1.2-1.4,2.9-2,5.1-2c2.2,0,3.9,0.7,5.1,2c1.2,1.4,1.8,3.2,1.8,5.7
		c0,2.4-0.6,4.3-1.8,5.7c-1.2,1.4-2.9,2-5.1,2c-2.2,0-3.9-0.7-5.1-2C159.8,379.9,159.2,378,159.2,375.5z M161.7,375.5
		c0,1.8,0.4,3.2,1.2,4.1s1.9,1.4,3.3,1.4c1.4,0,2.5-0.5,3.3-1.4c0.8-1,1.1-2.3,1.1-4.1c0-1.8-0.4-3.2-1.1-4.1
		c-0.8-1-1.9-1.4-3.3-1.4c-1.4,0-2.6,0.5-3.3,1.4C162,372.4,161.7,373.7,161.7,375.5z"/>
	<path class="st3" d="M186.5,381.1c-0.6,0.8-1.2,1.3-2,1.7c-0.8,0.4-1.6,0.6-2.6,0.6c-2,0-3.5-0.7-4.7-2.1c-1.2-1.4-1.8-3.3-1.8-5.6
		c0-2.3,0.6-4.2,1.8-5.6c1.2-1.4,2.8-2.1,4.8-2.1c1,0,1.8,0.2,2.5,0.5c0.7,0.4,1.4,1,2,1.8v-1.8h2.4v14.2c0,2.2-0.5,3.9-1.6,4.9
		c-1.1,1-2.8,1.5-5.2,1.5c-1.9,0-3.4-0.4-4.5-1.1c-1.1-0.8-1.6-1.8-1.6-3.1v-0.1h2.4v0.1c0,0.8,0.3,1.3,1,1.7
		c0.6,0.4,1.6,0.6,2.9,0.6c1.5,0,2.6-0.3,3.3-0.9c0.7-0.6,1-1.6,1-2.9V381.1z M182.2,370c-1.4,0-2.4,0.5-3.2,1.4
		c-0.7,1-1.1,2.3-1.1,4.1c0,1.7,0.4,3.1,1.1,4.1c0.8,1,1.8,1.5,3.2,1.5c1.5,0,2.6-0.4,3.3-1.3c0.7-0.9,1.1-2.3,1.1-4.1
		c0-1.9-0.4-3.3-1.1-4.2C184.7,370.5,183.6,370,182.2,370z"/>
	<path class="st3" d="M202.3,368.3h2.7l-6.1,16.8c-0.6,1.6-1.2,2.6-1.7,3.1c-0.6,0.5-1.4,0.7-2.6,0.7c-0.2,0-0.5,0-0.7-0.1
		c-0.2,0-0.5-0.1-0.7-0.2v-2.3c0.2,0.1,0.5,0.1,0.7,0.2c0.2,0,0.5,0.1,0.7,0.1c0.5,0,0.9-0.1,1.1-0.3c0.3-0.2,0.5-0.5,0.7-0.9
		l0.6-1.7l-5.5-15.4h2.7l4,11.7L202.3,368.3z"/>
</g>
<g>
	<path class="st1" d="M-118.2,334.2c-4.7,0-9.1-0.6-13.2-1.8c-4.1-1.2-7.5-2.6-10.3-4.2l-3.7,3.8h-4.6l-0.7-27.8h4.7
		c1,2.6,2.4,5.4,4,8.4c1.6,2.9,3.5,5.6,5.6,7.9c2.2,2.4,4.7,4.4,7.4,5.9c2.7,1.5,5.9,2.3,9.6,2.3c4.9,0,8.7-1.2,11.3-3.6
		c2.6-2.4,3.9-5.4,3.9-9.1c0-3-1.1-5.5-3.3-7.6c-2.2-2-5.7-3.8-10.3-5.3c-3-1-5.8-1.9-8.4-2.7c-2.6-0.8-4.9-1.7-7.2-2.6
		c-5.2-2.1-9-5-11.5-8.9c-2.5-3.8-3.8-8.1-3.8-12.9c0-3,0.7-5.9,2-8.7c1.3-2.8,3.2-5.3,5.7-7.5c2.4-2.1,5.4-3.7,9.2-5.1
		c3.7-1.3,7.8-2,12.2-2c4.3,0,8.3,0.6,12,1.8c3.7,1.2,6.7,2.4,8.8,3.6l3.3-3.3h4.7l0.4,26.3h-4.7c-1.1-2.8-2.4-5.7-3.8-8.7
		c-1.5-3-3-5.4-4.6-7.4c-1.8-2.1-3.8-3.8-6.1-5c-2.3-1.3-5-1.9-8.1-1.9c-3.9,0-7.1,1.1-9.6,3.3c-2.5,2.2-3.7,4.9-3.7,8.2
		c0,3.1,1.1,5.6,3.2,7.6c2.2,2,5.5,3.7,10.1,5.2c2.7,0.9,5.4,1.8,8.2,2.7s5.3,1.8,7.4,2.6c5.2,2,9.2,4.8,12,8.4
		c2.7,3.6,4.1,8,4.1,13.3c0,3.3-0.8,6.6-2.3,9.7c-1.6,3.1-3.7,5.7-6.3,7.8c-2.9,2.3-6.2,4-10,5.3
		C-108.8,333.6-113.2,334.2-118.2,334.2z"/>
	<path class="st1" d="M-55.8,289.1c0,2.6-1,4.9-2.9,6.8c-1.9,1.9-4.2,2.9-6.9,2.9c-2.7,0-5-1-6.9-2.9c-1.9-1.9-2.9-4.2-2.9-6.8
		c0-2.7,1-4.9,2.9-6.9c1.9-1.9,4.3-2.9,6.9-2.9c2.7,0,4.9,1,6.9,2.9C-56.8,284.2-55.8,286.5-55.8,289.1z M-55.8,320.6
		c0,2.6-1,4.9-2.9,6.8c-1.9,1.9-4.2,2.9-6.9,2.9c-2.7,0-5-1-6.9-2.9c-1.9-1.9-2.9-4.2-2.9-6.8c0-2.7,1-4.9,2.9-6.9
		c1.9-1.9,4.3-2.9,6.9-2.9c2.7,0,4.9,1,6.9,2.9C-56.8,315.7-55.8,318-55.8,320.6z"/>
	<path class="st1" d="M14.9,284.3H3c1.4,1.6,2.5,3.3,3.2,5c0.7,1.8,1.1,3.6,1.1,5.5c0,2.5-0.7,4.8-2,7c-1.3,2.2-3.1,4-5.3,5.3
		c-2.2,1.4-4.8,2.5-7.8,3.3c-3,0.8-6.2,1.2-9.7,1.2h-8.8c-0.4,0.3-0.9,0.8-1.4,1.6c-0.5,0.7-0.8,1.4-0.8,2c0,1.6,0.6,2.7,1.9,3.3
		c1.3,0.6,3.6,1,6.9,1c3.3,0.1,6.6,0.2,10,0.4c3.4,0.2,5.8,0.3,7.2,0.4c2.1,0.1,4.2,0.5,6.2,1.3c2.1,0.7,3.9,1.7,5.4,2.9
		c1.7,1.3,3,2.9,4.1,4.9c1.1,2,1.6,4.2,1.6,6.8c0,2.7-0.7,5.3-2,7.8c-1.3,2.4-3.3,4.5-6,6.3c-2.9,1.8-6.3,3.3-10.3,4.3
		c-4,1-8.9,1.5-14.8,1.5c-9.5,0-16.7-1.2-21.7-3.5c-5-2.3-7.4-5.8-7.4-10.4c0-2.9,1.3-5.2,4-7.1c2.7-1.8,6.8-2.9,12.5-3v-0.7
		c-3.3-1.1-5.9-2.6-7.8-4.5c-1.9-1.9-2.8-4-2.8-6.5c0-1.5,0.4-2.8,1.1-3.9c0.7-1.1,1.7-2,2.8-2.8c1-0.7,2.2-1.3,3.7-1.8
		c1.4-0.5,2.7-0.9,3.6-1.2v-0.6c-4.9-1.8-8.5-4-10.8-6.6c-2.3-2.6-3.4-5.8-3.4-9.5c0-5.3,2.5-9.6,7.4-12.8s11.1-4.8,18.6-4.8
		c2.5,0,4.8,0.2,7.1,0.6s4,0.8,5.2,1.1h21.1V284.3z M-1.5,340.2c0-1.2-0.3-2.5-1-3.7c-0.7-1.2-2.2-2.2-4.6-3
		c-1.3-0.2-3.4-0.4-6.4-0.4c-3-0.1-7.1-0.1-12.3-0.1c-1.3,1.1-2.3,2.4-3.2,3.9c-0.8,1.5-1.3,3.3-1.3,5.4c0,0.9,0.3,1.9,0.8,3
		c0.5,1.1,1.3,2.1,2.4,3c1.3,1,2.7,1.9,4.2,2.5c1.6,0.6,3.9,0.9,7,0.9c4.7,0,8.2-0.9,10.7-2.7C-2.7,347.2-1.5,344.3-1.5,340.2z
		 M-10.6,294.6c0-4.2-0.7-7.6-2-10c-1.3-2.5-3.4-3.7-6.2-3.7c-1.4,0-2.6,0.3-3.7,1c-1.1,0.7-1.9,1.6-2.6,2.9c-0.6,1.2-1,2.7-1.3,4.3
		c-0.2,1.6-0.3,3.3-0.3,5.1c0,3.9,0.7,7.2,2.1,9.7c1.4,2.5,3.3,3.8,5.9,3.8c2.6,0,4.6-1.1,6-3.4C-11.3,302-10.6,298.8-10.6,294.6z"
		/>
	<path class="st1" d="M94.3,332.1H61.7v-4c0.7-0.1,1.5-0.2,2.5-0.3c1-0.1,1.7-0.3,2.2-0.5c0.8-0.4,1.3-1,1.6-1.7
		c0.3-0.8,0.5-1.9,0.5-3.4v-25.4c0-3.7-0.7-6.5-2-8.3c-1.4-1.9-3.4-2.8-6-2.8c-1.5,0-2.8,0.2-4.1,0.7c-1.3,0.4-2.5,1.1-3.7,1.9
		c-1.1,0.7-1.9,1.5-2.5,2.2s-1.2,1.4-1.6,2v29.1c0,1.3,0.2,2.3,0.5,3.2c0.4,0.9,1,1.5,1.8,1.9c0.6,0.3,1.3,0.6,2.2,0.9
		c0.9,0.3,1.7,0.4,2.6,0.5v4h-33v-4c0.9-0.1,1.8-0.2,2.7-0.3c0.9-0.1,1.7-0.3,2.4-0.5c1.2-0.4,2-1,2.4-1.8c0.4-0.8,0.7-1.9,0.7-3.3
		v-31.6c0-1.1-0.3-2.2-0.9-3.3c-0.6-1.1-1.3-2-2.3-2.7c-0.7-0.4-1.5-0.8-2.5-1.1c-1-0.3-2.1-0.5-3.3-0.6v-4l25.9-1.4l0.8,0.8v7.9
		h0.2c1-0.9,2.2-2,3.7-3.3c1.4-1.3,2.8-2.3,4-3.1c1.3-0.9,3.1-1.6,5.3-2.2c2.2-0.6,4.5-0.9,6.9-0.9c5.9,0,10.3,1.7,13.3,5
		s4.4,7.8,4.4,13.3v26.6c0,1.3,0.2,2.4,0.6,3.2c0.4,0.8,1.1,1.4,2.2,1.9c0.6,0.3,1.3,0.5,2.1,0.8c0.9,0.3,1.8,0.4,2.9,0.5V332.1z"/>
	<path class="st1" d="M120.3,289.1c0,2.6-1,4.9-2.9,6.8c-1.9,1.9-4.2,2.9-6.9,2.9c-2.7,0-5-1-6.9-2.9c-1.9-1.9-2.9-4.2-2.9-6.8
		c0-2.7,1-4.9,2.9-6.9c1.9-1.9,4.3-2.9,6.9-2.9c2.7,0,4.9,1,6.9,2.9C119.3,284.2,120.3,286.5,120.3,289.1z M120.3,320.6
		c0,2.6-1,4.9-2.9,6.8c-1.9,1.9-4.2,2.9-6.9,2.9c-2.7,0-5-1-6.9-2.9c-1.9-1.9-2.9-4.2-2.9-6.8c0-2.7,1-4.9,2.9-6.9
		c1.9-1.9,4.3-2.9,6.9-2.9c2.7,0,4.9,1,6.9,2.9C119.3,315.7,120.3,318,120.3,320.6z"/>
	<path class="st1" d="M172.6,329.6c-2.3,1-4.8,1.9-7.4,2.7c-2.6,0.8-5.9,1.2-9.7,1.2c-5.6,0-9.8-1.4-12.6-4.1
		c-2.7-2.7-4.1-6.7-4.1-11.8v-33.3h-9.8v-5.9h10V262h17.6v16.4h15.2v5.9h-15.1v29.7c0,4.2,0.6,7.2,1.8,9c1.2,1.8,3.3,2.7,6.3,2.7
		c1,0,2.3-0.1,4.1-0.2c1.7-0.1,3-0.3,3.6-0.5V329.6z"/>
	<path class="st1" d="M234.7,319.1c-1.3,2.1-2.8,4-4.6,5.8c-1.8,1.8-3.8,3.4-6.1,4.7c-2.4,1.4-4.9,2.4-7.4,3.1s-5.3,1.1-8.5,1.1
		c-5.4,0-10-0.8-13.9-2.3c-3.9-1.5-7.1-3.6-9.6-6.1c-2.5-2.6-4.4-5.6-5.7-9.1c-1.2-3.5-1.9-7.3-1.9-11.4c0-3.7,0.7-7.2,2-10.6
		c1.4-3.4,3.3-6.4,5.8-9c2.5-2.6,5.6-4.6,9.3-6.2c3.7-1.6,7.9-2.4,12.6-2.4c5.1,0,9.2,0.6,12.5,1.8c3.3,1.2,6,2.9,8.1,5.1
		c2.1,2.1,3.6,4.5,4.5,7.3c0.9,2.8,1.4,5.7,1.4,8.8v3.5h-36.7c0,7.4,1.4,13.1,4.3,16.9c2.9,3.9,7.4,5.8,13.6,5.8
		c3.4,0,6.5-0.9,9.2-2.8c2.7-1.9,5-4.2,6.9-7.1L234.7,319.1z M214,298.5c0-2.2-0.1-4.4-0.3-6.7c-0.2-2.3-0.6-4.1-1.1-5.6
		c-0.6-1.7-1.5-3-2.5-3.9c-1.1-0.9-2.4-1.3-4-1.3c-2.8,0-5,1.4-6.7,4.2c-1.7,2.8-2.6,7.3-2.7,13.4L214,298.5z"/>
</g>
<g>
	<path class="st2" d="M397.9-64.9c0.7-0.8,1.1-1.9,1.1-2.9v-9l-36.8-9.9v12.3L397.9-64.9z"/>
	<path class="st3" d="M396.6-83.7c2.7-0.7,4.9-3.5,4.9-6.2v-12.3L367.2-93c-2.7,0.7-4.9,3.5-4.9,6.2v12.3L396.6-83.7z"/>
	<polygon class="st1" points="385.1,-80.6 362.2,-86.8 362.2,-74.5 	"/>
	<path class="st4" d="M395.4-63.3c2-0.5,3.6-2.6,3.6-4.6v-9l-3.6,1l-22.2,6c-2,0.5-3.6,2.6-3.6,4.6v9L395.4-63.3z"/>
	<path class="st5" d="M376.2-70.8l21.8,5.8c0.3-0.3,0.5-0.7,0.7-1c0,0,0,0,0,0c0.1-0.1,0.1-0.2,0.1-0.3c0,0,0,0,0,0
		c0-0.1,0.1-0.2,0.1-0.3c0,0,0,0,0-0.1c0-0.1,0.1-0.2,0.1-0.3c0,0,0-0.1,0-0.1c0-0.1,0-0.2,0-0.3c0,0,0-0.1,0-0.1c0-0.1,0-0.3,0-0.4
		v-9l-3.6,1L376.2-70.8z"/>
	<path class="st6" d="M365.8-111.7c-0.7,0.8-1.1,1.9-1.1,2.9v9l36.8,9.9v-12.3L365.8-111.7z"/>
	<polygon class="st1" points="378.6,-96 401.5,-89.9 401.5,-102.2 	"/>
	<path class="st7" d="M368.3-113.4c-2,0.5-3.6,2.6-3.6,4.6v9l3.6-1l22.2-6c2-0.5,3.6-2.6,3.6-4.6v-9L368.3-113.4z"/>
	<path class="st8" d="M387.6-105.9l-21.8-5.8c-0.3,0.3-0.5,0.7-0.7,1c0,0,0,0,0,0c-0.1,0.1-0.1,0.2-0.1,0.3c0,0,0,0,0,0
		c0,0.1-0.1,0.2-0.1,0.3c0,0,0,0,0,0.1c0,0.1-0.1,0.2-0.1,0.3c0,0,0,0.1,0,0.1c0,0.1,0,0.2,0,0.3c0,0,0,0.1,0,0.1c0,0.1,0,0.3,0,0.4
		v9l3.6-1L387.6-105.9z"/>
</g>
<g>
	<path class="st3" d="M429.3-64.4h1.1c0,0.6,0.2,1.1,0.6,1.5c0.4,0.4,0.9,0.6,1.6,0.6c0.7,0,1.2-0.1,1.6-0.4
		c0.4-0.3,0.6-0.7,0.6-1.1c0-0.7-0.7-1.2-2.2-1.5c-0.1,0-0.2,0-0.2,0c-1.2-0.3-1.9-0.6-2.3-0.9c-0.4-0.3-0.6-0.8-0.6-1.5
		c0-0.8,0.3-1.4,0.8-1.9c0.6-0.5,1.3-0.7,2.2-0.7c1,0,1.7,0.2,2.3,0.7c0.5,0.5,0.8,1.2,0.8,2l-1.1,0c0-0.6-0.2-1-0.6-1.3
		c-0.4-0.3-0.8-0.5-1.5-0.5c-0.6,0-1,0.1-1.4,0.4c-0.3,0.3-0.5,0.6-0.5,1c0,0.7,0.7,1.2,2.1,1.5c0.2,0.1,0.4,0.1,0.5,0.1l0.1,0
		c0.9,0.2,1.5,0.5,1.9,0.7c0.2,0.2,0.4,0.4,0.5,0.7c0.1,0.3,0.2,0.6,0.2,0.9c0,0.8-0.3,1.5-0.9,2s-1.4,0.7-2.4,0.7
		c-1,0-1.9-0.3-2.4-0.8S429.3-63.4,429.3-64.4z"/>
	<path class="st3" d="M444.7-61.5v-3.9c0-0.6-0.1-1.1-0.3-1.3c-0.2-0.2-0.5-0.3-0.9-0.3c-0.5,0-0.9,0.2-1.2,0.5
		c-0.3,0.3-0.4,0.8-0.4,1.3v3.7h-1.1v-3.9c0-0.6-0.1-1.1-0.3-1.3c-0.2-0.2-0.5-0.3-0.9-0.3c-0.5,0-0.9,0.2-1.2,0.5
		c-0.3,0.3-0.4,0.8-0.4,1.3v3.7h-1.1v-6.3h1v0.9c0.2-0.4,0.5-0.6,0.8-0.8c0.3-0.2,0.7-0.3,1.1-0.3c0.4,0,0.7,0.1,1,0.2
		c0.3,0.2,0.5,0.4,0.7,0.7c0.3-0.3,0.6-0.6,0.9-0.7c0.3-0.2,0.7-0.2,1.1-0.2c0.4,0,0.8,0.1,1.1,0.2c0.3,0.1,0.5,0.4,0.7,0.6
		c0.1,0.2,0.2,0.4,0.2,0.6c0,0.2,0.1,0.6,0.1,1.1v0.2v3.8H444.7z"/>
	<path class="st3" d="M451-62.4c-0.3,0.3-0.7,0.6-1,0.8c-0.4,0.2-0.8,0.3-1.2,0.3c-0.6,0-1.1-0.2-1.5-0.5c-0.4-0.3-0.5-0.8-0.5-1.4
		c0-0.6,0.2-1,0.5-1.3c0.4-0.3,0.9-0.5,1.6-0.6c0.2,0,0.4,0,0.7-0.1c0.5-0.1,0.9-0.1,1-0.2c0.1,0,0.2-0.1,0.2-0.2
		c0-0.1,0.1-0.2,0.1-0.5c0-0.3-0.1-0.6-0.4-0.7c-0.2-0.2-0.6-0.2-1.1-0.2c-0.5,0-0.9,0.1-1.1,0.3c-0.2,0.2-0.4,0.5-0.4,0.9h-1v0
		c0-0.6,0.2-1.1,0.7-1.5c0.4-0.4,1.1-0.6,1.8-0.6c0.8,0,1.5,0.2,1.9,0.5c0.4,0.3,0.6,0.8,0.6,1.5v3.1c0,0.3,0,0.4,0.1,0.5
		c0.1,0.1,0.2,0.1,0.3,0.1c0,0,0.1,0,0.1,0c0,0,0.1,0,0.2,0v0.8c-0.1,0-0.2,0.1-0.3,0.1c-0.1,0-0.2,0-0.3,0c-0.4,0-0.6-0.1-0.8-0.2
		C451.1-61.8,451-62,451-62.4L451-62.4z M450.9-64.7c-0.3,0.2-0.8,0.3-1.4,0.4c-0.2,0-0.4,0.1-0.5,0.1c-0.4,0.1-0.7,0.2-0.8,0.3
		c-0.2,0.2-0.3,0.4-0.3,0.7s0.1,0.6,0.3,0.7c0.2,0.2,0.5,0.3,0.8,0.3c0.6,0,1-0.1,1.4-0.4c0.4-0.3,0.5-0.7,0.5-1.1V-64.7z"/>
	<path class="st3" d="M453.9-61.5v-6.3h1v1.1c0.2-0.4,0.4-0.7,0.7-0.9c0.3-0.2,0.6-0.3,1.1-0.3c0.1,0,0.1,0,0.2,0c0,0,0.1,0,0.1,0
		v1.1c0,0-0.1,0-0.1,0c0,0-0.1,0-0.2,0c-0.6,0-1,0.2-1.3,0.5c-0.3,0.3-0.4,0.8-0.4,1.3v3.5H453.9z"/>
	<path class="st3" d="M459.6-63.1c0,0.3,0,0.5,0.1,0.6c0.1,0.1,0.2,0.1,0.4,0.1c0.1,0,0.1,0,0.2,0c0.1,0,0.2,0,0.3,0v0.9
		c-0.2,0-0.3,0.1-0.5,0.1c-0.1,0-0.3,0-0.4,0c-0.5,0-0.8-0.1-1-0.3c-0.2-0.2-0.3-0.5-0.3-1V-67h-0.9v-0.8h0.9v-1.8h1.1v1.8h1.1v0.8
		h-1.1V-63.1z"/>
	<path class="st3" d="M465.6-61.5v-8.6h1.2v8.6H465.6z"/>
	<path class="st3" d="M473.1-62.3c-0.2,0.3-0.5,0.6-0.9,0.7c-0.3,0.2-0.7,0.2-1.1,0.2c-0.8,0-1.5-0.3-2-0.9
		c-0.5-0.6-0.8-1.4-0.8-2.4c0-1,0.3-1.8,0.8-2.4c0.5-0.6,1.2-0.9,2.1-0.9c0.4,0,0.8,0.1,1.1,0.2c0.3,0.2,0.6,0.4,0.9,0.8v-0.8h1v6.1
		c0,1-0.2,1.7-0.7,2.1c-0.5,0.4-1.2,0.6-2.2,0.6c-0.8,0-1.5-0.2-2-0.5c-0.5-0.3-0.7-0.8-0.7-1.3v0h1v0c0,0.3,0.1,0.6,0.4,0.7
		c0.3,0.2,0.7,0.2,1.2,0.2c0.7,0,1.1-0.1,1.4-0.4c0.3-0.3,0.4-0.7,0.4-1.3V-62.3z M471.2-67c-0.6,0-1.1,0.2-1.4,0.6
		c-0.3,0.4-0.5,1-0.5,1.8c0,0.8,0.2,1.3,0.5,1.8c0.3,0.4,0.8,0.6,1.4,0.6c0.6,0,1.1-0.2,1.4-0.6c0.3-0.4,0.5-1,0.5-1.8
		c0-0.8-0.2-1.4-0.5-1.8C472.3-66.8,471.9-67,471.2-67z"/>
	<path class="st3" d="M480.1-61.5v-3.9c0-0.6-0.1-1-0.3-1.3c-0.2-0.2-0.5-0.4-1-0.4c-0.6,0-1,0.2-1.4,0.5s-0.5,0.8-0.5,1.4v3.6H476
		v-6.3h1v0.9c0.2-0.4,0.5-0.6,0.9-0.8c0.3-0.2,0.7-0.3,1.2-0.3c0.5,0,0.9,0.1,1.2,0.2c0.3,0.1,0.6,0.4,0.8,0.6
		c0.1,0.2,0.2,0.3,0.2,0.5c0,0.2,0.1,0.5,0.1,1v0.3v3.8H480.1z"/>
	<path class="st3" d="M483-68.9v-1.2h1.1v1.2H483z M483-61.5v-6.3h1.1v6.3H483z"/>
	<path class="st3" d="M487.2-63.1c0,0.3,0,0.5,0.1,0.6c0.1,0.1,0.2,0.1,0.4,0.1c0.1,0,0.1,0,0.2,0c0.1,0,0.2,0,0.3,0v0.9
		c-0.2,0-0.3,0.1-0.5,0.1c-0.1,0-0.3,0-0.4,0c-0.5,0-0.8-0.1-1-0.3c-0.2-0.2-0.3-0.5-0.3-1V-67h-0.9v-0.8h0.9v-1.8h1.1v1.8h1.1v0.8
		h-1.1V-63.1z"/>
	<path class="st3" d="M489.5-68.9v-1.2h1.1v1.2H489.5z M489.5-61.5v-6.3h1.1v6.3H489.5z"/>
	<path class="st3" d="M491.6-64.7c0-1.1,0.3-1.9,0.8-2.5c0.5-0.6,1.3-0.9,2.2-0.9c1,0,1.7,0.3,2.2,0.9c0.5,0.6,0.8,1.4,0.8,2.5
		c0,1.1-0.3,1.9-0.8,2.5c-0.5,0.6-1.3,0.9-2.2,0.9c-1,0-1.7-0.3-2.2-0.9C491.9-62.8,491.6-63.6,491.6-64.7z M492.7-64.7
		c0,0.8,0.2,1.4,0.5,1.8c0.3,0.4,0.8,0.6,1.4,0.6c0.6,0,1.1-0.2,1.4-0.6c0.3-0.4,0.5-1,0.5-1.8c0-0.8-0.2-1.4-0.5-1.8
		c-0.3-0.4-0.8-0.6-1.4-0.6c-0.6,0-1.1,0.2-1.4,0.6C492.9-66,492.7-65.4,492.7-64.7z"/>
	<path class="st3" d="M503.1-61.5v-3.9c0-0.6-0.1-1-0.3-1.3c-0.2-0.2-0.5-0.4-1-0.4c-0.6,0-1,0.2-1.4,0.5c-0.3,0.3-0.5,0.8-0.5,1.4
		v3.6h-1.1v-6.3h1v0.9c0.2-0.4,0.5-0.6,0.9-0.8c0.3-0.2,0.7-0.3,1.2-0.3c0.5,0,0.9,0.1,1.2,0.2c0.3,0.1,0.6,0.4,0.8,0.6
		c0.1,0.2,0.2,0.3,0.2,0.5c0,0.2,0.1,0.5,0.1,1v0.3v3.8H503.1z"/>
	<path class="st3" d="M511.3-61.5v-7.6h-2.7v-1h6.6v1h-2.7v7.6H511.3z"/>
	<path class="st3" d="M518.9-63.5h1c-0.1,0.7-0.4,1.2-0.9,1.6c-0.5,0.4-1.1,0.6-1.8,0.6c-0.9,0-1.6-0.3-2.1-0.9
		c-0.5-0.6-0.8-1.4-0.8-2.4c0-1.1,0.3-1.9,0.8-2.5c0.5-0.6,1.2-0.9,2.1-0.9c0.9,0,1.6,0.3,2.1,0.8c0.5,0.6,0.7,1.3,0.7,2.3
		c0,0.1,0,0.2,0,0.3c0,0.1,0,0.1,0,0.2h-4.5c0,0.7,0.2,1.2,0.5,1.5c0.3,0.4,0.8,0.5,1.3,0.5c0.4,0,0.8-0.1,1.1-0.3
		C518.7-62.8,518.8-63.1,518.9-63.5z M515.5-65.2h3.4c0-0.6-0.2-1-0.4-1.4c-0.3-0.3-0.7-0.5-1.2-0.5c-0.5,0-0.9,0.2-1.2,0.5
		C515.7-66.3,515.6-65.8,515.5-65.2z"/>
	<path class="st3" d="M525.4-65.7c0-0.4-0.2-0.8-0.5-1s-0.7-0.3-1.1-0.3c-0.6,0-1,0.2-1.3,0.6c-0.3,0.4-0.5,1-0.5,1.8
		c0,0.8,0.1,1.4,0.4,1.8c0.3,0.4,0.7,0.6,1.3,0.6c0.5,0,0.9-0.1,1.2-0.4c0.3-0.3,0.5-0.6,0.5-1.1h1c-0.1,0.8-0.3,1.4-0.8,1.8
		c-0.5,0.4-1.1,0.6-2,0.6c-0.9,0-1.5-0.3-2-0.9c-0.5-0.6-0.7-1.4-0.7-2.4c0-1.1,0.3-1.9,0.8-2.5c0.5-0.6,1.2-0.9,2.1-0.9
		c0.8,0,1.4,0.2,1.9,0.6c0.5,0.4,0.7,1,0.8,1.7H525.4z"/>
	<path class="st3" d="M532-61.5v-3.9c0-0.6-0.1-1-0.3-1.3c-0.2-0.2-0.5-0.4-1-0.4c-0.6,0-1,0.2-1.4,0.5c-0.3,0.3-0.5,0.8-0.5,1.3
		v3.7h-1.1v-8.6h1.1v3.2c0.2-0.3,0.5-0.6,0.8-0.8c0.3-0.2,0.7-0.3,1.2-0.3c0.5,0,0.9,0.1,1.2,0.2c0.3,0.1,0.6,0.4,0.8,0.6
		c0.1,0.2,0.2,0.3,0.2,0.5c0,0.2,0.1,0.5,0.1,1v0.3v3.8H532z"/>
	<path class="st3" d="M539-61.5v-3.9c0-0.6-0.1-1-0.3-1.3c-0.2-0.2-0.5-0.4-1-0.4c-0.6,0-1,0.2-1.4,0.5c-0.3,0.3-0.5,0.8-0.5,1.4
		v3.6h-1.1v-6.3h1v0.9c0.2-0.4,0.5-0.6,0.9-0.8c0.3-0.2,0.7-0.3,1.2-0.3c0.5,0,0.9,0.1,1.2,0.2c0.3,0.1,0.6,0.4,0.8,0.6
		c0.1,0.2,0.2,0.3,0.2,0.5c0,0.2,0.1,0.5,0.1,1v0.3v3.8H539z"/>
	<path class="st3" d="M541.1-64.7c0-1.1,0.3-1.9,0.8-2.5c0.5-0.6,1.3-0.9,2.2-0.9c1,0,1.7,0.3,2.2,0.9c0.5,0.6,0.8,1.4,0.8,2.5
		c0,1.1-0.3,1.9-0.8,2.5c-0.5,0.6-1.3,0.9-2.2,0.9c-1,0-1.7-0.3-2.2-0.9C541.4-62.8,541.1-63.6,541.1-64.7z M542.2-64.7
		c0,0.8,0.2,1.4,0.5,1.8c0.3,0.4,0.8,0.6,1.4,0.6c0.6,0,1.1-0.2,1.4-0.6c0.3-0.4,0.5-1,0.5-1.8c0-0.8-0.2-1.4-0.5-1.8
		c-0.3-0.4-0.8-0.6-1.4-0.6c-0.6,0-1.1,0.2-1.4,0.6C542.4-66,542.2-65.4,542.2-64.7z"/>
	<path class="st3" d="M548.4-61.5v-8.6h1.1v8.6H548.4z"/>
	<path class="st3" d="M550.8-64.7c0-1.1,0.3-1.9,0.8-2.5c0.5-0.6,1.3-0.9,2.2-0.9c1,0,1.7,0.3,2.2,0.9c0.5,0.6,0.8,1.4,0.8,2.5
		c0,1.1-0.3,1.9-0.8,2.5c-0.5,0.6-1.3,0.9-2.2,0.9c-1,0-1.7-0.3-2.2-0.9C551.1-62.8,550.8-63.6,550.8-64.7z M551.9-64.7
		c0,0.8,0.2,1.4,0.5,1.8c0.3,0.4,0.8,0.6,1.4,0.6c0.6,0,1.1-0.2,1.4-0.6c0.3-0.4,0.5-1,0.5-1.8c0-0.8-0.2-1.4-0.5-1.8
		c-0.3-0.4-0.8-0.6-1.4-0.6c-0.6,0-1.1,0.2-1.4,0.6C552.1-66,551.9-65.4,551.9-64.7z"/>
	<path class="st3" d="M562.6-62.3c-0.2,0.3-0.5,0.6-0.9,0.7c-0.3,0.2-0.7,0.2-1.1,0.2c-0.8,0-1.5-0.3-2-0.9
		c-0.5-0.6-0.8-1.4-0.8-2.4c0-1,0.3-1.8,0.8-2.4c0.5-0.6,1.2-0.9,2.1-0.9c0.4,0,0.8,0.1,1.1,0.2c0.3,0.2,0.6,0.4,0.9,0.8v-0.8h1v6.1
		c0,1-0.2,1.7-0.7,2.1c-0.5,0.4-1.2,0.6-2.2,0.6c-0.8,0-1.5-0.2-2-0.5c-0.5-0.3-0.7-0.8-0.7-1.3v0h1v0c0,0.3,0.1,0.6,0.4,0.7
		c0.3,0.2,0.7,0.2,1.2,0.2c0.7,0,1.1-0.1,1.4-0.4c0.3-0.3,0.4-0.7,0.4-1.3V-62.3z M560.8-67c-0.6,0-1.1,0.2-1.4,0.6
		c-0.3,0.4-0.5,1-0.5,1.8c0,0.8,0.2,1.3,0.5,1.8c0.3,0.4,0.8,0.6,1.4,0.6c0.6,0,1.1-0.2,1.4-0.6c0.3-0.4,0.5-1,0.5-1.8
		c0-0.8-0.2-1.4-0.5-1.8C561.9-66.8,561.4-67,560.8-67z"/>
	<path class="st3" d="M569.5-67.8h1.2l-2.6,7.2c-0.3,0.7-0.5,1.1-0.8,1.3c-0.3,0.2-0.6,0.3-1.1,0.3c-0.1,0-0.2,0-0.3,0
		c-0.1,0-0.2,0-0.3-0.1v-1c0.1,0,0.2,0.1,0.3,0.1c0.1,0,0.2,0,0.3,0c0.2,0,0.4,0,0.5-0.1c0.1-0.1,0.2-0.2,0.3-0.4l0.3-0.7l-2.4-6.6
		h1.2l1.7,5.1L569.5-67.8z"/>
</g>
<g>
	<path class="st1" d="M431-82.5c-2,0-3.9-0.3-5.7-0.8c-1.8-0.5-3.2-1.1-4.5-1.8l-1.6,1.6h-2l-0.3-12h2c0.5,1.1,1,2.3,1.7,3.6
		c0.7,1.3,1.5,2.4,2.4,3.4c1,1,2,1.9,3.2,2.6c1.2,0.7,2.6,1,4.1,1c2.1,0,3.8-0.5,4.9-1.6c1.1-1,1.7-2.3,1.7-3.9
		c0-1.3-0.5-2.4-1.4-3.3c-1-0.9-2.4-1.6-4.5-2.3c-1.3-0.4-2.5-0.8-3.6-1.2c-1.1-0.4-2.1-0.7-3.1-1.1c-2.2-0.9-3.9-2.2-5-3.8
		c-1.1-1.7-1.6-3.5-1.6-5.6c0-1.3,0.3-2.5,0.8-3.7s1.4-2.3,2.5-3.2c1-0.9,2.4-1.6,4-2.2c1.6-0.6,3.4-0.8,5.3-0.8
		c1.8,0,3.6,0.3,5.2,0.8c1.6,0.5,2.9,1,3.8,1.5l1.4-1.4h2l0.2,11.3h-2c-0.5-1.2-1-2.5-1.7-3.7c-0.6-1.3-1.3-2.3-2-3.2
		c-0.8-0.9-1.6-1.6-2.6-2.2c-1-0.5-2.2-0.8-3.5-0.8c-1.7,0-3.1,0.5-4.1,1.4c-1.1,1-1.6,2.1-1.6,3.5c0,1.3,0.5,2.4,1.4,3.3
		c0.9,0.8,2.4,1.6,4.3,2.2c1.2,0.4,2.3,0.8,3.5,1.2s2.3,0.8,3.2,1.1c2.3,0.9,4,2.1,5.2,3.6c1.2,1.5,1.8,3.5,1.8,5.7
		c0,1.4-0.3,2.8-1,4.2c-0.7,1.3-1.6,2.5-2.7,3.4c-1.3,1-2.7,1.7-4.3,2.3C435.1-82.8,433.2-82.5,431-82.5z"/>
	<path class="st1" d="M457.9-102c0,1.1-0.4,2.1-1.3,2.9c-0.8,0.8-1.8,1.2-3,1.2c-1.2,0-2.2-0.4-3-1.2c-0.8-0.8-1.3-1.8-1.3-3
		c0-1.1,0.4-2.1,1.3-3c0.8-0.8,1.8-1.3,3-1.3c1.1,0,2.1,0.4,3,1.3C457.5-104.1,457.9-103.1,457.9-102z M457.9-88.4
		c0,1.1-0.4,2.1-1.3,2.9c-0.8,0.8-1.8,1.2-3,1.2c-1.2,0-2.2-0.4-3-1.2c-0.8-0.8-1.3-1.8-1.3-3c0-1.1,0.4-2.1,1.3-3
		c0.8-0.8,1.8-1.3,3-1.3c1.1,0,2.1,0.4,3,1.3C457.5-90.5,457.9-89.5,457.9-88.4z"/>
	<path class="st1" d="M488.5-104.1h-5.2c0.6,0.7,1.1,1.4,1.4,2.2c0.3,0.8,0.5,1.6,0.5,2.4c0,1.1-0.3,2.1-0.9,3
		c-0.6,0.9-1.3,1.7-2.3,2.3c-1,0.6-2.1,1.1-3.4,1.4c-1.3,0.3-2.7,0.5-4.2,0.5h-3.8c-0.2,0.1-0.4,0.4-0.6,0.7
		c-0.2,0.3-0.3,0.6-0.3,0.9c0,0.7,0.3,1.2,0.8,1.4c0.5,0.3,1.5,0.4,3,0.4c1.4,0,2.9,0.1,4.3,0.2c1.5,0.1,2.5,0.1,3.1,0.2
		c0.9,0,1.8,0.2,2.7,0.6c0.9,0.3,1.7,0.7,2.3,1.3c0.7,0.5,1.3,1.2,1.8,2.1c0.5,0.9,0.7,1.8,0.7,2.9c0,1.2-0.3,2.3-0.9,3.4
		c-0.6,1-1.4,2-2.6,2.7c-1.2,0.8-2.7,1.4-4.4,1.9c-1.7,0.4-3.9,0.7-6.4,0.7c-4.1,0-7.2-0.5-9.4-1.5c-2.1-1-3.2-2.5-3.2-4.5
		c0-1.2,0.6-2.3,1.7-3c1.2-0.8,3-1.2,5.4-1.3v-0.3c-1.4-0.5-2.6-1.1-3.4-1.9c-0.8-0.8-1.2-1.7-1.2-2.8c0-0.7,0.2-1.2,0.5-1.7
		c0.3-0.5,0.7-0.9,1.2-1.2c0.4-0.3,1-0.6,1.6-0.8c0.6-0.2,1.1-0.4,1.6-0.5v-0.3c-2.1-0.8-3.7-1.7-4.7-2.9c-1-1.1-1.5-2.5-1.5-4.1
		c0-2.3,1.1-4.1,3.2-5.5c2.1-1.4,4.8-2.1,8.1-2.1c1.1,0,2.1,0.1,3.1,0.3c1,0.2,1.7,0.3,2.3,0.5h9.1V-104.1z M481.4-79.9
		c0-0.5-0.1-1.1-0.4-1.6c-0.3-0.5-1-0.9-2-1.3c-0.6-0.1-1.5-0.2-2.8-0.2c-1.3,0-3.1,0-5.3,0c-0.5,0.5-1,1-1.4,1.7
		c-0.4,0.6-0.5,1.4-0.5,2.3c0,0.4,0.1,0.8,0.3,1.3c0.2,0.5,0.6,0.9,1,1.3c0.5,0.5,1.2,0.8,1.8,1.1c0.7,0.3,1.7,0.4,3,0.4
		c2,0,3.5-0.4,4.6-1.2C480.9-76.9,481.4-78.2,481.4-79.9z M477.5-99.6c0-1.8-0.3-3.3-0.9-4.3c-0.6-1.1-1.5-1.6-2.7-1.6
		c-0.6,0-1.1,0.1-1.6,0.4c-0.5,0.3-0.8,0.7-1.1,1.3c-0.3,0.5-0.4,1.2-0.5,1.9c-0.1,0.7-0.1,1.4-0.1,2.2c0,1.7,0.3,3.1,0.9,4.2
		c0.6,1.1,1.4,1.6,2.5,1.6c1.1,0,2-0.5,2.6-1.5C477.2-96.4,477.5-97.8,477.5-99.6z"/>
	<path class="st1" d="M522.8-83.5h-14.1v-1.7c0.3,0,0.7-0.1,1.1-0.1c0.4,0,0.7-0.1,1-0.2c0.3-0.2,0.6-0.4,0.7-0.8
		c0.1-0.3,0.2-0.8,0.2-1.5v-11c0-1.6-0.3-2.8-0.9-3.6c-0.6-0.8-1.5-1.2-2.6-1.2c-0.6,0-1.2,0.1-1.8,0.3c-0.5,0.2-1.1,0.5-1.6,0.8
		c-0.5,0.3-0.8,0.6-1.1,1c-0.3,0.3-0.5,0.6-0.7,0.9V-88c0,0.5,0.1,1,0.2,1.4c0.2,0.4,0.4,0.6,0.8,0.8c0.3,0.1,0.6,0.3,0.9,0.4
		c0.4,0.1,0.7,0.2,1.1,0.2v1.7h-14.2v-1.7c0.4,0,0.8-0.1,1.2-0.1c0.4-0.1,0.7-0.1,1-0.2c0.5-0.2,0.8-0.4,1-0.8s0.3-0.8,0.3-1.4
		v-13.6c0-0.5-0.1-1-0.4-1.4c-0.3-0.5-0.6-0.9-1-1.1c-0.3-0.2-0.6-0.3-1.1-0.5c-0.4-0.1-0.9-0.2-1.4-0.3v-1.7l11.2-0.6l0.4,0.4v3.4
		h0.1c0.4-0.4,1-0.9,1.6-1.4c0.6-0.5,1.2-1,1.7-1.3c0.6-0.4,1.3-0.7,2.3-1s1.9-0.4,3-0.4c2.5,0,4.5,0.7,5.7,2.2
		c1.3,1.4,1.9,3.4,1.9,5.8v11.5c0,0.6,0.1,1,0.3,1.4c0.2,0.3,0.5,0.6,1,0.8c0.3,0.1,0.6,0.2,0.9,0.3c0.4,0.1,0.8,0.2,1.3,0.2V-83.5z
		"/>
	<path class="st1" d="M534-102c0,1.1-0.4,2.1-1.3,2.9c-0.8,0.8-1.8,1.2-3,1.2c-1.2,0-2.2-0.4-3-1.2c-0.8-0.8-1.3-1.8-1.3-3
		c0-1.1,0.4-2.1,1.3-3s1.8-1.3,3-1.3c1.1,0,2.1,0.4,3,1.3C533.6-104.1,534-103.1,534-102z M534-88.4c0,1.1-0.4,2.1-1.3,2.9
		c-0.8,0.8-1.8,1.2-3,1.2c-1.2,0-2.2-0.4-3-1.2c-0.8-0.8-1.3-1.8-1.3-3c0-1.1,0.4-2.1,1.3-3c0.8-0.8,1.8-1.3,3-1.3
		c1.1,0,2.1,0.4,3,1.3C533.6-90.5,534-89.5,534-88.4z"/>
	<path class="st1" d="M556.6-84.5c-1,0.4-2.1,0.8-3.2,1.2c-1.1,0.4-2.5,0.5-4.2,0.5c-2.4,0-4.2-0.6-5.4-1.8
		c-1.2-1.2-1.8-2.9-1.8-5.1v-14.4h-4.2v-2.6h4.3v-7.1h7.6v7.1h6.6v2.6h-6.5v12.8c0,1.8,0.3,3.1,0.8,3.9c0.5,0.8,1.4,1.1,2.7,1.1
		c0.4,0,1,0,1.8-0.1c0.8-0.1,1.3-0.1,1.6-0.2V-84.5z"/>
	<path class="st1" d="M583.5-89.1c-0.5,0.9-1.2,1.7-2,2.5c-0.8,0.8-1.7,1.5-2.6,2c-1,0.6-2.1,1-3.2,1.3c-1.1,0.3-2.3,0.5-3.7,0.5
		c-2.3,0-4.3-0.3-6-1c-1.7-0.7-3.1-1.5-4.2-2.6c-1.1-1.1-1.9-2.4-2.4-3.9c-0.5-1.5-0.8-3.1-0.8-4.9c0-1.6,0.3-3.1,0.9-4.6
		c0.6-1.5,1.4-2.8,2.5-3.9c1.1-1.1,2.4-2,4-2.7c1.6-0.7,3.4-1,5.4-1c2.2,0,4,0.3,5.4,0.8c1.4,0.5,2.6,1.3,3.5,2.2
		c0.9,0.9,1.5,1.9,1.9,3.2c0.4,1.2,0.6,2.5,0.6,3.8v1.5H567c0,3.2,0.6,5.6,1.9,7.3c1.2,1.7,3.2,2.5,5.9,2.5c1.5,0,2.8-0.4,4-1.2
		c1.2-0.8,2.2-1.8,3-3.1L583.5-89.1z M574.5-98c0-0.9,0-1.9-0.1-2.9c-0.1-1-0.3-1.8-0.5-2.4c-0.3-0.7-0.6-1.3-1.1-1.7
		c-0.5-0.4-1-0.6-1.7-0.6c-1.2,0-2.2,0.6-2.9,1.8c-0.7,1.2-1.1,3.1-1.2,5.8L574.5-98z"/>
</g>
</svg>
